999
dxflib 3.12.2.0
  0
SECTION
  2
HEADER
  9
$ACADVER
  1
AC1015
  9
$HANDSEED
  5
FFFF
  9
$DIMADEC
 70
0
  9
$DIMASZ
 40
2.5
  9
$DIMAUNIT
 70
0
  9
$DIMAZIN
 70
2
  9
$DIMDEC
 70
4
  9
$DIMEXE
 40
1.25
  9
$DIMEXO
 40
0.625
  9
$DIMGAP
 40
0.625
  9
$DIMLUNIT
 70
2
  9
$DIMSCALE
 40
1.0
  9
$DIMTSZ
 40
0.0
  9
$DIMTXT
 40
2.5
  9
$DIMZIN
 70
8
  9
$DWGCODEPAGE
  3
ANSI_1252
  9
$INSUNITS
 70
4
  9
$LTSCALE
 40
1.0
  9
$MEASUREMENT
 70
1
  9
$PDMODE
 70
0
  9
$PDSIZE
 40
0
  0
ENDSEC
  0
SECTION
  2
TABLES
  0
TABLE
  2
VPORT
  5
8
100
AcDbSymbolTable
 70
1
  0
VPORT
  5
30
100
AcDbSymbolTableRecord
100
AcDbViewportTableRecord
  2
*Active
 70
0
 10
0.0
 20
0.0
 11
1.0
 21
1.0
 12
286.3055555555554861
 22
148.5
 13
0.0
 23
0.0
 14
10.0
 24
10.0
 15
10.0
 25
10.0
 16
0.0
 26
0.0
 36
1.0
 17
0.0
 27
0.0
 37
0.0
 40
297.0
 41
1.92798353909465
 42
50.0
 43
0.0
 44
0.0
 50
0.0
 51
0.0
 71
0
 72
100
 73
1
 74
3
 75
1
 76
1
 77
0
 78
0
281
0
 65
1
110
0.0
120
0.0
130
0.0
111
1.0
121
0.0
131
0.0
112
0.0
122
1.0
132
0.0
 79
0
146
0.0
  0
ENDTAB
  0
TABLE
  2
LTYPE
  5
5
100
AcDbSymbolTable
 70
41
  0
LTYPE
  5
16
100
AcDbSymbolTableRecord
100
AcDbLinetypeTableRecord
  2
Continuous
 70
0
  3
Solid line
 72
65
 73
0
 40
0.0
  0
LTYPE
  5
31
100
AcDbSymbolTableRecord
100
AcDbLinetypeTableRecord
  2
ACAD_ISO15W100
 70
0
  3
ISO double-dash triple-dot __ __ . . . __ __ . .
 72
65
 73
10
 40
39.0000000000000071
 49
12.0
 74
0
 49
-3.0
 74
0
 49
12.0
 74
0
 49
-2.9500000000000002
 74
0
 49
0.1
 74
0
 49
-2.9000000000000004
 74
0
 49
0.1
 74
0
 49
-2.9000000000000004
 74
0
 49
0.1
 74
0
 49
-2.9500000000000002
 74
0
  0
LTYPE
  5
32
100
AcDbSymbolTableRecord
100
AcDbLinetypeTableRecord
  2
DIVIDE
 70
0
  3
Divide ____ . . ____ . . ____ . . ____ . . ____
 72
65
 73
6
 40
31.7500000000000036
 49
12.6999999999999993
 74
0
 49
-6.2999999999999998
 74
0
 49
0.1
 74
0
 49
-6.25
 74
0
 49
0.1
 74
0
 49
-6.2999999999999998
 74
0
  0
LTYPE
  5
33
100
AcDbSymbolTableRecord
100
AcDbLinetypeTableRecord
  2
ACAD_ISO10W100
 70
0
  3
ISO dash dot __ . __ . __ . __ . __ . __ . __ . 
 72
65
 73
4
 40
18.0
 49
12.0
 74
0
 49
-2.9500000000000002
 74
0
 49
0.1
 74
0
 49
-2.9500000000000002
 74
0
  0
LTYPE
  5
34
100
AcDbSymbolTableRecord
100
AcDbLinetypeTableRecord
  2
ACAD_ISO04W100
 70
0
  3
ISO long-dash dot ____ . ____ . ____ . ____ . _
 72
65
 73
4
 40
30.0
 49
24.0
 74
0
 49
-2.9500000000000002
 74
0
 49
0.1
 74
0
 49
-2.9500000000000002
 74
0
  0
LTYPE
  5
35
100
AcDbSymbolTableRecord
100
AcDbLinetypeTableRecord
  2
CENTER2
 70
0
  3
Center (.5x) ___ _ ___ _ ___ _ ___ _ ___ _ ___
 72
65
 73
4
 40
28.5750000000000028
 49
19.0500000000000007
 74
0
 49
-3.1749999999999998
 74
0
 49
3.1749999999999998
 74
0
 49
-3.1749999999999998
 74
0
  0
LTYPE
  5
36
100
AcDbSymbolTableRecord
100
AcDbLinetypeTableRecord
  2
ACAD_ISO11W100
 70
0
  3
ISO double-dash dot __ __ . __ __ . __ __ . __ _
 72
65
 73
6
 40
33.0
 49
12.0
 74
0
 49
-3.0
 74
0
 49
12.0
 74
0
 49
-2.9500000000000002
 74
0
 49
0.1
 74
0
 49
-2.9500000000000002
 74
0
  0
LTYPE
  5
37
100
AcDbSymbolTableRecord
100
AcDbLinetypeTableRecord
  2
HIDDEN2
 70
0
  3
Hidden (.5x) _ _ _ _ _ _ _ _ _ _ _ _ _ _ _ _ _ 
 72
65
 73
2
 40
4.7624999999999993
 49
3.1749999999999998
 74
0
 49
-1.5874999999999999
 74
0
  0
LTYPE
  5
38
100
AcDbSymbolTableRecord
100
AcDbLinetypeTableRecord
  2
BORDERX2
 70
0
  3
Border (2x) ____  ____  .  ____  ____  .  ___
 72
65
 73
6
 40
88.8999999999999773
 49
25.3999999999999986
 74
0
 49
-12.6999999999999993
 74
0
 49
25.3999999999999986
 74
0
 49
-12.6499999999999986
 74
0
 49
0.1
 74
0
 49
-12.6499999999999986
 74
0
  0
LTYPE
  5
39
100
AcDbSymbolTableRecord
100
AcDbLinetypeTableRecord
  2
ACAD_ISO05W100
 70
0
  3
ISO long-dash double-dot ____ .. ____ .. ____ . 
 72
65
 73
6
 40
33.0000000000000071
 49
24.0
 74
0
 49
-2.9500000000000002
 74
0
 49
0.1
 74
0
 49
-2.9000000000000004
 74
0
 49
0.1
 74
0
 49
-2.9500000000000002
 74
0
  0
LTYPE
  5
3A
100
AcDbSymbolTableRecord
100
AcDbLinetypeTableRecord
  2
DASHDOTX2
 70
0
  3
Dash dot (2x) ____  .  ____  .  ____  .  ___
 72
65
 73
4
 40
50.7999999999999972
 49
25.3999999999999986
 74
0
 49
-12.6499999999999986
 74
0
 49
0.1
 74
0
 49
-12.6499999999999986
 74
0
  0
LTYPE
  5
3B
100
AcDbSymbolTableRecord
100
AcDbLinetypeTableRecord
  2
HIDDENX2
 70
0
  3
Hidden (2x) ____ ____ ____ ____ ____ ____ ____ 
 72
65
 73
2
 40
19.0499999999999972
 49
12.6999999999999993
 74
0
 49
-6.3499999999999996
 74
0
  0
LTYPE
  5
3C
100
AcDbSymbolTableRecord
100
AcDbLinetypeTableRecord
  2
CENTERX2
 70
0
  3
Center (2x) ________  __  ________  __  _____
 72
65
 73
4
 40
101.6000000000000085
 49
63.5
 74
0
 49
-12.6999999999999993
 74
0
 49
12.6999999999999993
 74
0
 49
-12.6999999999999993
 74
0
  0
LTYPE
  5
3D
100
AcDbSymbolTableRecord
100
AcDbLinetypeTableRecord
  2
BORDER2
 70
0
  3
Border (.5x) __.__.__.__.__.__.__.__.__.__.__.
 72
65
 73
6
 40
22.2250000000000014
 49
6.3499999999999996
 74
0
 49
-3.1749999999999998
 74
0
 49
6.3499999999999996
 74
0
 49
-3.125
 74
0
 49
0.1
 74
0
 49
-3.125
 74
0
  0
LTYPE
  5
3E
100
AcDbSymbolTableRecord
100
AcDbLinetypeTableRecord
  2
DASHDOT2
 70
0
  3
Dash dot (.5x) _._._._._._._._._._._._._._._.
 72
65
 73
4
 40
12.6999999999999993
 49
6.3499999999999996
 74
0
 49
-3.125
 74
0
 49
0.1
 74
0
 49
-3.125
 74
0
  0
LTYPE
  5
3F
100
AcDbSymbolTableRecord
100
AcDbLinetypeTableRecord
  2
ACAD_ISO12W100
 70
0
  3
ISO dash double-dot __ . . __ . . __ . . __ . . 
 72
65
 73
6
 40
21.0
 49
12.0
 74
0
 49
-2.9500000000000002
 74
0
 49
0.1
 74
0
 49
-2.9000000000000004
 74
0
 49
0.1
 74
0
 49
-2.9500000000000002
 74
0
  0
LTYPE
  5
40
100
AcDbSymbolTableRecord
100
AcDbLinetypeTableRecord
  2
ACAD_ISO07W100
 70
0
  3
ISO dot . . . . . . . . . . . . . . . . . . . . 
 72
65
 73
2
 40
3.0
 49
0.1
 74
0
 49
-2.8999999999999999
 74
0
  0
LTYPE
  5
41
100
AcDbSymbolTableRecord
100
AcDbLinetypeTableRecord
  2
HIDDEN
 70
0
  3
Hidden __ __ __ __ __ __ __ __ __ __ __ __ __ __
 72
65
 73
2
 40
9.5249999999999986
 49
6.3499999999999996
 74
0
 49
-3.1749999999999998
 74
0
  0
LTYPE
  5
42
100
AcDbSymbolTableRecord
100
AcDbLinetypeTableRecord
  2
ACAD_ISO06W100
 70
0
  3
ISO long-dash triple-dot ____ ... ____ ... ____
 72
65
 73
8
 40
36.0000000000000071
 49
24.0
 74
0
 49
-2.9500000000000002
 74
0
 49
0.1
 74
0
 49
-2.9000000000000004
 74
0
 49
0.1
 74
0
 49
-2.9000000000000004
 74
0
 49
0.1
 74
0
 49
-2.9500000000000002
 74
0
  0
LTYPE
  5
43
100
AcDbSymbolTableRecord
100
AcDbLinetypeTableRecord
  2
CENTER
 70
0
  3
Center ____ _ ____ _ ____ _ ____ _ ____ _ ____
 72
65
 73
4
 40
50.8000000000000043
 49
31.75
 74
0
 49
-6.3499999999999996
 74
0
 49
6.3499999999999996
 74
0
 49
-6.3499999999999996
 74
0
  0
LTYPE
  5
44
100
AcDbSymbolTableRecord
100
AcDbLinetypeTableRecord
  2
DOTX2
 70
0
  3
Dot (2x) .  .  .  .  .  .  .  .  .  .  .  .  .  .
 72
65
 73
2
 40
12.6999999999999993
 49
0.1
 74
0
 49
-12.5999999999999996
 74
0
  0
LTYPE
  5
45
100
AcDbSymbolTableRecord
100
AcDbLinetypeTableRecord
  2
PHANTOM
 70
0
  3
Phantom ______  __  __  ______  __  __  ______ 
 72
65
 73
6
 40
63.5000000000000071
 49
31.75
 74
0
 49
-6.3499999999999996
 74
0
 49
6.3499999999999996
 74
0
 49
-6.3499999999999996
 74
0
 49
6.3499999999999996
 74
0
 49
-6.3499999999999996
 74
0
  0
LTYPE
  5
46
100
AcDbSymbolTableRecord
100
AcDbLinetypeTableRecord
  2
ACAD_ISO08W100
 70
0
  3
ISO long-dash short-dash ____ __ ____ __ ____ _
 72
65
 73
4
 40
36.0
 49
24.0
 74
0
 49
-3.0
 74
0
 49
6.0
 74
0
 49
-3.0
 74
0
  0
LTYPE
  5
47
100
AcDbSymbolTableRecord
100
AcDbLinetypeTableRecord
  2
DASHEDX2
 70
0
  3
Dashed (2x) ____  ____  ____  ____  ____  ___
 72
65
 73
2
 40
38.0999999999999943
 49
25.3999999999999986
 74
0
 49
-12.6999999999999993
 74
0
  0
LTYPE
  5
48
100
AcDbSymbolTableRecord
100
AcDbLinetypeTableRecord
  2
ACAD_ISO02W100
 70
0
  3
ISO dash __ __ __ __ __ __ __ __ __ __ __ __ __
 72
65
 73
2
 40
15.0
 49
12.0
 74
0
 49
-3.0
 74
0
  0
LTYPE
  5
49
100
AcDbSymbolTableRecord
100
AcDbLinetypeTableRecord
  2
PHANTOM2
 70
0
  3
Phantom (.5x) ___ _ _ ___ _ _ ___ _ _ ___ _ _
 72
65
 73
6
 40
31.7500000000000036
 49
15.875
 74
0
 49
-3.1749999999999998
 74
0
 49
3.1749999999999998
 74
0
 49
-3.1749999999999998
 74
0
 49
3.1749999999999998
 74
0
 49
-3.1749999999999998
 74
0
  0
LTYPE
  5
4A
100
AcDbSymbolTableRecord
100
AcDbLinetypeTableRecord
  2
DASHED2
 70
0
  3
Dashed (.5x) _ _ _ _ _ _ _ _ _ _ _ _ _ _ _ _ _ 
 72
65
 73
2
 40
9.5249999999999986
 49
6.3499999999999996
 74
0
 49
-3.1749999999999998
 74
0
  0
LTYPE
  5
4B
100
AcDbSymbolTableRecord
100
AcDbLinetypeTableRecord
  2
ACAD_ISO09W100
 70
0
  3
ISO long-dash double-short-dash ____ __ __ ____
 72
65
 73
6
 40
45.0
 49
24.0
 74
0
 49
-3.0
 74
0
 49
6.0
 74
0
 49
-3.0
 74
0
 49
6.0
 74
0
 49
-3.0
 74
0
  0
LTYPE
  5
4C
100
AcDbSymbolTableRecord
100
AcDbLinetypeTableRecord
  2
ACAD_ISO13W100
 70
0
  3
ISO double-dash double-dot __ __ . . __ __ . . _
 72
65
 73
8
 40
36.0000000000000071
 49
12.0
 74
0
 49
-3.0
 74
0
 49
12.0
 74
0
 49
-2.9500000000000002
 74
0
 49
0.1
 74
0
 49
-2.9000000000000004
 74
0
 49
0.1
 74
0
 49
-2.9500000000000002
 74
0
  0
LTYPE
  5
4D
100
AcDbSymbolTableRecord
100
AcDbLinetypeTableRecord
  2
DOT2
 70
0
  3
Dot (.5x) ........................................
 72
65
 73
2
 40
3.1749999999999998
 49
0.1
 74
0
 49
-3.0749999999999997
 74
0
  0
LTYPE
  5
4E
100
AcDbSymbolTableRecord
100
AcDbLinetypeTableRecord
  2
DASHED
 70
0
  3
Dashed __ __ __ __ __ __ __ __ __ __ __ __ __ _
 72
65
 73
2
 40
19.0499999999999972
 49
12.6999999999999993
 74
0
 49
-6.3499999999999996
 74
0
  0
LTYPE
  5
4F
100
AcDbSymbolTableRecord
100
AcDbLinetypeTableRecord
  2
ACAD_ISO14W100
 70
0
  3
ISO dash triple-dot __ . . . __ . . . __ . . . _
 72
65
 73
8
 40
24.0000000000000036
 49
12.0
 74
0
 49
-2.9500000000000002
 74
0
 49
0.1
 74
0
 49
-2.9000000000000004
 74
0
 49
0.1
 74
0
 49
-2.9000000000000004
 74
0
 49
0.1
 74
0
 49
-2.9500000000000002
 74
0
  0
LTYPE
  5
15
100
AcDbSymbolTableRecord
100
AcDbLinetypeTableRecord
  2
BYLAYER
 70
0
  3

 72
65
 73
0
 40
0.0
  0
LTYPE
  5
50
100
AcDbSymbolTableRecord
100
AcDbLinetypeTableRecord
  2
PHANTOMX2
 70
0
  3
Phantom (2x) ____________    ____    ____   _
 72
65
 73
6
 40
127.0000000000000142
 49
63.5
 74
0
 49
-12.6999999999999993
 74
0
 49
12.6999999999999993
 74
0
 49
-12.6999999999999993
 74
0
 49
12.6999999999999993
 74
0
 49
-12.6999999999999993
 74
0
  0
LTYPE
  5
14
100
AcDbSymbolTableRecord
100
AcDbLinetypeTableRecord
  2
BYBLOCK
 70
0
  3

 72
65
 73
0
 40
0.0
  0
LTYPE
  5
51
100
AcDbSymbolTableRecord
100
AcDbLinetypeTableRecord
  2
DIVIDEX2
 70
0
  3
Divide (2x) ________  .  .  ________  .  .  _
 72
65
 73
6
 40
63.5
 49
25.3999999999999986
 74
0
 49
-12.6499999999999986
 74
0
 49
0.1
 74
0
 49
-12.5999999999999979
 74
0
 49
0.1
 74
0
 49
-12.6499999999999986
 74
0
  0
LTYPE
  5
52
100
AcDbSymbolTableRecord
100
AcDbLinetypeTableRecord
  2
BORDER
 70
0
  3
Border __ __ . __ __ . __ __ . __ __ . __ __ .
 72
65
 73
6
 40
44.4499999999999957
 49
12.6999999999999993
 74
0
 49
-6.3499999999999996
 74
0
 49
12.6999999999999993
 74
0
 49
-6.2999999999999998
 74
0
 49
0.1
 74
0
 49
-6.2999999999999998
 74
0
  0
LTYPE
  5
53
100
AcDbSymbolTableRecord
100
AcDbLinetypeTableRecord
  2
DIVIDE2
 70
0
  3
Divide (.5x) __..__..__..__..__..__..__..__.._
 72
65
 73
6
 40
15.8749999999999982
 49
6.3499999999999996
 74
0
 49
-3.125
 74
0
 49
0.1
 74
0
 49
-3.0750000000000002
 74
0
 49
0.1
 74
0
 49
-3.125
 74
0
  0
LTYPE
  5
54
100
AcDbSymbolTableRecord
100
AcDbLinetypeTableRecord
  2
DOT
 70
0
  3
Dot . . . . . . . . . . . . . . . . . . . . . . . .
 72
65
 73
2
 40
6.3499999999999996
 49
0.1
 74
0
 49
-6.25
 74
0
  0
LTYPE
  5
55
100
AcDbSymbolTableRecord
100
AcDbLinetypeTableRecord
  2
DASHDOT
 70
0
  3
Dash dot __ . __ . __ . __ . __ . __ . __ . __
 72
65
 73
4
 40
25.4000000000000021
 49
12.6999999999999993
 74
0
 49
-6.2999999999999998
 74
0
 49
0.1
 74
0
 49
-6.2999999999999998
 74
0
  0
LTYPE
  5
56
100
AcDbSymbolTableRecord
100
AcDbLinetypeTableRecord
  2
ACAD_ISO03W100
 70
0
  3
ISO dash space __    __    __    __    __    __
 72
65
 73
2
 40
30.0
 49
12.0
 74
0
 49
-18.0
 74
0
  0
ENDTAB
  0
TABLE
  2
LAYER
  5
2
100
AcDbSymbolTable
 70
30
  0
LAYER
  5
57
100
AcDbSymbolTableRecord
100
AcDbLayerTableRecord
  2
bras_a_haut_gauche
 70
0
 62
7
420
0
  6
Continuous
370
25
390
F
  0
LAYER
  5
58
100
AcDbSymbolTableRecord
100
AcDbLayerTableRecord
  2
bras_a_milieu_gauche
 70
0
 62
7
420
0
  6
Continuous
370
25
390
F
  0
LAYER
  5
59
100
AcDbSymbolTableRecord
100
AcDbLayerTableRecord
  2
bras_b_milieu_gauche
 70
0
 62
7
420
0
  6
Continuous
370
25
390
F
  0
LAYER
  5
5A
100
AcDbSymbolTableRecord
100
AcDbLayerTableRecord
  2
support_led_a_bas_gauche
 70
0
 62
7
420
0
  6
Continuous
370
25
390
F
  0
LAYER
  5
5B
100
AcDbSymbolTableRecord
100
AcDbLayerTableRecord
  2
support_led_a_milieu_droit
 70
0
 62
7
420
0
  6
Continuous
370
25
390
F
  0
LAYER
  5
5C
100
AcDbSymbolTableRecord
100
AcDbLayerTableRecord
  2
bras_a_bas_droit
 70
0
 62
7
420
0
  6
Continuous
370
25
390
F
  0
LAYER
  5
5D
100
AcDbSymbolTableRecord
100
AcDbLayerTableRecord
  2
support_led_b_bas_droit
 70
0
 62
7
420
0
  6
Continuous
370
25
390
F
  0
LAYER
  5
5E
100
AcDbSymbolTableRecord
100
AcDbLayerTableRecord
  2
plan de travail
 70
0
 62
3
420
65280
  6
Continuous
370
25
390
F
  0
LAYER
  5
5F
100
AcDbSymbolTableRecord
100
AcDbLayerTableRecord
  2
support_led_a_milieu_gauche
 70
0
 62
7
420
0
  6
Continuous
370
25
390
F
  0
LAYER
  5
10
100
AcDbSymbolTableRecord
100
AcDbLayerTableRecord
  2
0
 70
0
 62
7
420
16777215
  6
Continuous
370
25
390
F
  0
LAYER
  5
60
100
AcDbSymbolTableRecord
100
AcDbLayerTableRecord
  2
support_led_b_milieu_gauche
 70
0
 62
7
420
0
  6
Continuous
370
25
390
F
  0
LAYER
  5
61
100
AcDbSymbolTableRecord
100
AcDbLayerTableRecord
  2
support_led_b_bas_gauche
 70
0
 62
7
420
0
  6
Continuous
370
25
390
F
  0
LAYER
  5
62
100
AcDbSymbolTableRecord
100
AcDbLayerTableRecord
  2
bras_a_milieu_droit
 70
0
 62
7
420
0
  6
Continuous
370
25
390
F
  0
LAYER
  5
63
100
AcDbSymbolTableRecord
100
AcDbLayerTableRecord
  2
support_led_b_milieu_droit
 70
0
 62
7
420
0
  6
Continuous
370
25
390
F
  0
LAYER
  5
64
100
AcDbSymbolTableRecord
100
AcDbLayerTableRecord
  2
support_led_b_haut_gauche
 70
0
 62
7
420
0
  6
Continuous
370
25
390
F
  0
LAYER
  5
65
100
AcDbSymbolTableRecord
100
AcDbLayerTableRecord
  2
bras_a_bas_gauche
 70
0
 62
7
420
0
  6
Continuous
370
25
390
F
  0
LAYER
  5
66
100
AcDbSymbolTableRecord
100
AcDbLayerTableRecord
  2
bras_a_haut_droit
 70
0
 62
7
420
0
  6
Continuous
370
25
390
F
  0
LAYER
  5
67
100
AcDbSymbolTableRecord
100
AcDbLayerTableRecord
  2
support_led_a_haut_droit
 70
0
 62
7
420
0
  6
Continuous
370
25
390
F
  0
LAYER
  5
68
100
AcDbSymbolTableRecord
100
AcDbLayerTableRecord
  2
bras_b_bas_gauche
 70
0
 62
7
420
0
  6
Continuous
370
25
390
F
  0
LAYER
  5
69
100
AcDbSymbolTableRecord
100
AcDbLayerTableRecord
  2
bras_b_milieu_droit
 70
0
 62
7
420
0
  6
Continuous
370
25
390
F
  0
LAYER
  5
6A
100
AcDbSymbolTableRecord
100
AcDbLayerTableRecord
  2
support_led_b_haut_droit
 70
0
 62
7
420
0
  6
Continuous
370
25
390
F
  0
LAYER
  5
6B
100
AcDbSymbolTableRecord
100
AcDbLayerTableRecord
  2
support_led_a_bas_droit
 70
0
 62
7
420
0
  6
Continuous
370
25
390
F
  0
LAYER
  5
6C
100
AcDbSymbolTableRecord
100
AcDbLayerTableRecord
  2
bras_b_bas_droit
 70
0
 62
7
420
0
  6
Continuous
370
25
390
F
  0
LAYER
  5
6D
100
AcDbSymbolTableRecord
100
AcDbLayerTableRecord
  2
socles_rep\U+00e8res
 70
0
 62
7
420
0
  6
Continuous
370
25
390
F
  0
LAYER
  5
6E
100
AcDbSymbolTableRecord
100
AcDbLayerTableRecord
  2
bras_b_haut_gauche
 70
0
 62
7
420
0
  6
Continuous
370
25
390
F
  0
LAYER
  5
6F
100
AcDbSymbolTableRecord
100
AcDbLayerTableRecord
  2
socle_a
 70
0
 62
7
420
0
  6
Continuous
370
25
390
F
  0
LAYER
  5
70
100
AcDbSymbolTableRecord
100
AcDbLayerTableRecord
  2
socle_b
 70
0
 62
7
420
0
  6
Continuous
370
25
390
F
  0
LAYER
  5
71
100
AcDbSymbolTableRecord
100
AcDbLayerTableRecord
  2
bras_percages
 70
0
 62
7
420
0
  6
Continuous
370
25
390
F
  0
LAYER
  5
72
100
AcDbSymbolTableRecord
100
AcDbLayerTableRecord
  2
support_led_a_haut_gauche
 70
0
 62
7
420
0
  6
Continuous
370
25
390
F
  0
LAYER
  5
73
100
AcDbSymbolTableRecord
100
AcDbLayerTableRecord
  2
bras_b_haut_droit
 70
0
 62
7
420
0
  6
Continuous
370
25
390
F
  0
ENDTAB
  0
TABLE
  2
STYLE
  5
3
100
AcDbSymbolTable
 70
1
  0
STYLE
  5
74
100
AcDbSymbolTableRecord
100
AcDbTextStyleTableRecord
  2
Standard
 70
0
 40
0.0
 41
1.0
 50
0.0
 71
0
 42
2.5
  3

  4

1001
ACAD
1000
txt
1071
0
  0
ENDTAB
  0
TABLE
  2
VIEW
  5
6
100
AcDbSymbolTable
 70
0
  0
ENDTAB
  0
TABLE
  2
UCS
  5
7
100
AcDbSymbolTable
 70
0
  0
ENDTAB
  0
TABLE
  2
APPID
  5
9
100
AcDbSymbolTable
 70
1
  0
APPID
  5
12
100
AcDbSymbolTableRecord
100
AcDbRegAppTableRecord
  2
ACAD
 70
0
  0
APPID
  5
75
100
AcDbSymbolTableRecord
100
AcDbRegAppTableRecord
  2
QCAD
 70
0
  0
ENDTAB
  0
TABLE
  2
DIMSTYLE
  5
A
100
AcDbSymbolTable
 70
1
100
AcDbDimStyleTable
 71
0
  0
DIMSTYLE
105
27
100
AcDbSymbolTableRecord
100
AcDbDimStyleTableRecord
  2
Standard
 41
2.5
 42
0.625
 43
3.75
 44
1.25
 70
0
 73
0
 74
0
 77
1
 78
8
140
2.5
141
2.5
143
0.03937007874016
147
0.625
171
3
172
1
271
2
272
2
274
3
278
44
283
0
284
8
340
74
  0
ENDTAB
  0
TABLE
  2
BLOCK_RECORD
  5
1
100
AcDbSymbolTable
 70
1
  0
BLOCK_RECORD
  5
1F
100
AcDbSymbolTableRecord
100
AcDbBlockTableRecord
  2
*Model_Space
340
22
  0
BLOCK_RECORD
  5
1B
100
AcDbSymbolTableRecord
100
AcDbBlockTableRecord
  2
*Paper_Space
340
1E
  0
BLOCK_RECORD
  5
23
100
AcDbSymbolTableRecord
100
AcDbBlockTableRecord
  2
*Paper_Space0
340
26
  0
ENDTAB
  0
ENDSEC
  0
SECTION
  2
BLOCKS
  0
BLOCK
  5
20
100
AcDbEntity
  8
0
100
AcDbBlockBegin
  2
*Model_Space
 70
0
 10
0.0
 20
0.0
 30
0.0
  3
*Model_Space
  1

  0
ENDBLK
  5
21
100
AcDbEntity
  8
0
100
AcDbBlockEnd
  0
BLOCK
  5
1C
100
AcDbEntity
 67
1
  8
0
100
AcDbBlockBegin
  2
*Paper_Space
 70
0
 10
0.0
 20
0.0
 30
0.0
  3
*Paper_Space
  1

  0
ENDBLK
  5
1D
100
AcDbEntity
 67
1
  8
0
100
AcDbBlockEnd
  0
BLOCK
  5
24
100
AcDbEntity
  8
0
100
AcDbBlockBegin
  2
*Paper_Space0
 70
0
 10
0.0
 20
0.0
 30
0.0
  3
*Paper_Space0
  1

  0
ENDBLK
  5
25
100
AcDbEntity
  8
0
100
AcDbBlockEnd
  0
ENDSEC
  0
SECTION
  2
ENTITIES
  0
LINE
  5
76
100
AcDbEntity
100
AcDbLine
  8
plan de travail
 62
256
370
-1
 48
1.0
  6
BYLAYER
 10
190.0
 20
-10.0
 30
0.0
 11
190.0
 21
290.0
 31
0.0
  0
LINE
  5
77
100
AcDbEntity
100
AcDbLine
  8
plan de travail
 62
256
370
-1
 48
1.0
  6
BYLAYER
 10
190.0
 20
290.0
 30
0.0
 11
-10.0
 21
290.0
 31
0.0
  0
LINE
  5
78
100
AcDbEntity
100
AcDbLine
  8
plan de travail
 62
256
370
-1
 48
1.0
  6
BYLAYER
 10
-10.0
 20
290.0
 30
0.0
 11
-10.0
 21
-10.0
 31
0.0
  0
LINE
  5
79
100
AcDbEntity
100
AcDbLine
  8
bras_b_haut_gauche
 62
256
370
-1
 48
1.0
  6
BYLAYER
 10
85.9999999999998863
 20
261.0
 30
0.0
 11
57.192667659560442
 21
261.0
 31
0.0
  0
LINE
  5
7A
100
AcDbEntity
100
AcDbLine
  8
bras_b_haut_droit
 62
256
370
-1
 48
1.0
  6
BYLAYER
 10
94.0000000000001279
 20
261.0
 30
0.0
 11
122.8073323404396291
 21
261.0
 31
0.0
  0
LINE
  5
7B
100
AcDbEntity
100
AcDbLine
  8
bras_a_haut_gauche
 62
256
370
-1
 48
1.0
  6
BYLAYER
 10
85.9999999999999005
 20
211.9999999999999432
 30
0.0
 11
57.1926676595604562
 21
212.0
 31
0.0
  0
LINE
  5
7C
100
AcDbEntity
100
AcDbLine
  8
bras_a_haut_droit
 62
256
370
-1
 48
1.0
  6
BYLAYER
 10
94.0000000000001421
 20
211.9999999999999432
 30
0.0
 11
122.8073323404396433
 21
211.9999999999999432
 31
0.0
  0
LINE
  5
7D
100
AcDbEntity
100
AcDbLine
  8
bras_b_haut_gauche
 62
256
370
-1
 48
1.0
  6
BYLAYER
 10
85.9999999999997868
 20
248.9999999999999716
 30
0.0
 11
42.8916245484297818
 21
248.9999999999999432
 31
0.0
  0
LINE
  5
7E
100
AcDbEntity
100
AcDbLine
  8
bras_b_haut_droit
 62
256
370
-1
 48
1.0
  6
BYLAYER
 10
94.0000000000002132
 20
248.9999999999999716
 30
0.0
 11
137.1083754515701685
 21
248.9999999999999716
 31
0.0
  0
LINE
  5
7F
100
AcDbEntity
100
AcDbLine
  8
bras_a_haut_gauche
 62
256
370
-1
 48
1.0
  6
BYLAYER
 10
85.999999999999801
 20
199.9999999999999432
 30
0.0
 11
42.891624548429796
 21
199.9999999999999147
 31
0.0
  0
LINE
  5
80
100
AcDbEntity
100
AcDbLine
  8
bras_a_haut_droit
 62
256
370
-1
 48
1.0
  6
BYLAYER
 10
94.0000000000002274
 20
199.9999999999999432
 30
0.0
 11
137.1083754515701685
 21
199.9999999999999432
 31
0.0
  0
LINE
  5
81
100
AcDbEntity
100
AcDbLine
  8
bras_b_milieu_gauche
 62
256
370
-1
 48
1.0
  6
BYLAYER
 10
85.9999999999997016
 20
244.9999999999999716
 30
0.0
 11
19.463244730621625
 21
245.0000000000000853
 31
0.0
  0
LINE
  5
82
100
AcDbEntity
100
AcDbLine
  8
bras_b_milieu_droit
 62
256
370
-1
 48
1.0
  6
BYLAYER
 10
94.00000000000027
 20
244.9999999999999716
 30
0.0
 11
160.5367552693784319
 21
244.9999999999999716
 31
0.0
  0
LINE
  5
83
100
AcDbEntity
100
AcDbLine
  8
bras_a_milieu_gauche
 62
256
370
-1
 48
1.0
  6
BYLAYER
 10
85.9999999999997158
 20
195.9999999999999432
 30
0.0
 11
19.4632447306216392
 21
196.0000000000000568
 31
0.0
  0
LINE
  5
84
100
AcDbEntity
100
AcDbLine
  8
bras_a_milieu_droit
 62
256
370
-1
 48
1.0
  6
BYLAYER
 10
94.0000000000002842
 20
195.9999999999999432
 30
0.0
 11
160.5367552693784319
 21
195.9999999999999432
 31
0.0
  0
LINE
  5
85
100
AcDbEntity
100
AcDbLine
  8
bras_b_milieu_gauche
 62
256
370
-1
 48
1.0
  6
BYLAYER
 10
85.9999999999996447
 20
232.9999999999999716
 30
0.0
 11
17.34732096211998
 21
233.0
 31
0.0
  0
LINE
  5
86
100
AcDbEntity
100
AcDbLine
  8
bras_b_milieu_droit
 62
256
370
-1
 48
1.0
  6
BYLAYER
 10
94.0000000000003553
 20
232.9999999999999716
 30
0.0
 11
162.6526790378800342
 21
232.9999999999999716
 31
0.0
  0
LINE
  5
87
100
AcDbEntity
100
AcDbLine
  8
bras_a_milieu_gauche
 62
256
370
-1
 48
1.0
  6
BYLAYER
 10
85.9999999999996589
 20
183.9999999999999432
 30
0.0
 11
17.3473209621199942
 21
183.9999999999999716
 31
0.0
  0
LINE
  5
88
100
AcDbEntity
100
AcDbLine
  8
bras_a_milieu_droit
 62
256
370
-1
 48
1.0
  6
BYLAYER
 10
94.0000000000003695
 20
183.9999999999999432
 30
0.0
 11
162.6526790378800342
 21
183.9999999999999432
 31
0.0
  0
LINE
  5
89
100
AcDbEntity
100
AcDbLine
  8
bras_b_bas_gauche
 62
256
370
-1
 48
1.0
  6
BYLAYER
 10
85.9999999999997584
 20
228.9999999999999716
 30
0.0
 11
25.9285485348016351
 21
229.0000000000000284
 31
0.0
  0
LINE
  5
8A
100
AcDbEntity
100
AcDbLine
  8
bras_b_bas_droit
 62
256
370
-1
 48
1.0
  6
BYLAYER
 10
94.0000000000002132
 20
228.9999999999999716
 30
0.0
 11
154.0714514651983791
 21
228.9999999999999716
 31
0.0
  0
LINE
  5
8B
100
AcDbEntity
100
AcDbLine
  8
bras_a_bas_gauche
 62
256
370
-1
 48
1.0
  6
BYLAYER
 10
85.9999999999997726
 20
179.9999999999999432
 30
0.0
 11
25.9285485348016493
 21
180.0
 31
0.0
  0
LINE
  5
8C
100
AcDbEntity
100
AcDbLine
  8
bras_a_bas_droit
 62
256
370
-1
 48
1.0
  6
BYLAYER
 10
94.0000000000002274
 20
179.9999999999999432
 30
0.0
 11
154.0714514651983791
 21
179.9999999999999432
 31
0.0
  0
LINE
  5
8D
100
AcDbEntity
100
AcDbLine
  8
bras_b_bas_gauche
 62
256
370
-1
 48
1.0
  6
BYLAYER
 10
85.9999999999999716
 20
216.9999999999999716
 30
0.0
 11
32.8567517650771492
 21
217.0
 31
0.0
  0
LINE
  5
8E
100
AcDbEntity
100
AcDbLine
  8
bras_b_bas_droit
 62
256
370
-1
 48
1.0
  6
BYLAYER
 10
94.0000000000000142
 20
216.9999999999999716
 30
0.0
 11
147.1432482349228508
 21
216.9999999999999716
 31
0.0
  0
LINE
  5
8F
100
AcDbEntity
100
AcDbLine
  8
bras_a_bas_gauche
 62
256
370
-1
 48
1.0
  6
BYLAYER
 10
85.9999999999999858
 20
167.9999999999999432
 30
0.0
 11
32.8567517650771634
 21
167.9999999999999432
 31
0.0
  0
LINE
  5
90
100
AcDbEntity
100
AcDbLine
  8
bras_a_bas_droit
 62
256
370
-1
 48
1.0
  6
BYLAYER
 10
94.0000000000000284
 20
167.9999999999999432
 30
0.0
 11
147.1432482349228508
 21
167.9999999999999432
 31
0.0
  0
LINE
  5
91
100
AcDbEntity
100
AcDbLine
  8
bras_b_milieu_gauche
 62
256
370
-1
 48
1.0
  6
BYLAYER
 10
17.34732096211998
 20
233.0
 30
0.0
 11
19.463244730621625
 21
245.0000000000000853
 31
0.0
  0
LINE
  5
92
100
AcDbEntity
100
AcDbLine
  8
bras_b_milieu_droit
 62
256
370
-1
 48
1.0
  6
BYLAYER
 10
162.6526790378800342
 20
232.9999999999999716
 30
0.0
 11
160.5367552693784319
 21
244.9999999999999716
 31
0.0
  0
LINE
  5
93
100
AcDbEntity
100
AcDbLine
  8
bras_a_milieu_gauche
 62
256
370
-1
 48
1.0
  6
BYLAYER
 10
17.3473209621199942
 20
183.9999999999999716
 30
0.0
 11
19.4632447306216392
 21
196.0000000000000568
 31
0.0
  0
LINE
  5
94
100
AcDbEntity
100
AcDbLine
  8
bras_a_milieu_droit
 62
256
370
-1
 48
1.0
  6
BYLAYER
 10
162.6526790378800342
 20
183.9999999999999432
 30
0.0
 11
160.5367552693784319
 21
195.9999999999999432
 31
0.0
  0
LINE
  5
95
100
AcDbEntity
100
AcDbLine
  8
bras_b_bas_droit
 62
256
370
-1
 48
1.0
  6
BYLAYER
 10
147.1432482349228508
 20
216.9999999999999716
 30
0.0
 11
154.0714514651983222
 21
228.9999999999999716
 31
0.0
  0
LINE
  5
96
100
AcDbEntity
100
AcDbLine
  8
bras_b_bas_gauche
 62
256
370
-1
 48
1.0
  6
BYLAYER
 10
32.8567517650771492
 20
217.0
 30
0.0
 11
25.9285485348016635
 21
229.0
 31
0.0
  0
LINE
  5
97
100
AcDbEntity
100
AcDbLine
  8
bras_a_bas_gauche
 62
256
370
-1
 48
1.0
  6
BYLAYER
 10
32.8567517650771634
 20
167.9999999999999716
 30
0.0
 11
25.9285485348016778
 21
179.9999999999999716
 31
0.0
  0
LINE
  5
98
100
AcDbEntity
100
AcDbLine
  8
bras_a_bas_droit
 62
256
370
-1
 48
1.0
  6
BYLAYER
 10
147.1432482349228508
 20
167.9999999999999432
 30
0.0
 11
154.0714514651983507
 21
179.9999999999999432
 31
0.0
  0
LINE
  5
99
100
AcDbEntity
100
AcDbLine
  8
bras_b_haut_droit
 62
256
370
-1
 48
1.0
  6
BYLAYER
 10
137.1083754515701685
 20
248.9999999999999716
 30
0.0
 11
122.8073323404396291
 21
261.0
 31
0.0
  0
LINE
  5
9A
100
AcDbEntity
100
AcDbLine
  8
bras_b_haut_gauche
 62
256
370
-1
 48
1.0
  6
BYLAYER
 10
42.8916245484297818
 20
248.9999999999999432
 30
0.0
 11
57.192667659560442
 21
261.0
 31
0.0
  0
LINE
  5
9B
100
AcDbEntity
100
AcDbLine
  8
bras_a_haut_gauche
 62
256
370
-1
 48
1.0
  6
BYLAYER
 10
42.891624548429796
 20
199.9999999999999147
 30
0.0
 11
57.1926676595604562
 21
212.0
 31
0.0
  0
LINE
  5
9C
100
AcDbEntity
100
AcDbLine
  8
bras_a_haut_droit
 62
256
370
-1
 48
1.0
  6
BYLAYER
 10
137.1083754515701685
 20
199.9999999999999432
 30
0.0
 11
122.8073323404396433
 21
211.9999999999999432
 31
0.0
  0
LINE
  5
9D
100
AcDbEntity
100
AcDbLine
  8
socle_b
 62
256
370
-1
 48
1.0
  6
BYLAYER
 10
180.0
 20
136.3591109885054777
 30
0.0
 11
180.0
 21
148.3591109885054777
 31
0.0
  0
LINE
  5
9E
100
AcDbEntity
100
AcDbLine
  8
socle_a
 62
256
370
-1
 48
1.0
  6
BYLAYER
 10
88.0
 20
136.3591109885054777
 30
0.0
 11
88.0
 21
148.3591109885054777
 31
0.0
  0
LINE
  5
9F
100
AcDbEntity
100
AcDbLine
  8
socle_b
 62
256
370
-1
 48
1.0
  6
BYLAYER
 10
180.0
 20
81.5624564341910911
 30
0.0
 11
180.0
 21
131.3591109885054777
 31
0.0
  0
LINE
  5
A0
100
AcDbEntity
100
AcDbLine
  8
socle_a
 62
256
370
-1
 48
1.0
  6
BYLAYER
 10
88.0
 20
81.5624564341910911
 30
0.0
 11
88.0
 21
131.3591109885054777
 31
0.0
  0
LINE
  5
A1
100
AcDbEntity
100
AcDbLine
  8
socle_b
 62
256
370
-1
 48
1.0
  6
BYLAYER
 10
180.0
 20
19.2500000000000426
 30
0.0
 11
180.0
 21
76.5624564341910911
 31
0.0
  0
LINE
  5
A2
100
AcDbEntity
100
AcDbLine
  8
socle_a
 62
256
370
-1
 48
1.0
  6
BYLAYER
 10
88.0
 20
19.2500000000000426
 30
0.0
 11
88.0
 21
76.5624564341910911
 31
0.0
  0
LINE
  5
A3
100
AcDbEntity
100
AcDbLine
  8
socle_b
 62
256
370
-1
 48
1.0
  6
BYLAYER
 10
180.0
 20
0.0
 30
0.0
 11
180.0
 21
14.2500000000000426
 31
0.0
  0
LINE
  5
A4
100
AcDbEntity
100
AcDbLine
  8
socle_a
 62
256
370
-1
 48
1.0
  6
BYLAYER
 10
88.0
 20
0.0
 30
0.0
 11
88.0
 21
14.2500000000000426
 31
0.0
  0
LINE
  5
A5
100
AcDbEntity
100
AcDbLine
  8
socle_b
 62
256
370
-1
 48
1.0
  6
BYLAYER
 10
119.0267905604434873
 20
164.0
 30
0.0
 11
152.9732094395565412
 21
164.0
 31
0.0
  0
LINE
  5
A6
100
AcDbEntity
100
AcDbLine
  8
socle_a
 62
256
370
-1
 48
1.0
  6
BYLAYER
 10
49.0000000000000071
 20
164.0
 30
0.0
 11
60.9732094395565412
 21
164.0
 31
0.0
  0
LINE
  5
A7
100
AcDbEntity
100
AcDbLine
  8
socle_a
 62
256
370
-1
 48
1.0
  6
BYLAYER
 10
27.0267905604434944
 20
164.0
 30
0.0
 11
39.0
 21
164.0
 31
0.0
  0
LINE
  5
A8
100
AcDbEntity
100
AcDbLine
  8
socle_b
 62
256
370
-1
 48
1.0
  6
BYLAYER
 10
92.0
 20
81.5624564341910911
 30
0.0
 11
92.0
 21
131.3591109885054777
 31
0.0
  0
LINE
  5
A9
100
AcDbEntity
100
AcDbLine
  8
socle_a
 62
256
370
-1
 48
1.0
  6
BYLAYER
 10
0.0
 20
81.5624564341910911
 30
0.0
 11
0.0
 21
131.3591109885054777
 31
0.0
  0
LINE
  5
AA
100
AcDbEntity
100
AcDbLine
  8
socle_b
 62
256
370
-1
 48
1.0
  6
BYLAYER
 10
92.0
 20
19.2500000000000355
 30
0.0
 11
92.0
 21
76.5624564341910911
 31
0.0
  0
LINE
  5
AB
100
AcDbEntity
100
AcDbLine
  8
socle_a
 62
256
370
-1
 48
1.0
  6
BYLAYER
 10
0.0
 20
19.2500000000000355
 30
0.0
 11
0.0
 21
76.5624564341910911
 31
0.0
  0
LINE
  5
AC
100
AcDbEntity
100
AcDbLine
  8
socle_b
 62
256
370
-1
 48
1.0
  6
BYLAYER
 10
92.0
 20
136.3591109885054777
 30
0.0
 11
92.0
 21
148.3591109885054493
 31
0.0
  0
LINE
  5
AD
100
AcDbEntity
100
AcDbLine
  8
socle_a
 62
256
370
-1
 48
1.0
  6
BYLAYER
 10
0.0
 20
136.3591109885054777
 30
0.0
 11
0.0
 21
148.3591109885054493
 31
0.0
  0
LINE
  5
AE
100
AcDbEntity
100
AcDbLine
  8
socle_b
 62
256
370
-1
 48
1.0
  6
BYLAYER
 10
92.0
 20
0.0
 30
0.0
 11
92.0
 21
14.2500000000000284
 31
0.0
  0
LINE
  5
AF
100
AcDbEntity
100
AcDbLine
  8
socle_a
 62
256
370
-1
 48
1.0
  6
BYLAYER
 10
0.0
 20
0.0
 30
0.0
 11
0.0
 21
14.2500000000000284
 31
0.0
  0
LINE
  5
B0
100
AcDbEntity
100
AcDbLine
  8
socle_b
 62
256
370
-1
 48
1.0
  6
BYLAYER
 10
155.0
 20
0.0
 30
0.0
 11
180.0
 21
0.0
 31
0.0
  0
LINE
  5
B1
100
AcDbEntity
100
AcDbLine
  8
socle_b
 62
256
370
-1
 48
1.0
  6
BYLAYER
 10
92.0
 20
0.0
 30
0.0
 11
117.0
 21
0.0
 31
0.0
  0
LINE
  5
B2
100
AcDbEntity
100
AcDbLine
  8
socle_a
 62
256
370
-1
 48
1.0
  6
BYLAYER
 10
63.0
 20
0.0
 30
0.0
 11
88.0
 21
0.0
 31
0.0
  0
LINE
  5
B3
100
AcDbEntity
100
AcDbLine
  8
socle_a
 62
256
370
-1
 48
1.0
  6
BYLAYER
 10
0.0
 20
0.0
 30
0.0
 11
24.9999999999999929
 21
0.0
 31
0.0
  0
LINE
  5
B4
100
AcDbEntity
100
AcDbLine
  8
socle_b
 62
256
370
-1
 48
1.0
  6
BYLAYER
 10
117.0
 20
0.0
 30
0.0
 11
117.0
 21
43.0000000000000071
 31
0.0
  0
LINE
  5
B5
100
AcDbEntity
100
AcDbLine
  8
socle_a
 62
256
370
-1
 48
1.0
  6
BYLAYER
 10
24.9999999999999964
 20
0.0
 30
0.0
 11
24.9999999999999964
 21
43.0000000000000071
 31
0.0
  0
LINE
  5
B6
100
AcDbEntity
100
AcDbLine
  8
socle_a
 62
256
370
-1
 48
1.0
  6
BYLAYER
 10
24.9999999999999964
 20
43.0000000000000071
 30
0.0
 11
63.0
 21
43.0000000000000071
 31
0.0
  0
LINE
  5
B7
100
AcDbEntity
100
AcDbLine
  8
socle_b
 62
256
370
-1
 48
1.0
  6
BYLAYER
 10
141.0
 20
43.0000000000000071
 30
0.0
 11
155.0
 21
43.0000000000000071
 31
0.0
  0
LINE
  5
B8
100
AcDbEntity
100
AcDbLine
  8
socle_b
 62
256
370
-1
 48
1.0
  6
BYLAYER
 10
117.0
 20
43.0000000000000071
 30
0.0
 11
131.0
 21
43.0000000000000071
 31
0.0
  0
LINE
  5
B9
100
AcDbEntity
100
AcDbLine
  8
socle_b
 62
256
370
-1
 48
1.0
  6
BYLAYER
 10
155.0
 20
43.0000000000000071
 30
0.0
 11
155.0
 21
0.0
 31
0.0
  0
LINE
  5
BA
100
AcDbEntity
100
AcDbLine
  8
socle_a
 62
256
370
-1
 48
1.0
  6
BYLAYER
 10
63.0
 20
43.0000000000000071
 30
0.0
 11
63.0
 21
0.0
 31
0.0
  0
CIRCLE
  5
BB
100
AcDbEntity
100
AcDbCircle
  8
bras_percages
 62
256
370
-1
 48
1.0
  6
BYLAYER
 10
101.9999999999999858
 20
222.9999999999999716
 30
0.0
 40
1.5000000000000018
  0
CIRCLE
  5
BC
100
AcDbEntity
100
AcDbCircle
  8
bras_percages
 62
256
370
-1
 48
1.0
  6
BYLAYER
 10
77.9999999999999858
 20
222.9999999999999716
 30
0.0
 40
1.5000000000000018
  0
CIRCLE
  5
BD
100
AcDbEntity
100
AcDbCircle
  8
bras_percages
 62
256
370
-1
 48
1.0
  6
BYLAYER
 10
78.0
 20
173.9999999999999432
 30
0.0
 40
1.5000000000000018
  0
CIRCLE
  5
BE
100
AcDbEntity
100
AcDbCircle
  8
socles_rep\U+00e8res
 62
256
370
-1
 48
1.0
  6
BYLAYER
 10
167.5
 20
25.2500000000000284
 30
0.0
 40
1.5000000000000018
  0
CIRCLE
  5
BF
100
AcDbEntity
100
AcDbCircle
  8
socles_rep\U+00e8res
 62
256
370
-1
 48
1.0
  6
BYLAYER
 10
75.5
 20
25.2500000000000284
 30
0.0
 40
1.5000000000000018
  0
CIRCLE
  5
C0
100
AcDbEntity
100
AcDbCircle
  8
bras_percages
 62
256
370
-1
 48
1.0
  6
BYLAYER
 10
102.0
 20
173.9999999999999432
 30
0.0
 40
1.5000000000000018
  0
CIRCLE
  5
C1
100
AcDbEntity
100
AcDbCircle
  8
socles_rep\U+00e8res
 62
256
370
-1
 48
1.0
  6
BYLAYER
 10
104.4999999999999432
 20
25.2500000000000284
 30
0.0
 40
1.5000000000000018
  0
CIRCLE
  5
C2
100
AcDbEntity
100
AcDbCircle
  8
socles_rep\U+00e8res
 62
256
370
-1
 48
1.0
  6
BYLAYER
 10
12.4999999999999396
 20
25.2500000000000284
 30
0.0
 40
1.5000000000000018
  0
CIRCLE
  5
C3
100
AcDbEntity
100
AcDbCircle
  8
bras_percages
 62
256
370
-1
 48
1.0
  6
BYLAYER
 10
101.9999999999999858
 20
238.9999999999999716
 30
0.0
 40
1.5
  0
CIRCLE
  5
C4
100
AcDbEntity
100
AcDbCircle
  8
bras_percages
 62
256
370
-1
 48
1.0
  6
BYLAYER
 10
78.0000000000000426
 20
238.9999999999999716
 30
0.0
 40
1.5
  0
CIRCLE
  5
C5
100
AcDbEntity
100
AcDbCircle
  8
bras_percages
 62
256
370
-1
 48
1.0
  6
BYLAYER
 10
78.0000000000000568
 20
189.9999999999999432
 30
0.0
 40
1.5
  0
CIRCLE
  5
C6
100
AcDbEntity
100
AcDbCircle
  8
socles_rep\U+00e8res
 62
256
370
-1
 48
1.0
  6
BYLAYER
 10
167.5
 20
87.5624564341910911
 30
0.0
 40
1.5
  0
CIRCLE
  5
C7
100
AcDbEntity
100
AcDbCircle
  8
socles_rep\U+00e8res
 62
256
370
-1
 48
1.0
  6
BYLAYER
 10
75.5
 20
87.5624564341910911
 30
0.0
 40
1.5
  0
CIRCLE
  5
C8
100
AcDbEntity
100
AcDbCircle
  8
bras_percages
 62
256
370
-1
 48
1.0
  6
BYLAYER
 10
102.0
 20
189.9999999999999432
 30
0.0
 40
1.5
  0
CIRCLE
  5
C9
100
AcDbEntity
100
AcDbCircle
  8
socles_rep\U+00e8res
 62
256
370
-1
 48
1.0
  6
BYLAYER
 10
104.5000000000000142
 20
87.5624564341910769
 30
0.0
 40
1.5
  0
CIRCLE
  5
CA
100
AcDbEntity
100
AcDbCircle
  8
socles_rep\U+00e8res
 62
256
370
-1
 48
1.0
  6
BYLAYER
 10
12.5000000000000178
 20
87.5624564341910769
 30
0.0
 40
1.5
  0
CIRCLE
  5
CB
100
AcDbEntity
100
AcDbCircle
  8
socles_rep\U+00e8res
 62
256
370
-1
 48
1.0
  6
BYLAYER
 10
104.5
 20
142.3591109885054777
 30
0.0
 40
1.4999999999999982
  0
CIRCLE
  5
CC
100
AcDbEntity
100
AcDbCircle
  8
socles_rep\U+00e8res
 62
256
370
-1
 48
1.0
  6
BYLAYER
 10
12.4999999999999964
 20
142.3591109885054777
 30
0.0
 40
1.4999999999999982
  0
CIRCLE
  5
CD
100
AcDbEntity
100
AcDbCircle
  8
bras_percages
 62
256
370
-1
 48
1.0
  6
BYLAYER
 10
101.9999999999999858
 20
254.9999999999999716
 30
0.0
 40
1.4999999999999982
  0
CIRCLE
  5
CE
100
AcDbEntity
100
AcDbCircle
  8
bras_percages
 62
256
370
-1
 48
1.0
  6
BYLAYER
 10
78.0000000000000568
 20
254.9999999999999716
 30
0.0
 40
1.4999999999999982
  0
CIRCLE
  5
CF
100
AcDbEntity
100
AcDbCircle
  8
bras_percages
 62
256
370
-1
 48
1.0
  6
BYLAYER
 10
78.0000000000000711
 20
205.9999999999999432
 30
0.0
 40
1.4999999999999982
  0
CIRCLE
  5
D0
100
AcDbEntity
100
AcDbCircle
  8
socles_rep\U+00e8res
 62
256
370
-1
 48
1.0
  6
BYLAYER
 10
167.5
 20
142.3591109885054493
 30
0.0
 40
1.4999999999999982
  0
CIRCLE
  5
D1
100
AcDbEntity
100
AcDbCircle
  8
socles_rep\U+00e8res
 62
256
370
-1
 48
1.0
  6
BYLAYER
 10
75.5
 20
142.3591109885054493
 30
0.0
 40
1.4999999999999982
  0
CIRCLE
  5
D2
100
AcDbEntity
100
AcDbCircle
  8
bras_percages
 62
256
370
-1
 48
1.0
  6
BYLAYER
 10
102.0
 20
205.9999999999999432
 30
0.0
 40
1.4999999999999982
  0
ARC
  5
D3
100
AcDbEntity
  8
bras_b_haut_droit
 62
256
370
-1
 48
1.0
  6
BYLAYER
100
AcDbCircle
 10
101.9999999999999858
 20
254.9999999999999716
 30
0.0
 40
10.0
100
AcDbArc
 50
143.1301023541552695
 51
216.8698976458441052
  0
ARC
  5
D4
100
AcDbEntity
  8
bras_b_haut_gauche
 62
256
370
-1
 48
1.0
  6
BYLAYER
100
AcDbCircle
 10
78.0000000000000568
 20
254.9999999999999716
 30
0.0
 40
10.0
100
AcDbArc
 50
323.1301023541558948
 51
36.8698976458447163
  0
ARC
  5
D5
100
AcDbEntity
  8
bras_a_haut_gauche
 62
256
370
-1
 48
1.0
  6
BYLAYER
100
AcDbCircle
 10
78.0000000000000711
 20
205.9999999999999432
 30
0.0
 40
10.0
100
AcDbArc
 50
323.1301023541558948
 51
36.8698976458447163
  0
ARC
  5
D6
100
AcDbEntity
  8
bras_a_haut_droit
 62
256
370
-1
 48
1.0
  6
BYLAYER
100
AcDbCircle
 10
102.0
 20
205.9999999999999432
 30
0.0
 40
10.0
100
AcDbArc
 50
143.1301023541552695
 51
216.8698976458441052
  0
ARC
  5
D7
100
AcDbEntity
  8
bras_b_milieu_droit
 62
256
370
-1
 48
1.0
  6
BYLAYER
100
AcDbCircle
 10
101.9999999999999858
 20
238.9999999999999716
 30
0.0
 40
10.0
100
AcDbArc
 50
143.1301023541552695
 51
216.8698976458441052
  0
ARC
  5
D8
100
AcDbEntity
  8
bras_b_milieu_gauche
 62
256
370
-1
 48
1.0
  6
BYLAYER
100
AcDbCircle
 10
78.0000000000000426
 20
238.9999999999999716
 30
0.0
 40
10.0
100
AcDbArc
 50
323.1301023541558948
 51
36.8698976458447163
  0
ARC
  5
D9
100
AcDbEntity
  8
bras_a_milieu_gauche
 62
256
370
-1
 48
1.0
  6
BYLAYER
100
AcDbCircle
 10
78.0000000000000568
 20
189.9999999999999432
 30
0.0
 40
10.0
100
AcDbArc
 50
323.1301023541558948
 51
36.8698976458447163
  0
ARC
  5
DA
100
AcDbEntity
  8
bras_a_milieu_droit
 62
256
370
-1
 48
1.0
  6
BYLAYER
100
AcDbCircle
 10
102.0
 20
189.9999999999999432
 30
0.0
 40
10.0
100
AcDbArc
 50
143.1301023541552695
 51
216.8698976458441052
  0
ARC
  5
DB
100
AcDbEntity
  8
bras_b_bas_droit
 62
256
370
-1
 48
1.0
  6
BYLAYER
100
AcDbCircle
 10
101.9999999999999858
 20
222.9999999999999716
 30
0.0
 40
10.0
100
AcDbArc
 50
143.1301023541552695
 51
216.8698976458441052
  0
ARC
  5
DC
100
AcDbEntity
  8
bras_b_bas_gauche
 62
256
370
-1
 48
1.0
  6
BYLAYER
100
AcDbCircle
 10
77.9999999999999858
 20
222.9999999999999716
 30
0.0
 40
10.0
100
AcDbArc
 50
323.1301023541558948
 51
36.8698976458447163
  0
ARC
  5
DD
100
AcDbEntity
  8
bras_a_bas_gauche
 62
256
370
-1
 48
1.0
  6
BYLAYER
100
AcDbCircle
 10
78.0
 20
173.9999999999999432
 30
0.0
 40
10.0
100
AcDbArc
 50
323.1301023541558948
 51
36.8698976458447163
  0
ARC
  5
DE
100
AcDbEntity
  8
bras_a_bas_droit
 62
256
370
-1
 48
1.0
  6
BYLAYER
100
AcDbCircle
 10
102.0
 20
173.9999999999999432
 30
0.0
 40
10.0
100
AcDbArc
 50
143.1301023541552695
 51
216.8698976458441052
  0
LINE
  5
DF
100
AcDbEntity
100
AcDbLine
  8
socle_b
 62
256
370
-1
 48
1.0
  6
BYLAYER
 10
174.0
 20
131.3591109885054777
 30
0.0
 11
180.0
 21
131.3591109885054777
 31
0.0
  0
LINE
  5
E0
100
AcDbEntity
100
AcDbLine
  8
socle_a
 62
256
370
-1
 48
1.0
  6
BYLAYER
 10
82.0
 20
131.3591109885054777
 30
0.0
 11
88.0
 21
131.3591109885054777
 31
0.0
  0
LINE
  5
E1
100
AcDbEntity
100
AcDbLine
  8
socle_b
 62
256
370
-1
 48
1.0
  6
BYLAYER
 10
180.0
 20
136.3591109885054777
 30
0.0
 11
174.0
 21
136.3591109885054777
 31
0.0
  0
LINE
  5
E2
100
AcDbEntity
100
AcDbLine
  8
socle_a
 62
256
370
-1
 48
1.0
  6
BYLAYER
 10
88.0
 20
136.3591109885054777
 30
0.0
 11
82.0
 21
136.3591109885054777
 31
0.0
  0
LINE
  5
E3
100
AcDbEntity
100
AcDbLine
  8
socle_b
 62
256
370
-1
 48
1.0
  6
BYLAYER
 10
174.0
 20
136.3591109885054777
 30
0.0
 11
174.0
 21
131.3591109885054777
 31
0.0
  0
LINE
  5
E4
100
AcDbEntity
100
AcDbLine
  8
socle_a
 62
256
370
-1
 48
1.0
  6
BYLAYER
 10
82.0
 20
136.3591109885054777
 30
0.0
 11
82.0
 21
131.3591109885054777
 31
0.0
  0
LINE
  5
E5
100
AcDbEntity
100
AcDbLine
  8
socle_b
 62
256
370
-1
 48
1.0
  6
BYLAYER
 10
174.0
 20
76.5624564341910911
 30
0.0
 11
180.0
 21
76.5624564341910911
 31
0.0
  0
LINE
  5
E6
100
AcDbEntity
100
AcDbLine
  8
socle_a
 62
256
370
-1
 48
1.0
  6
BYLAYER
 10
82.0
 20
76.5624564341910911
 30
0.0
 11
88.0
 21
76.5624564341910911
 31
0.0
  0
LINE
  5
E7
100
AcDbEntity
100
AcDbLine
  8
socle_b
 62
256
370
-1
 48
1.0
  6
BYLAYER
 10
180.0
 20
81.5624564341910911
 30
0.0
 11
174.0
 21
81.5624564341910911
 31
0.0
  0
LINE
  5
E8
100
AcDbEntity
100
AcDbLine
  8
socle_a
 62
256
370
-1
 48
1.0
  6
BYLAYER
 10
88.0
 20
81.5624564341910911
 30
0.0
 11
82.0
 21
81.5624564341910911
 31
0.0
  0
LINE
  5
E9
100
AcDbEntity
100
AcDbLine
  8
socle_b
 62
256
370
-1
 48
1.0
  6
BYLAYER
 10
174.0
 20
81.5624564341910911
 30
0.0
 11
174.0
 21
76.5624564341910911
 31
0.0
  0
LINE
  5
EA
100
AcDbEntity
100
AcDbLine
  8
socle_a
 62
256
370
-1
 48
1.0
  6
BYLAYER
 10
82.0
 20
81.5624564341910911
 30
0.0
 11
82.0
 21
76.5624564341910911
 31
0.0
  0
LINE
  5
EB
100
AcDbEntity
100
AcDbLine
  8
socle_b
 62
256
370
-1
 48
1.0
  6
BYLAYER
 10
174.0
 20
14.2500000000000426
 30
0.0
 11
180.0
 21
14.2500000000000426
 31
0.0
  0
LINE
  5
EC
100
AcDbEntity
100
AcDbLine
  8
socle_a
 62
256
370
-1
 48
1.0
  6
BYLAYER
 10
82.0
 20
14.2500000000000426
 30
0.0
 11
88.0
 21
14.2500000000000426
 31
0.0
  0
LINE
  5
ED
100
AcDbEntity
100
AcDbLine
  8
socle_b
 62
256
370
-1
 48
1.0
  6
BYLAYER
 10
180.0
 20
19.2500000000000426
 30
0.0
 11
174.0
 21
19.2500000000000426
 31
0.0
  0
LINE
  5
EE
100
AcDbEntity
100
AcDbLine
  8
socle_a
 62
256
370
-1
 48
1.0
  6
BYLAYER
 10
88.0
 20
19.2500000000000426
 30
0.0
 11
82.0
 21
19.2500000000000426
 31
0.0
  0
LINE
  5
EF
100
AcDbEntity
100
AcDbLine
  8
socle_b
 62
256
370
-1
 48
1.0
  6
BYLAYER
 10
174.0
 20
19.2500000000000426
 30
0.0
 11
174.0
 21
14.2500000000000426
 31
0.0
  0
LINE
  5
F0
100
AcDbEntity
100
AcDbLine
  8
socle_a
 62
256
370
-1
 48
1.0
  6
BYLAYER
 10
82.0
 20
19.2500000000000426
 30
0.0
 11
82.0
 21
14.2500000000000426
 31
0.0
  0
LINE
  5
F1
100
AcDbEntity
100
AcDbLine
  8
socle_b
 62
256
370
-1
 48
1.0
  6
BYLAYER
 10
92.0
 20
131.3591109885054777
 30
0.0
 11
98.0
 21
131.3591109885054777
 31
0.0
  0
LINE
  5
F2
100
AcDbEntity
100
AcDbLine
  8
socle_a
 62
256
370
-1
 48
1.0
  6
BYLAYER
 10
0.0
 20
131.3591109885054777
 30
0.0
 11
6.0
 21
131.3591109885054777
 31
0.0
  0
LINE
  5
F3
100
AcDbEntity
100
AcDbLine
  8
socle_b
 62
256
370
-1
 48
1.0
  6
BYLAYER
 10
98.0
 20
131.3591109885054777
 30
0.0
 11
98.0
 21
136.3591109885054777
 31
0.0
  0
LINE
  5
F4
100
AcDbEntity
100
AcDbLine
  8
socle_a
 62
256
370
-1
 48
1.0
  6
BYLAYER
 10
6.0
 20
131.3591109885054777
 30
0.0
 11
6.0
 21
136.3591109885054777
 31
0.0
  0
LINE
  5
F5
100
AcDbEntity
100
AcDbLine
  8
socle_b
 62
256
370
-1
 48
1.0
  6
BYLAYER
 10
98.0
 20
136.3591109885054777
 30
0.0
 11
92.0
 21
136.3591109885054777
 31
0.0
  0
LINE
  5
F6
100
AcDbEntity
100
AcDbLine
  8
socle_a
 62
256
370
-1
 48
1.0
  6
BYLAYER
 10
6.0
 20
136.3591109885054777
 30
0.0
 11
0.0
 21
136.3591109885054777
 31
0.0
  0
LINE
  5
F7
100
AcDbEntity
100
AcDbLine
  8
socle_b
 62
256
370
-1
 48
1.0
  6
BYLAYER
 10
92.0
 20
76.5624564341910911
 30
0.0
 11
98.0
 21
76.5624564341910911
 31
0.0
  0
LINE
  5
F8
100
AcDbEntity
100
AcDbLine
  8
socle_a
 62
256
370
-1
 48
1.0
  6
BYLAYER
 10
0.0
 20
76.5624564341910911
 30
0.0
 11
6.0
 21
76.5624564341910911
 31
0.0
  0
LINE
  5
F9
100
AcDbEntity
100
AcDbLine
  8
socle_b
 62
256
370
-1
 48
1.0
  6
BYLAYER
 10
98.0
 20
76.5624564341910911
 30
0.0
 11
98.0
 21
81.5624564341910911
 31
0.0
  0
LINE
  5
FA
100
AcDbEntity
100
AcDbLine
  8
socle_a
 62
256
370
-1
 48
1.0
  6
BYLAYER
 10
6.0
 20
76.5624564341910911
 30
0.0
 11
6.0
 21
81.5624564341910911
 31
0.0
  0
LINE
  5
FB
100
AcDbEntity
100
AcDbLine
  8
socle_b
 62
256
370
-1
 48
1.0
  6
BYLAYER
 10
98.0
 20
81.5624564341910911
 30
0.0
 11
92.0
 21
81.5624564341910911
 31
0.0
  0
LINE
  5
FC
100
AcDbEntity
100
AcDbLine
  8
socle_a
 62
256
370
-1
 48
1.0
  6
BYLAYER
 10
6.0
 20
81.5624564341910911
 30
0.0
 11
0.0
 21
81.5624564341910911
 31
0.0
  0
LINE
  5
FD
100
AcDbEntity
100
AcDbLine
  8
socle_b
 62
256
370
-1
 48
1.0
  6
BYLAYER
 10
92.0
 20
14.2500000000000284
 30
0.0
 11
98.0
 21
14.2500000000000284
 31
0.0
  0
LINE
  5
FE
100
AcDbEntity
100
AcDbLine
  8
socle_a
 62
256
370
-1
 48
1.0
  6
BYLAYER
 10
0.0
 20
14.2500000000000284
 30
0.0
 11
6.0
 21
14.2500000000000284
 31
0.0
  0
LINE
  5
FF
100
AcDbEntity
100
AcDbLine
  8
socle_b
 62
256
370
-1
 48
1.0
  6
BYLAYER
 10
98.0
 20
14.2500000000000284
 30
0.0
 11
98.0
 21
19.2500000000000355
 31
0.0
  0
LINE
  5
100
100
AcDbEntity
100
AcDbLine
  8
socle_a
 62
256
370
-1
 48
1.0
  6
BYLAYER
 10
6.0
 20
14.2500000000000284
 30
0.0
 11
6.0
 21
19.2500000000000355
 31
0.0
  0
LINE
  5
101
100
AcDbEntity
100
AcDbLine
  8
socle_b
 62
256
370
-1
 48
1.0
  6
BYLAYER
 10
98.0
 20
19.2500000000000355
 30
0.0
 11
92.0
 21
19.2500000000000355
 31
0.0
  0
LINE
  5
102
100
AcDbEntity
100
AcDbLine
  8
socle_a
 62
256
370
-1
 48
1.0
  6
BYLAYER
 10
6.0
 20
19.2500000000000355
 30
0.0
 11
0.0
 21
19.2500000000000355
 31
0.0
  0
LINE
  5
103
100
AcDbEntity
100
AcDbLine
  8
socle_b
 62
256
370
-1
 48
1.0
  6
BYLAYER
 10
131.0
 20
43.0000000000000142
 30
0.0
 11
131.0
 21
103.5000000000000284
 31
0.0
  0
LINE
  5
104
100
AcDbEntity
100
AcDbLine
  8
socle_a
 62
256
370
-1
 48
1.0
  6
BYLAYER
 10
39.0
 20
103.5000000000000284
 30
0.0
 11
39.0
 21
164.0
 31
0.0
  0
LINE
  5
105
100
AcDbEntity
100
AcDbLine
  8
socle_b
 62
256
370
-1
 48
1.0
  6
BYLAYER
 10
141.0
 20
43.0000000000000142
 30
0.0
 11
141.0
 21
103.5000000000000284
 31
0.0
  0
LINE
  5
106
100
AcDbEntity
100
AcDbLine
  8
socle_a
 62
256
370
-1
 48
1.0
  6
BYLAYER
 10
49.0000000000000071
 20
103.5000000000000284
 30
0.0
 11
49.0000000000000071
 21
164.0
 31
0.0
  0
LINE
  5
107
100
AcDbEntity
100
AcDbLine
  8
socle_b
 62
256
370
-1
 48
1.0
  6
BYLAYER
 10
131.0
 20
103.5
 30
0.0
 11
141.0
 21
103.5
 31
0.0
  0
LINE
  5
108
100
AcDbEntity
100
AcDbLine
  8
socle_a
 62
256
370
-1
 48
1.0
  6
BYLAYER
 10
39.0
 20
103.5
 30
0.0
 11
49.0
 21
103.5
 31
0.0
  0
ARC
  5
109
100
AcDbEntity
  8
socle_b
 62
256
370
-1
 48
1.0
  6
BYLAYER
100
AcDbCircle
 10
136.0
 20
103.5
 30
0.0
 40
62.8358165275112128
100
AcDbArc
 50
45.5539319445803841
 51
74.3285935780103557
  0
ARC
  5
10A
100
AcDbEntity
  8
socle_b
 62
256
370
-1
 48
1.0
  6
BYLAYER
100
AcDbCircle
 10
136.0
 20
103.5
 30
0.0
 40
62.8358165275112128
100
AcDbArc
 50
105.6714064219896727
 51
134.4460680554196585
  0
ARC
  5
10B
100
AcDbEntity
  8
socle_a
 62
256
370
-1
 48
1.0
  6
BYLAYER
100
AcDbCircle
 10
44.0
 20
103.5
 30
0.0
 40
62.8358165275112128
100
AcDbArc
 50
45.5539319445803841
 51
74.3285935780103557
  0
ARC
  5
10C
100
AcDbEntity
  8
socle_a
 62
256
370
-1
 48
1.0
  6
BYLAYER
100
AcDbCircle
 10
44.0
 20
103.5
 30
0.0
 40
62.8358165275112128
100
AcDbArc
 50
105.6714064219896727
 51
134.4460680554196585
  0
LINE
  5
10D
100
AcDbEntity
100
AcDbLine
  8
plan de travail
 62
256
370
-1
 48
1.0
  6
BYLAYER
 10
-10.0
 20
-10.0
 30
0.0
 11
190.0
 21
-10.0
 31
0.0
  0
LINE
  5
10E
100
AcDbEntity
100
AcDbLine
  8
support_led_b_haut_droit
 62
256
370
-1
 48
1.0
  6
BYLAYER
 10
149.0
 20
248.9528154045393933
 30
0.0
 11
148.301043111130582
 21
248.9528154045394217
 31
0.0
  0
LINE
  5
10F
100
AcDbEntity
100
AcDbLine
  8
support_led_b_haut_gauche
 62
256
370
-1
 48
1.0
  6
BYLAYER
 10
31.0000000000000284
 20
248.9528154045394501
 30
0.0
 11
31.6989568888694038
 21
248.9528154045394501
 31
0.0
  0
LINE
  5
110
100
AcDbEntity
100
AcDbLine
  8
support_led_a_haut_gauche
 62
256
370
-1
 48
1.0
  6
BYLAYER
 10
31.0000000000000426
 20
199.9528154045394217
 30
0.0
 11
31.698956888869418
 21
199.9528154045394217
 31
0.0
  0
LINE
  5
111
100
AcDbEntity
100
AcDbLine
  8
support_led_a_haut_droit
 62
256
370
-1
 48
1.0
  6
BYLAYER
 10
149.0
 20
199.9528154045393649
 30
0.0
 11
148.301043111130582
 21
199.9528154045393933
 31
0.0
  0
LINE
  5
112
100
AcDbEntity
100
AcDbLine
  8
support_led_b_haut_droit
 62
256
370
-1
 48
1.0
  6
BYLAYER
 10
148.301043111130582
 20
248.9528154045394217
 30
0.0
 11
134.0000000000000568
 21
260.9528154045394217
 31
0.0
  0
LINE
  5
113
100
AcDbEntity
100
AcDbLine
  8
support_led_b_haut_gauche
 62
256
370
-1
 48
1.0
  6
BYLAYER
 10
31.6989568888694038
 20
248.9528154045394501
 30
0.0
 11
45.9999999999999645
 21
260.9528154045394785
 31
0.0
  0
LINE
  5
114
100
AcDbEntity
100
AcDbLine
  8
support_led_a_haut_gauche
 62
256
370
-1
 48
1.0
  6
BYLAYER
 10
31.698956888869418
 20
199.9528154045394217
 30
0.0
 11
45.9999999999999787
 21
211.9528154045394217
 31
0.0
  0
LINE
  5
115
100
AcDbEntity
100
AcDbLine
  8
support_led_a_haut_droit
 62
256
370
-1
 48
1.0
  6
BYLAYER
 10
148.301043111130582
 20
199.9528154045393933
 30
0.0
 11
134.0000000000000568
 21
211.9528154045393933
 31
0.0
  0
LINE
  5
116
100
AcDbEntity
100
AcDbLine
  8
support_led_b_haut_droit
 62
256
370
-1
 48
1.0
  6
BYLAYER
 10
134.0000000000000568
 20
260.9528154045394217
 30
0.0
 11
149.0
 21
260.9528154045393649
 31
0.0
  0
LINE
  5
117
100
AcDbEntity
100
AcDbLine
  8
support_led_b_haut_gauche
 62
256
370
-1
 48
1.0
  6
BYLAYER
 10
45.9999999999999645
 20
260.9528154045394785
 30
0.0
 11
31.0000000000000426
 21
260.9528154045394785
 31
0.0
  0
LINE
  5
118
100
AcDbEntity
100
AcDbLine
  8
support_led_a_haut_gauche
 62
256
370
-1
 48
1.0
  6
BYLAYER
 10
45.9999999999999787
 20
211.9528154045394217
 30
0.0
 11
31.0000000000000568
 21
211.9528154045394217
 31
0.0
  0
LINE
  5
119
100
AcDbEntity
100
AcDbLine
  8
support_led_a_haut_droit
 62
256
370
-1
 48
1.0
  6
BYLAYER
 10
134.0000000000000568
 20
211.9528154045393933
 30
0.0
 11
149.0
 21
211.9528154045393649
 31
0.0
  0
LINE
  5
11A
100
AcDbEntity
100
AcDbLine
  8
support_led_b_haut_droit
 62
256
370
-1
 48
1.0
  6
BYLAYER
 10
149.0
 20
260.9528154045393649
 30
0.0
 11
149.0
 21
248.9528154045394217
 31
0.0
  0
LINE
  5
11B
100
AcDbEntity
100
AcDbLine
  8
support_led_b_haut_gauche
 62
256
370
-1
 48
1.0
  6
BYLAYER
 10
31.0000000000000426
 20
260.9528154045394785
 30
0.0
 11
31.0
 21
248.9528154045394785
 31
0.0
  0
LINE
  5
11C
100
AcDbEntity
100
AcDbLine
  8
support_led_a_haut_gauche
 62
256
370
-1
 48
1.0
  6
BYLAYER
 10
31.0000000000000568
 20
211.9528154045394217
 30
0.0
 11
31.0000000000000142
 21
199.9528154045394217
 31
0.0
  0
LINE
  5
11D
100
AcDbEntity
100
AcDbLine
  8
support_led_a_haut_droit
 62
256
370
-1
 48
1.0
  6
BYLAYER
 10
149.0
 20
211.9528154045393649
 30
0.0
 11
149.0
 21
199.9528154045393649
 31
0.0
  0
LINE
  5
11E
100
AcDbEntity
100
AcDbLine
  8
support_led_b_milieu_droit
 62
256
370
-1
 48
1.0
  6
BYLAYER
 10
168.1159237685016024
 20
233.0000000000000284
 30
0.0
 11
166.0
 21
245.0000000000000284
 31
0.0
  0
LINE
  5
11F
100
AcDbEntity
100
AcDbLine
  8
support_led_b_milieu_gauche
 62
256
370
-1
 48
1.0
  6
BYLAYER
 10
11.884076231498355
 20
232.9999999999999716
 30
0.0
 11
14.0
 21
245.0000000000000284
 31
0.0
  0
LINE
  5
120
100
AcDbEntity
100
AcDbLine
  8
support_led_a_milieu_gauche
 62
256
370
-1
 48
1.0
  6
BYLAYER
 10
11.8840762314983692
 20
183.9999999999999432
 30
0.0
 11
14.0000000000000142
 21
196.0
 31
0.0
  0
LINE
  5
121
100
AcDbEntity
100
AcDbLine
  8
support_led_a_milieu_droit
 62
256
370
-1
 48
1.0
  6
BYLAYER
 10
168.1159237685016024
 20
184.0
 30
0.0
 11
166.0
 21
196.0
 31
0.0
  0
LINE
  5
122
100
AcDbEntity
100
AcDbLine
  8
support_led_b_milieu_droit
 62
256
370
-1
 48
1.0
  6
BYLAYER
 10
166.0
 20
245.0000000000000284
 30
0.0
 11
181.0
 21
245.0000000000000284
 31
0.0
  0
LINE
  5
123
100
AcDbEntity
100
AcDbLine
  8
support_led_b_milieu_gauche
 62
256
370
-1
 48
1.0
  6
BYLAYER
 10
14.0
 20
245.0000000000000284
 30
0.0
 11
-0.9999999999999858
 21
245.0000000000000853
 31
0.0
  0
LINE
  5
124
100
AcDbEntity
100
AcDbLine
  8
support_led_a_milieu_gauche
 62
256
370
-1
 48
1.0
  6
BYLAYER
 10
14.0000000000000142
 20
196.0
 30
0.0
 11
-0.9999999999999716
 21
196.0000000000000568
 31
0.0
  0
LINE
  5
125
100
AcDbEntity
100
AcDbLine
  8
support_led_a_milieu_droit
 62
256
370
-1
 48
1.0
  6
BYLAYER
 10
166.0
 20
196.0
 30
0.0
 11
181.0
 21
196.0
 31
0.0
  0
LINE
  5
126
100
AcDbEntity
100
AcDbLine
  8
support_led_b_milieu_droit
 62
256
370
-1
 48
1.0
  6
BYLAYER
 10
181.0
 20
245.0000000000000284
 30
0.0
 11
181.0
 21
233.0000000000000284
 31
0.0
  0
LINE
  5
127
100
AcDbEntity
100
AcDbLine
  8
support_led_b_milieu_gauche
 62
256
370
-1
 48
1.0
  6
BYLAYER
 10
-0.9999999999999858
 20
245.0000000000000853
 30
0.0
 11
-0.9999999999999574
 21
233.0000000000001705
 31
0.0
  0
LINE
  5
128
100
AcDbEntity
100
AcDbLine
  8
support_led_a_milieu_gauche
 62
256
370
-1
 48
1.0
  6
BYLAYER
 10
-0.9999999999999716
 20
196.0000000000000568
 30
0.0
 11
-0.9999999999999432
 21
184.0000000000001421
 31
0.0
  0
LINE
  5
129
100
AcDbEntity
100
AcDbLine
  8
support_led_a_milieu_droit
 62
256
370
-1
 48
1.0
  6
BYLAYER
 10
181.0
 20
196.0
 30
0.0
 11
181.0
 21
184.0
 31
0.0
  0
LINE
  5
12A
100
AcDbEntity
100
AcDbLine
  8
support_led_b_milieu_droit
 62
256
370
-1
 48
1.0
  6
BYLAYER
 10
181.0
 20
233.0000000000000284
 30
0.0
 11
168.1159237685016024
 21
233.0000000000000284
 31
0.0
  0
LINE
  5
12B
100
AcDbEntity
100
AcDbLine
  8
support_led_b_milieu_gauche
 62
256
370
-1
 48
1.0
  6
BYLAYER
 10
-0.9999999999999574
 20
233.0000000000001705
 30
0.0
 11
11.884076231498355
 21
232.9999999999999716
 31
0.0
  0
LINE
  5
12C
100
AcDbEntity
100
AcDbLine
  8
support_led_a_milieu_gauche
 62
256
370
-1
 48
1.0
  6
BYLAYER
 10
-0.9999999999999432
 20
184.0000000000001421
 30
0.0
 11
11.8840762314983692
 21
183.9999999999999432
 31
0.0
  0
LINE
  5
12D
100
AcDbEntity
100
AcDbLine
  8
support_led_a_milieu_droit
 62
256
370
-1
 48
1.0
  6
BYLAYER
 10
181.0
 20
184.0
 30
0.0
 11
168.1159237685016024
 21
184.0
 31
0.0
  0
LINE
  5
12E
100
AcDbEntity
100
AcDbLine
  8
support_led_b_bas_gauche
 62
256
370
-1
 48
1.0
  6
BYLAYER
 10
25.0
 20
217.0000000000000568
 30
0.0
 11
18.0717967697245285
 21
229.0000000000000853
 31
0.0
  0
LINE
  5
12F
100
AcDbEntity
100
AcDbLine
  8
support_led_b_bas_droit
 62
256
370
-1
 48
1.0
  6
BYLAYER
 10
155.0
 20
217.0000000000000284
 30
0.0
 11
161.9282032302754715
 21
229.0000000000000284
 31
0.0
  0
LINE
  5
130
100
AcDbEntity
100
AcDbLine
  8
support_led_a_bas_gauche
 62
256
370
-1
 48
1.0
  6
BYLAYER
 10
25.0000000000000142
 20
168.0000000000000284
 30
0.0
 11
18.0717967697245427
 21
180.0000000000000568
 31
0.0
  0
LINE
  5
131
100
AcDbEntity
100
AcDbLine
  8
support_led_a_bas_droit
 62
256
370
-1
 48
1.0
  6
BYLAYER
 10
155.0
 20
168.0
 30
0.0
 11
161.9282032302754715
 21
180.0
 31
0.0
  0
LINE
  5
132
100
AcDbEntity
100
AcDbLine
  8
support_led_b_bas_gauche
 62
256
370
-1
 48
1.0
  6
BYLAYER
 10
18.0717967697245285
 20
229.0000000000000853
 30
0.0
 11
10.0000000000000426
 21
229.0000000000000284
 31
0.0
  0
LINE
  5
133
100
AcDbEntity
100
AcDbLine
  8
support_led_b_bas_droit
 62
256
370
-1
 48
1.0
  6
BYLAYER
 10
161.9282032302754715
 20
229.0000000000000284
 30
0.0
 11
169.9999999999999432
 21
229.0000000000000284
 31
0.0
  0
LINE
  5
134
100
AcDbEntity
100
AcDbLine
  8
support_led_a_bas_gauche
 62
256
370
-1
 48
1.0
  6
BYLAYER
 10
18.0717967697245427
 20
180.0000000000000568
 30
0.0
 11
10.0000000000000568
 21
180.0
 31
0.0
  0
LINE
  5
135
100
AcDbEntity
100
AcDbLine
  8
support_led_a_bas_droit
 62
256
370
-1
 48
1.0
  6
BYLAYER
 10
161.9282032302754715
 20
180.0
 30
0.0
 11
169.9999999999999432
 21
180.0
 31
0.0
  0
LINE
  5
136
100
AcDbEntity
100
AcDbLine
  8
support_led_b_bas_gauche
 62
256
370
-1
 48
1.0
  6
BYLAYER
 10
10.0000000000000426
 20
229.0000000000000284
 30
0.0
 11
10.0000000000000142
 21
217.0000000000001421
 31
0.0
  0
LINE
  5
137
100
AcDbEntity
100
AcDbLine
  8
support_led_b_bas_droit
 62
256
370
-1
 48
1.0
  6
BYLAYER
 10
169.9999999999999432
 20
229.0000000000000284
 30
0.0
 11
170.0
 21
217.0000000000000284
 31
0.0
  0
LINE
  5
138
100
AcDbEntity
100
AcDbLine
  8
support_led_a_bas_gauche
 62
256
370
-1
 48
1.0
  6
BYLAYER
 10
10.0000000000000568
 20
180.0
 30
0.0
 11
10.0000000000000284
 21
168.0000000000001137
 31
0.0
  0
LINE
  5
139
100
AcDbEntity
100
AcDbLine
  8
support_led_a_bas_droit
 62
256
370
-1
 48
1.0
  6
BYLAYER
 10
169.9999999999999432
 20
180.0
 30
0.0
 11
170.0
 21
168.0
 31
0.0
  0
LINE
  5
13A
100
AcDbEntity
100
AcDbLine
  8
support_led_b_bas_droit
 62
256
370
-1
 48
1.0
  6
BYLAYER
 10
170.0
 20
217.0000000000000284
 30
0.0
 11
154.9999999999999432
 21
216.9999999999999716
 31
0.0
  0
LINE
  5
13B
100
AcDbEntity
100
AcDbLine
  8
support_led_b_bas_gauche
 62
256
370
-1
 48
1.0
  6
BYLAYER
 10
10.0000000000000142
 20
217.0000000000001421
 30
0.0
 11
25.0000000000000284
 21
216.9999999999999147
 31
0.0
  0
LINE
  5
13C
100
AcDbEntity
100
AcDbLine
  8
support_led_a_bas_gauche
 62
256
370
-1
 48
1.0
  6
BYLAYER
 10
10.0000000000000284
 20
168.0000000000001137
 30
0.0
 11
25.0000000000000426
 21
167.9999999999998863
 31
0.0
  0
LINE
  5
13D
100
AcDbEntity
100
AcDbLine
  8
support_led_a_bas_droit
 62
256
370
-1
 48
1.0
  6
BYLAYER
 10
170.0
 20
168.0
 30
0.0
 11
154.9999999999999432
 21
167.9999999999999432
 31
0.0
  0
ENDSEC
  0
SECTION
  2
OBJECTS
  0
DICTIONARY
  5
C
100
AcDbDictionary
280
0
281
1
  3
ACAD_GROUP
350
D
  3
ACAD_LAYOUT
350
1A
  3
ACAD_MLINESTYLE
350
17
  3
ACAD_PLOTSETTINGS
350
19
  3
ACAD_PLOTSTYLENAME
350
E
  3
AcDbVariableDictionary
350
13E
  3
QCAD_OBJECTS
350
13F
  0
DICTIONARY
  5
D
100
AcDbDictionary
280
0
281
1
  0
ACDBDICTIONARYWDFLT
  5
E
100
AcDbDictionary
281
1
  3
Normal
350
F
100
AcDbDictionaryWithDefault
340
F
  0
ACDBPLACEHOLDER
  5
F
  0
DICTIONARY
  5
17
100
AcDbDictionary
280
0
281
1
  3
Standard
350
18
  0
MLINESTYLE
  5
18
100
AcDbMlineStyle
  2
STANDARD
 70
0
  3

 62
256
 51
90.0
 52
90.0
 71
2
 49
0.5
 62
256
  6
BYLAYER
 49
-0.5
 62
256
  6
BYLAYER
  0
DICTIONARY
  5
19
100
AcDbDictionary
280
0
281
1
  0
DICTIONARY
  5
1A
100
AcDbDictionary
281
1
  3
Layout1
350
1E
  3
Layout2
350
26
  3
Model
350
22
  0
LAYOUT
  5
1E
100
AcDbPlotSettings
  1

  2
none_device
  4

  6

 40
0.0
 41
0.0
 42
0.0
 43
0.0
 44
0.0
 45
0.0
 46
0.0
 47
0.0
 48
0.0
 49
0.0
140
0.0
141
0.0
142
1.0
143
1.0
 70
688
 72
0
 73
0
 74
5
  7

 75
16
147
1.0
148
0.0
149
0.0
100
AcDbLayout
  1
Layout1
 70
1
 71
1
 10
0.0
 20
0.0
 11
420.0
 21
297.0
 12
0.0
 22
0.0
 32
0.0
 14
100000000000000000000.0
 24
100000000000000000000.0
 34
100000000000000000000.0
 15
-100000000000000000000.0
 25
-100000000000000000000.0
 35
-100000000000000000000.0
146
0.0
 13
0.0
 23
0.0
 33
0.0
 16
1.0
 26
0.0
 36
0.0
 17
0.0
 27
1.0
 37
0.0
 76
0
330
1B
  0
LAYOUT
  5
22
100
AcDbPlotSettings
  1

  2
none_device
  4

  6

 40
0.0
 41
0.0
 42
0.0
 43
0.0
 44
0.0
 45
0.0
 46
0.0
 47
0.0
 48
0.0
 49
0.0
140
0.0
141
0.0
142
1.0
143
1.0
 70
1712
 72
0
 73
0
 74
0
  7

 75
0
147
1.0
148
0.0
149
0.0
100
AcDbLayout
  1
Model
 70
1
 71
0
 10
0.0
 20
0.0
 11
12.0
 21
9.0
 12
0.0
 22
0.0
 32
0.0
 14
0.0
 24
0.0
 34
0.0
 15
0.0
 25
0.0
 35
0.0
146
0.0
 13
0.0
 23
0.0
 33
0.0
 16
1.0
 26
0.0
 36
0.0
 17
0.0
 27
1.0
 37
0.0
 76
0
330
1F
  0
LAYOUT
  5
26
100
AcDbPlotSettings
  1

  2
none_device
  4

  6

 40
0.0
 41
0.0
 42
0.0
 43
0.0
 44
0.0
 45
0.0
 46
0.0
 47
0.0
 48
0.0
 49
0.0
140
0.0
141
0.0
142
1.0
143
1.0
 70
688
 72
0
 73
0
 74
5
  7

 75
16
147
1.0
148
0.0
149
0.0
100
AcDbLayout
  1
Layout2
 70
1
 71
2
 10
0.0
 20
0.0
 11
12.0
 21
9.0
 12
0.0
 22
0.0
 32
0.0
 14
0.0
 24
0.0
 34
0.0
 15
0.0
 25
0.0
 35
0.0
146
0.0
 13
0.0
 23
0.0
 33
0.0
 16
1.0
 26
0.0
 36
0.0
 17
0.0
 27
1.0
 37
0.0
 76
0
330
23
  0
DICTIONARY
  5
13E
100
AcDbDictionary
281
1
  3
DIMASSOC
350
141
  3
HIDETEXT
350
140
  0
DICTIONARYVAR
  5
140
100
DictionaryVariables
280
0
  1
2
  0
DICTIONARYVAR
  5
141
100
DictionaryVariables
280
0
  1
1
  0
DICTIONARY
  5
13F
100
AcDbDictionary
281
1
  3
ColorSettings/BackgroundColor
350
142
  3
ColorSettings/ColorMode
350
143
  3
Grid/DisplayGrid00
350
144
  3
Grid/DisplayGrid01
350
145
  3
Grid/DisplayGrid02
350
146
  3
Grid/DisplayGrid03
350
147
  3
Grid/GridSpacingX00
350
148
  3
Grid/GridSpacingX01
350
149
  3
Grid/GridSpacingX02
350
14A
  3
Grid/GridSpacingX03
350
14B
  3
Grid/GridSpacingY00
350
14C
  3
Grid/GridSpacingY01
350
14D
  3
Grid/GridSpacingY02
350
14E
  3
Grid/GridSpacingY03
350
14F
  3
Grid/IsometricGrid00
350
150
  3
Grid/IsometricGrid01
350
151
  3
Grid/IsometricGrid02
350
152
  3
Grid/IsometricGrid03
350
153
  3
Grid/IsometricProjection00
350
154
  3
Grid/IsometricProjection01
350
155
  3
Grid/IsometricProjection02
350
156
  3
Grid/IsometricProjection03
350
157
  3
Grid/MetaGridSpacingX00
350
158
  3
Grid/MetaGridSpacingX01
350
159
  3
Grid/MetaGridSpacingX02
350
15A
  3
Grid/MetaGridSpacingX03
350
15B
  3
Grid/MetaGridSpacingY00
350
15C
  3
Grid/MetaGridSpacingY01
350
15D
  3
Grid/MetaGridSpacingY02
350
15E
  3
Grid/MetaGridSpacingY03
350
15F
  3
MultiPageSettings/Columns
350
160
  3
MultiPageSettings/GlueMarginsBottom
350
161
  3
MultiPageSettings/GlueMarginsLeft
350
162
  3
MultiPageSettings/GlueMarginsRight
350
163
  3
MultiPageSettings/GlueMarginsTop
350
164
  3
MultiPageSettings/PrintCropMarks
350
165
  3
MultiPageSettings/Rows
350
166
  3
PageSettings/OffsetX
350
167
  3
PageSettings/OffsetY
350
168
  3
PageSettings/PageOrientation
350
169
  3
PageSettings/PaperHeight
350
16A
  3
PageSettings/PaperWidth
350
16B
  3
PageSettings/Scale
350
16C
  3
PageSettings/ShowPaperBorders
350
16D
  3
QCADVersion
350
16E
  3
UnitSettings/PaperUnit
350
16F
  0
XRECORD
  5
142
330
13F
100
AcDbXrecord
280
1
1000
Blanc
  0
XRECORD
  5
143
330
13F
100
AcDbXrecord
280
1
1000
FullColor
  0
XRECORD
  5
144
330
13F
100
AcDbXrecord
280
1
290
1
  0
XRECORD
  5
145
330
13F
100
AcDbXrecord
280
1
290
1
  0
XRECORD
  5
146
330
13F
100
AcDbXrecord
280
1
290
1
  0
XRECORD
  5
147
330
13F
100
AcDbXrecord
280
1
290
1
  0
XRECORD
  5
148
330
13F
100
AcDbXrecord
280
1
1000
auto
  0
XRECORD
  5
149
330
13F
100
AcDbXrecord
280
1
1000
auto
  0
XRECORD
  5
14A
330
13F
100
AcDbXrecord
280
1
1000
auto
  0
XRECORD
  5
14B
330
13F
100
AcDbXrecord
280
1
1000
auto
  0
XRECORD
  5
14C
330
13F
100
AcDbXrecord
280
1
1000
auto
  0
XRECORD
  5
14D
330
13F
100
AcDbXrecord
280
1
1000
auto
  0
XRECORD
  5
14E
330
13F
100
AcDbXrecord
280
1
1000
auto
  0
XRECORD
  5
14F
330
13F
100
AcDbXrecord
280
1
1000
auto
  0
XRECORD
  5
150
330
13F
100
AcDbXrecord
280
1
290
0
  0
XRECORD
  5
151
330
13F
100
AcDbXrecord
280
1
290
0
  0
XRECORD
  5
152
330
13F
100
AcDbXrecord
280
1
290
0
  0
XRECORD
  5
153
330
13F
100
AcDbXrecord
280
1
290
0
  0
XRECORD
  5
154
330
13F
100
AcDbXrecord
280
1
 90
0
  0
XRECORD
  5
155
330
13F
100
AcDbXrecord
280
1
 90
0
  0
XRECORD
  5
156
330
13F
100
AcDbXrecord
280
1
 90
0
  0
XRECORD
  5
157
330
13F
100
AcDbXrecord
280
1
 90
0
  0
XRECORD
  5
158
330
13F
100
AcDbXrecord
280
1
1000
auto
  0
XRECORD
  5
159
330
13F
100
AcDbXrecord
280
1
1000
auto
  0
XRECORD
  5
15A
330
13F
100
AcDbXrecord
280
1
1000
auto
  0
XRECORD
  5
15B
330
13F
100
AcDbXrecord
280
1
1000
auto
  0
XRECORD
  5
15C
330
13F
100
AcDbXrecord
280
1
1000
auto
  0
XRECORD
  5
15D
330
13F
100
AcDbXrecord
280
1
1000
auto
  0
XRECORD
  5
15E
330
13F
100
AcDbXrecord
280
1
1000
auto
  0
XRECORD
  5
15F
330
13F
100
AcDbXrecord
280
1
1000
auto
  0
XRECORD
  5
160
330
13F
100
AcDbXrecord
280
1
 90
1
  0
XRECORD
  5
161
330
13F
100
AcDbXrecord
280
1
 40
10.0
  0
XRECORD
  5
162
330
13F
100
AcDbXrecord
280
1
 40
10.0
  0
XRECORD
  5
163
330
13F
100
AcDbXrecord
280
1
 40
10.0
  0
XRECORD
  5
164
330
13F
100
AcDbXrecord
280
1
 40
10.0
  0
XRECORD
  5
165
330
13F
100
AcDbXrecord
280
1
290
0
  0
XRECORD
  5
166
330
13F
100
AcDbXrecord
280
1
 90
1
  0
XRECORD
  5
167
330
13F
100
AcDbXrecord
280
1
 40
0.0
  0
XRECORD
  5
168
330
13F
100
AcDbXrecord
280
1
 40
0.0
  0
XRECORD
  5
169
330
13F
100
AcDbXrecord
280
1
1000
Portrait
  0
XRECORD
  5
16A
330
13F
100
AcDbXrecord
280
1
 40
297.0
  0
XRECORD
  5
16B
330
13F
100
AcDbXrecord
280
1
 40
210.0
  0
XRECORD
  5
16C
330
13F
100
AcDbXrecord
280
1
1000
1:1
  0
XRECORD
  5
16D
330
13F
100
AcDbXrecord
280
1
290
1
  0
XRECORD
  5
16E
330
13F
100
AcDbXrecord
280
1
1000
3.13.1.3
  0
XRECORD
  5
16F
330
13F
100
AcDbXrecord
280
1
 90
4
  0
ENDSEC
  0
EOF
