999
dxflib 3.7.5.0
  0
SECTION
  2
HEADER
  9
$ACADVER
  1
AC1015
  9
$HANDSEED
  5
FFFF
  9
$DIMADEC
 70
0
  9
$DIMASZ
 40
2.5
  9
$DIMAUNIT
 70
0
  9
$DIMAZIN
 70
2
  9
$DIMDEC
 70
4
  9
$DIMEXE
 40
1.25
  9
$DIMEXO
 40
0.625
  9
$DIMGAP
 40
0.625
  9
$DIMLUNIT
 70
2
  9
$DIMSCALE
 40
1.0
  9
$DIMTSZ
 40
0.0
  9
$DIMTXT
 40
2.5
  9
$DIMZIN
 70
8
  9
$DWGCODEPAGE
  3
ANSI_1252
  9
$INSUNITS
 70
4
  9
$LTSCALE
 40
1
  0
ENDSEC
  0
SECTION
  2
TABLES
  0
TABLE
  2
VPORT
  5
8
100
AcDbSymbolTable
 70
1
  0
VPORT
  5
30
100
AcDbSymbolTableRecord
100
AcDbViewportTableRecord
  2
*Active
 70
0
 10
0.0
 20
0.0
 11
1.0
 21
1.0
 12
286.3055555555554861
 22
148.5
 13
0.0
 23
0.0
 14
10.0
 24
10.0
 15
10.0
 25
10.0
 16
0.0
 26
0.0
 36
1.0
 17
0.0
 27
0.0
 37
0.0
 40
297.0
 41
1.92798353909465
 42
50.0
 43
0.0
 44
0.0
 50
0.0
 51
0.0
 71
0
 72
100
 73
1
 74
3
 75
1
 76
1
 77
0
 78
0
281
0
 65
1
110
0.0
120
0.0
130
0.0
111
1.0
121
0.0
131
0.0
112
0.0
122
1.0
132
0.0
 79
0
146
0.0
  0
ENDTAB
  0
TABLE
  2
LTYPE
  5
5
100
AcDbSymbolTable
 70
3
  0
LTYPE
  5
16
100
AcDbSymbolTableRecord
100
AcDbLinetypeTableRecord
  2
Continuous
 70
0
  3
Solid line
 72
65
 73
0
 40
0.0
  0
LTYPE
  5
15
100
AcDbSymbolTableRecord
100
AcDbLinetypeTableRecord
  2
BYLAYER
 70
0
  3

 72
65
 73
0
 40
0.0
  0
LTYPE
  5
14
100
AcDbSymbolTableRecord
100
AcDbLinetypeTableRecord
  2
BYBLOCK
 70
0
  3

 72
65
 73
0
 40
0.0
  0
ENDTAB
  0
TABLE
  2
LAYER
  5
2
100
AcDbSymbolTable
 70
30
  0
LAYER
  5
31
100
AcDbSymbolTableRecord
100
AcDbLayerTableRecord
  2
branche_m4
 70
0
 62
7
420
0
  6
Continuous
370
25
390
F
  0
LAYER
  5
32
100
AcDbSymbolTableRecord
100
AcDbLayerTableRecord
  2
feuille_m1
 70
0
 62
7
420
0
  6
Continuous
370
25
390
F
  0
LAYER
  5
33
100
AcDbSymbolTableRecord
100
AcDbLayerTableRecord
  2
branche_h4
 70
0
 62
7
420
0
  6
Continuous
370
25
390
F
  0
LAYER
  5
34
100
AcDbSymbolTableRecord
100
AcDbLayerTableRecord
  2
feuille_m2
 70
0
 62
7
420
0
  6
Continuous
370
25
390
F
  0
LAYER
  5
35
100
AcDbSymbolTableRecord
100
AcDbLayerTableRecord
  2
feuille_m3
 70
0
 62
7
420
0
  6
Continuous
370
25
390
F
  0
LAYER
  5
36
100
AcDbSymbolTableRecord
100
AcDbLayerTableRecord
  2
feuille_h1
 70
0
 62
7
420
0
  6
Continuous
370
25
390
F
  0
LAYER
  5
37
100
AcDbSymbolTableRecord
100
AcDbLayerTableRecord
  2
feuille_m4
 70
0
 62
7
420
0
  6
Continuous
370
25
390
F
  0
LAYER
  5
38
100
AcDbSymbolTableRecord
100
AcDbLayerTableRecord
  2
feuille_h2
 70
0
 62
7
420
0
  6
Continuous
370
25
390
F
  0
LAYER
  5
39
100
AcDbSymbolTableRecord
100
AcDbLayerTableRecord
  2
feuille_h3
 70
0
 62
7
420
0
  6
Continuous
370
25
390
F
  0
LAYER
  5
3A
100
AcDbSymbolTableRecord
100
AcDbLayerTableRecord
  2
feuille_h4
 70
0
 62
7
420
0
  6
Continuous
370
25
390
F
  0
LAYER
  5
3B
100
AcDbSymbolTableRecord
100
AcDbLayerTableRecord
  2
arbre_bras3
 70
1
 62
-7
420
0
  6
Continuous
370
25
390
F
  0
LAYER
  5
3C
100
AcDbSymbolTableRecord
100
AcDbLayerTableRecord
  2
plan de travail
 70
4
 62
3
420
65280
  6
Continuous
370
25
390
F
  0
LAYER
  5
10
100
AcDbSymbolTableRecord
100
AcDbLayerTableRecord
  2
0
 70
1
 62
-7
420
16777215
  6
Continuous
370
25
390
F
  0
LAYER
  5
3D
100
AcDbSymbolTableRecord
100
AcDbLayerTableRecord
  2
branche_b1
 70
0
 62
7
420
0
  6
Continuous
370
25
390
F
  0
LAYER
  5
3E
100
AcDbSymbolTableRecord
100
AcDbLayerTableRecord
  2
branche_b2
 70
0
 62
7
420
0
  6
Continuous
370
25
390
F
  0
LAYER
  5
3F
100
AcDbSymbolTableRecord
100
AcDbLayerTableRecord
  2
branche_b3
 70
0
 62
7
420
0
  6
Continuous
370
25
390
F
  0
LAYER
  5
40
100
AcDbSymbolTableRecord
100
AcDbLayerTableRecord
  2
branche_b4
 70
0
 62
7
420
0
  6
Continuous
370
25
390
F
  0
LAYER
  5
41
100
AcDbSymbolTableRecord
100
AcDbLayerTableRecord
  2
feuille_b1
 70
0
 62
7
420
0
  6
Continuous
370
25
390
F
  0
LAYER
  5
42
100
AcDbSymbolTableRecord
100
AcDbLayerTableRecord
  2
arbre_tron
 70
0
 62
7
420
0
  6
Continuous
370
25
390
F
  0
LAYER
  5
43
100
AcDbSymbolTableRecord
100
AcDbLayerTableRecord
  2
feuille_b2
 70
0
 62
7
420
0
  6
Continuous
370
25
390
F
  0
LAYER
  5
44
100
AcDbSymbolTableRecord
100
AcDbLayerTableRecord
  2
feuille_b3
 70
0
 62
7
420
0
  6
Continuous
370
25
390
F
  0
LAYER
  5
45
100
AcDbSymbolTableRecord
100
AcDbLayerTableRecord
  2
feuille_b4
 70
0
 62
7
420
0
  6
Continuous
370
25
390
F
  0
LAYER
  5
46
100
AcDbSymbolTableRecord
100
AcDbLayerTableRecord
  2
arbre_support_leds2
 70
1
 62
-4
420
65535
  6
Continuous
370
25
390
F
  0
LAYER
  5
47
100
AcDbSymbolTableRecord
100
AcDbLayerTableRecord
  2
branche_h1
 70
0
 62
7
420
0
  6
Continuous
370
25
390
F
  0
LAYER
  5
48
100
AcDbSymbolTableRecord
100
AcDbLayerTableRecord
  2
branche_m1
 70
0
 62
7
420
0
  6
Continuous
370
25
390
F
  0
LAYER
  5
49
100
AcDbSymbolTableRecord
100
AcDbLayerTableRecord
  2
branche_h2
 70
0
 62
7
420
0
  6
Continuous
370
25
390
F
  0
LAYER
  5
4A
100
AcDbSymbolTableRecord
100
AcDbLayerTableRecord
  2
separation
 70
1
 62
-1
420
16711680
  6
Continuous
370
25
390
F
  0
LAYER
  5
4B
100
AcDbSymbolTableRecord
100
AcDbLayerTableRecord
  2
branche_m2
 70
0
 62
7
420
0
  6
Continuous
370
25
390
F
  0
LAYER
  5
4C
100
AcDbSymbolTableRecord
100
AcDbLayerTableRecord
  2
branche_m3
 70
0
 62
7
420
0
  6
Continuous
370
25
390
F
  0
LAYER
  5
4D
100
AcDbSymbolTableRecord
100
AcDbLayerTableRecord
  2
branche_h3
 70
0
 62
7
420
0
  6
Continuous
370
25
390
F
  0
ENDTAB
  0
TABLE
  2
STYLE
  5
3
100
AcDbSymbolTable
 70
1
  0
STYLE
  5
4E
100
AcDbSymbolTableRecord
100
AcDbTextStyleTableRecord
  2
Standard
 70
0
 40
0.0
 41
1.0
 50
0.0
 71
0
 42
2.5
  3

  4

1001
ACAD
1000
txt
1071
0
  0
ENDTAB
  0
TABLE
  2
VIEW
  5
6
100
AcDbSymbolTable
 70
0
  0
ENDTAB
  0
TABLE
  2
UCS
  5
7
100
AcDbSymbolTable
 70
0
  0
ENDTAB
  0
TABLE
  2
APPID
  5
9
100
AcDbSymbolTable
 70
1
  0
APPID
  5
12
100
AcDbSymbolTableRecord
100
AcDbRegAppTableRecord
  2
ACAD
 70
0
  0
APPID
  5
4F
100
AcDbSymbolTableRecord
100
AcDbRegAppTableRecord
  2
QCAD
 70
0
  0
ENDTAB
  0
TABLE
  2
DIMSTYLE
  5
A
100
AcDbSymbolTable
 70
1
100
AcDbDimStyleTable
 71
0
  0
DIMSTYLE
105
27
100
AcDbSymbolTableRecord
100
AcDbDimStyleTableRecord
  2
Standard
 41
2.5
 42
0.625
 43
3.75
 44
1.25
 70
0
 73
0
 74
0
 77
1
 78
8
140
2.5
141
2.5
143
0.03937007874016
147
0.625
171
3
172
1
271
2
272
2
274
3
278
44
283
0
284
8
340
4E
  0
ENDTAB
  0
TABLE
  2
BLOCK_RECORD
  5
1
100
AcDbSymbolTable
 70
1
  0
BLOCK_RECORD
  5
1F
100
AcDbSymbolTableRecord
100
AcDbBlockTableRecord
  2
*Model_Space
340
22
  0
BLOCK_RECORD
  5
1B
100
AcDbSymbolTableRecord
100
AcDbBlockTableRecord
  2
*Paper_Space
340
1E
  0
BLOCK_RECORD
  5
23
100
AcDbSymbolTableRecord
100
AcDbBlockTableRecord
  2
*Paper_Space0
340
26
  0
ENDTAB
  0
ENDSEC
  0
SECTION
  2
BLOCKS
  0
BLOCK
  5
20
100
AcDbEntity
  8
0
100
AcDbBlockBegin
  2
*Model_Space
 70
0
 10
0.0
 20
0.0
 30
0.0
  3
*Model_Space
  1

  0
ENDBLK
  5
21
100
AcDbEntity
  8
0
100
AcDbBlockEnd
  0
BLOCK
  5
1C
100
AcDbEntity
 67
1
  8
0
100
AcDbBlockBegin
  2
*Paper_Space
 70
0
 10
0.0
 20
0.0
 30
0.0
  3
*Paper_Space
  1

  0
ENDBLK
  5
1D
100
AcDbEntity
 67
1
  8
0
100
AcDbBlockEnd
  0
BLOCK
  5
24
100
AcDbEntity
  8
0
100
AcDbBlockBegin
  2
*Paper_Space0
 70
0
 10
0.0
 20
0.0
 30
0.0
  3
*Paper_Space0
  1

  0
ENDBLK
  5
25
100
AcDbEntity
  8
0
100
AcDbBlockEnd
  0
ENDSEC
  0
SECTION
  2
ENTITIES
  0
LINE
  5
50
100
AcDbEntity
100
AcDbLine
  8
plan de travail
 62
256
370
-1
 48
1.0
  6
BYLAYER
 10
195.0
 20
-5.0
 30
0.0
 11
195.0
 21
295.0
 31
0.0
  0
LINE
  5
51
100
AcDbEntity
100
AcDbLine
  8
plan de travail
 62
256
370
-1
 48
1.0
  6
BYLAYER
 10
195.0
 20
295.0
 30
0.0
 11
-5.0
 21
295.0
 31
0.0
  0
LINE
  5
52
100
AcDbEntity
100
AcDbLine
  8
plan de travail
 62
256
370
-1
 48
1.0
  6
BYLAYER
 10
-5.0
 20
295.0
 30
0.0
 11
-5.0
 21
-5.0
 31
0.0
  0
LINE
  5
53
100
AcDbEntity
100
AcDbLine
  8
plan de travail
 62
256
370
-1
 48
1.0
  6
BYLAYER
 10
-5.0
 20
-5.0
 30
0.0
 11
195.0
 21
-5.0
 31
0.0
  0
LINE
  5
54
100
AcDbEntity
100
AcDbLine
  8
arbre_tron
 62
256
370
-1
 48
1.0
  6
BYLAYER
 10
38.9999999999999787
 20
164.0
 30
0.0
 11
48.9999999999999645
 21
164.0
 31
0.0
  0
ARC
  5
55
100
AcDbEntity
  8
arbre_tron
 62
256
370
-1
 48
1.0
  6
BYLAYER
100
AcDbCircle
 10
43.9999999999996589
 20
103.4999999999990479
 30
0.0
 40
62.8358165275122147
100
AcDbArc
 50
61.4820073504025757
 51
74.328593578010242
  0
ARC
  5
56
100
AcDbEntity
  8
arbre_tron
 62
256
370
-1
 48
1.0
  6
BYLAYER
100
AcDbCircle
 10
80.9999999999999716
 20
43.0
 30
0.0
 40
7.0
100
AcDbArc
 50
360.0
 51
89.9999999999999858
  0
ARC
  5
57
100
AcDbEntity
  8
arbre_tron
 62
256
370
-1
 48
1.0
  6
BYLAYER
100
AcDbCircle
 10
80.9999999999999574
 20
56.9999999999999858
 30
0.0
 40
7.0
100
AcDbArc
 50
180.0
 51
270.0
  0
LINE
  5
58
100
AcDbEntity
100
AcDbLine
  8
arbre_tron
 62
256
370
-1
 48
1.0
  6
BYLAYER
 10
87.9999999999999432
 20
0.0
 30
0.0
 11
62.9999999999999432
 21
0.0
 31
0.0
  0
LINE
  5
59
100
AcDbEntity
100
AcDbLine
  8
arbre_tron
 62
256
370
-1
 48
1.0
  6
BYLAYER
 10
62.9999999999999432
 20
0.0
 30
0.0
 11
62.9999999999999147
 21
43.0
 31
0.0
  0
LINE
  5
5A
100
AcDbEntity
100
AcDbLine
  8
arbre_tron
 62
256
370
-1
 48
1.0
  6
BYLAYER
 10
62.9999999999999147
 20
43.0
 30
0.0
 11
48.9999999999999929
 21
43.0
 31
0.0
  0
LINE
  5
5B
100
AcDbEntity
100
AcDbLine
  8
arbre_tron
 62
256
370
-1
 48
1.0
  6
BYLAYER
 10
48.9999999999999645
 20
164.0
 30
0.0
 11
60.9732094395564985
 21
164.0
 31
0.0
  0
RAY
  5
5C
100
AcDbEntity
100
AcDbLine
  8
arbre_bras3
 62
256
370
-1
 48
1.0
  6
BYLAYER
 10
124.77722283113836
 20
32.7500000000000071
 30
0.0
 11
0.0
 21
0.0
 31
0.0
  0
LINE
  5
5D
100
AcDbEntity
100
AcDbLine
  8
arbre_tron
 62
256
370
-1
 48
1.0
  6
BYLAYER
 10
0.0
 20
0.0
 30
0.0
 11
24.9999999999999289
 21
0.0000000000000284
 31
0.0
  0
LINE
  5
5E
100
AcDbEntity
100
AcDbLine
  8
arbre_tron
 62
256
370
-1
 48
1.0
  6
BYLAYER
 10
24.9999999999999289
 20
0.0000000000000284
 30
0.0
 11
24.9999999999999538
 21
43.0
 31
0.0
  0
LINE
  5
5F
100
AcDbEntity
100
AcDbLine
  8
arbre_tron
 62
256
370
-1
 48
1.0
  6
BYLAYER
 10
24.9999999999999538
 20
43.0
 30
0.0
 11
38.9999999999999716
 21
43.0
 31
0.0
  0
LINE
  5
60
100
AcDbEntity
100
AcDbLine
  8
arbre_tron
 62
256
370
-1
 48
1.0
  6
BYLAYER
 10
38.9999999999999716
 20
164.0
 30
0.0
 11
27.0267905604434517
 21
163.9999999999999716
 31
0.0
  0
ARC
  5
61
100
AcDbEntity
  8
arbre_tron
 62
256
370
-1
 48
1.0
  6
BYLAYER
100
AcDbCircle
 10
44.00000000000027
 20
103.4999999999990479
 30
0.0
 40
62.8358165275122147
100
AcDbArc
 50
105.6714064219897722
 51
118.5179926495974314
  0
LINE
  5
62
100
AcDbEntity
100
AcDbLine
  8
arbre_tron
 62
256
370
-1
 48
1.0
  6
BYLAYER
 10
48.9999999999999645
 20
164.0
 30
0.0
 11
38.9999999999999716
 21
164.0
 31
0.0
  0
ARC
  5
63
100
AcDbEntity
  8
arbre_tron
 62
256
370
-1
 48
1.0
  6
BYLAYER
100
AcDbCircle
 10
6.9999999999999432
 20
43.0000000000000284
 30
0.0
 40
7.0
100
AcDbArc
 50
89.9999999999999858
 51
180.0
  0
ARC
  5
64
100
AcDbEntity
  8
arbre_tron
 62
256
370
-1
 48
1.0
  6
BYLAYER
100
AcDbCircle
 10
6.9999999999999787
 20
57.0
 30
0.0
 40
7.0
100
AcDbArc
 50
270.0
 51
360.0
  0
LINE
  5
65
100
AcDbEntity
100
AcDbLine
  8
arbre_tron
 62
256
370
-1
 48
1.0
  6
BYLAYER
 10
48.9999999999999503
 20
105.0875000000000057
 30
0.0
 11
38.9999999999999574
 21
105.0875000000000057
 31
0.0
  0
LINE
  5
66
100
AcDbEntity
100
AcDbLine
  8
arbre_tron
 62
256
370
-1
 48
1.0
  6
BYLAYER
 10
13.9999999999999716
 20
132.5288887729105909
 30
0.0
 11
19.9999999999999716
 21
132.5288887729105909
 31
0.0
  0
LINE
  5
67
100
AcDbEntity
100
AcDbLine
  8
arbre_tron
 62
256
370
-1
 48
1.0
  6
BYLAYER
 10
13.9999999999999787
 20
80.694215545856423
 30
0.0
 11
19.9999999999999787
 21
80.694215545856423
 31
0.0
  0
LINE
  5
68
100
AcDbEntity
100
AcDbLine
  8
arbre_tron
 62
256
370
-1
 48
1.0
  6
BYLAYER
 10
67.9999999999999716
 20
132.5288887729105909
 30
0.0
 11
73.9999999999999716
 21
132.5288887729105909
 31
0.0
  0
LINE
  5
69
100
AcDbEntity
100
AcDbLine
  8
arbre_tron
 62
256
370
-1
 48
1.0
  6
BYLAYER
 10
67.9999999999999574
 20
80.694215545856423
 30
0.0
 11
73.9999999999999574
 21
80.6942155458564088
 31
0.0
  0
LINE
  5
6A
100
AcDbEntity
100
AcDbLine
  8
arbre_tron
 62
256
370
-1
 48
1.0
  6
BYLAYER
 10
-0.0000000000000284
 20
21.7500000000000284
 30
0.0
 11
5.9999999999999716
 21
21.7500000000000284
 31
0.0
  0
LINE
  5
6B
100
AcDbEntity
100
AcDbLine
  8
arbre_tron
 62
256
370
-1
 48
1.0
  6
BYLAYER
 10
81.9999999999999432
 20
21.7500000000000142
 30
0.0
 11
87.9999999999999432
 21
21.7500000000000142
 31
0.0
  0
LINE
  5
6C
100
AcDbEntity
100
AcDbLine
  8
arbre_tron
 62
256
370
-1
 48
1.0
  6
BYLAYER
 10
13.9999999999999716
 20
127.5288887729105909
 30
0.0
 11
19.9999999999999716
 21
127.5288887729105909
 31
0.0
  0
LINE
  5
6D
100
AcDbEntity
100
AcDbLine
  8
arbre_tron
 62
256
370
-1
 48
1.0
  6
BYLAYER
 10
67.9999999999999716
 20
127.5288887729105909
 30
0.0
 11
73.9999999999999716
 21
127.5288887729105909
 31
0.0
  0
LINE
  5
6E
100
AcDbEntity
100
AcDbLine
  8
arbre_tron
 62
256
370
-1
 48
1.0
  6
BYLAYER
 10
-0.0000000000000284
 20
16.7500000000000284
 30
0.0
 11
5.9999999999999716
 21
16.7500000000000284
 31
0.0
  0
LINE
  5
6F
100
AcDbEntity
100
AcDbLine
  8
arbre_tron
 62
256
370
-1
 48
1.0
  6
BYLAYER
 10
81.9999999999999432
 20
16.7500000000000142
 30
0.0
 11
87.9999999999999432
 21
16.7500000000000142
 31
0.0
  0
LINE
  5
70
100
AcDbEntity
100
AcDbLine
  8
arbre_tron
 62
256
370
-1
 48
1.0
  6
BYLAYER
 10
19.9999999999999716
 20
127.5288887729105909
 30
0.0
 11
19.9999999999999716
 21
132.5288887729105909
 31
0.0
  0
LINE
  5
71
100
AcDbEntity
100
AcDbLine
  8
arbre_tron
 62
256
370
-1
 48
1.0
  6
BYLAYER
 10
19.9999999999999787
 20
75.694215545856423
 30
0.0
 11
19.9999999999999787
 21
80.694215545856423
 31
0.0
  0
LINE
  5
72
100
AcDbEntity
100
AcDbLine
  8
arbre_tron
 62
256
370
-1
 48
1.0
  6
BYLAYER
 10
19.9999999999999787
 20
75.694215545856423
 30
0.0
 11
13.9999999999999787
 21
75.694215545856423
 31
0.0
  0
LINE
  5
73
100
AcDbEntity
100
AcDbLine
  8
arbre_tron
 62
256
370
-1
 48
1.0
  6
BYLAYER
 10
13.9999999999999822
 20
57.0
 30
0.0
 11
13.9999999999999787
 21
75.694215545856423
 31
0.0
  0
LINE
  5
74
100
AcDbEntity
100
AcDbLine
  8
arbre_tron
 62
256
370
-1
 48
1.0
  6
BYLAYER
 10
13.9999999999999787
 20
80.694215545856423
 30
0.0
 11
13.9999999999999716
 21
127.5288887729105909
 31
0.0
  0
LINE
  5
75
100
AcDbEntity
100
AcDbLine
  8
arbre_tron
 62
256
370
-1
 48
1.0
  6
BYLAYER
 10
13.9999999999999716
 20
132.5288887729105909
 30
0.0
 11
13.999999999999968
 21
158.7117726456871765
 31
0.0
  0
LINE
  5
76
100
AcDbEntity
100
AcDbLine
  8
arbre_tron
 62
256
370
-1
 48
1.0
  6
BYLAYER
 10
73.9999999999999716
 20
132.5288887729105909
 30
0.0
 11
73.9999999999999716
 21
158.7117726456871765
 31
0.0
  0
LINE
  5
77
100
AcDbEntity
100
AcDbLine
  8
arbre_tron
 62
256
370
-1
 48
1.0
  6
BYLAYER
 10
67.9999999999999716
 20
127.5288887729105909
 30
0.0
 11
67.9999999999999716
 21
132.5288887729105909
 31
0.0
  0
LINE
  5
78
100
AcDbEntity
100
AcDbLine
  8
arbre_tron
 62
256
370
-1
 48
1.0
  6
BYLAYER
 10
67.9999999999999574
 20
75.694215545856423
 30
0.0
 11
67.9999999999999574
 21
80.694215545856423
 31
0.0
  0
LINE
  5
79
100
AcDbEntity
100
AcDbLine
  8
arbre_tron
 62
256
370
-1
 48
1.0
  6
BYLAYER
 10
73.9999999999999574
 20
56.9999999999999858
 30
0.0
 11
73.9999999999999574
 21
75.6942155458564088
 31
0.0
  0
LINE
  5
7A
100
AcDbEntity
100
AcDbLine
  8
arbre_tron
 62
256
370
-1
 48
1.0
  6
BYLAYER
 10
73.9999999999999574
 20
80.694215545856423
 30
0.0
 11
73.9999999999999716
 21
127.5288887729105625
 31
0.0
  0
LINE
  5
7B
100
AcDbEntity
100
AcDbLine
  8
arbre_tron
 62
256
370
-1
 48
1.0
  6
BYLAYER
 10
67.9999999999999574
 20
75.6942155458564088
 30
0.0
 11
73.9999999999999574
 21
75.6942155458564088
 31
0.0
  0
LINE
  5
7C
100
AcDbEntity
100
AcDbLine
  8
arbre_tron
 62
256
370
-1
 48
1.0
  6
BYLAYER
 10
-0.0000000000000497
 20
43.0
 30
0.0
 11
-0.0000000000000284
 21
21.7500000000000284
 31
0.0
  0
LINE
  5
7D
100
AcDbEntity
100
AcDbLine
  8
arbre_tron
 62
256
370
-1
 48
1.0
  6
BYLAYER
 10
-0.0000000000000213
 20
16.7500000000000284
 30
0.0
 11
0.0
 21
0.0
 31
0.0
  0
LINE
  5
7E
100
AcDbEntity
100
AcDbLine
  8
arbre_tron
 62
256
370
-1
 48
1.0
  6
BYLAYER
 10
5.9999999999999787
 20
21.7500000000000284
 30
0.0
 11
5.9999999999999858
 21
16.7500000000000284
 31
0.0
  0
LINE
  5
7F
100
AcDbEntity
100
AcDbLine
  8
arbre_tron
 62
256
370
-1
 48
1.0
  6
BYLAYER
 10
81.9999999999999432
 20
21.7500000000000142
 30
0.0
 11
81.9999999999999432
 21
16.7500000000000142
 31
0.0
  0
LINE
  5
80
100
AcDbEntity
100
AcDbLine
  8
arbre_tron
 62
256
370
-1
 48
1.0
  6
BYLAYER
 10
87.9999999999999716
 20
43.0
 30
0.0
 11
87.9999999999999432
 21
21.7500000000000142
 31
0.0
  0
LINE
  5
81
100
AcDbEntity
100
AcDbLine
  8
arbre_tron
 62
256
370
-1
 48
1.0
  6
BYLAYER
 10
87.9999999999999432
 20
16.7500000000000142
 30
0.0
 11
87.9999999999999432
 21
0.0
 31
0.0
  0
CIRCLE
  5
82
100
AcDbEntity
100
AcDbCircle
  8
arbre_tron
 62
256
370
-1
 48
1.0
  6
BYLAYER
 10
61.4999999999999716
 20
86.694215545856423
 30
0.0
 40
1.5
  0
CIRCLE
  5
83
100
AcDbEntity
100
AcDbCircle
  8
arbre_tron
 62
256
370
-1
 48
1.0
  6
BYLAYER
 10
61.4999999999999716
 20
138.5288887729105909
 30
0.0
 40
1.5
  0
CIRCLE
  5
84
100
AcDbEntity
100
AcDbCircle
  8
arbre_tron
 62
256
370
-1
 48
1.0
  6
BYLAYER
 10
75.4999999999999716
 20
27.7500000000000142
 30
0.0
 40
1.5
  0
CIRCLE
  5
85
100
AcDbEntity
100
AcDbCircle
  8
arbre_tron
 62
256
370
-1
 48
1.0
  6
BYLAYER
 10
26.4999999999999325
 20
86.6942155458564372
 30
0.0
 40
1.5
  0
CIRCLE
  5
86
100
AcDbEntity
100
AcDbCircle
  8
arbre_tron
 62
256
370
-1
 48
1.0
  6
BYLAYER
 10
26.4999999999999716
 20
138.5288887729105909
 30
0.0
 40
1.5
  0
CIRCLE
  5
87
100
AcDbEntity
100
AcDbCircle
  8
arbre_tron
 62
256
370
-1
 48
1.0
  6
BYLAYER
 10
12.4999999999999538
 20
27.75
 30
0.0
 40
1.5
  0
CIRCLE
  5
88
100
AcDbEntity
100
AcDbCircle
  8
arbre_bras3
 62
256
370
-1
 48
1.0
  6
BYLAYER
 10
361.5
 20
286.694215545856423
 30
0.0
 40
1.5
  0
CIRCLE
  5
89
100
AcDbEntity
100
AcDbCircle
  8
arbre_bras3
 62
256
370
-1
 48
1.0
  6
BYLAYER
 10
361.5
 20
338.5288887729105909
 30
0.0
 40
1.5
  0
CIRCLE
  5
8A
100
AcDbEntity
100
AcDbCircle
  8
arbre_bras3
 62
256
370
-1
 48
1.0
  6
BYLAYER
 10
375.5
 20
227.75
 30
0.0
 40
1.5
  0
RAY
  5
8B
100
AcDbEntity
100
AcDbLine
  8
arbre_bras3
 62
256
370
-1
 48
1.0
  6
BYLAYER
 10
419.7772228311383742
 20
227.75
 30
0.0
 11
0.0
 21
0.0
 31
0.0
  0
LINE
  5
8C
100
AcDbEntity
100
AcDbLine
  8
arbre_bras3
 62
256
370
-1
 48
1.0
  6
BYLAYER
 10
416.3131212160005816
 20
221.75
 30
0.0
 11
423.2413244462761099
 21
233.75
 31
0.0
  0
LINE
  5
8D
100
AcDbEntity
100
AcDbLine
  8
arbre_bras3
 62
256
370
-1
 48
1.0
  6
BYLAYER
 10
431.2286402728189501
 20
280.694215545856423
 30
0.0
 11
429.1127165043173477
 21
292.694215545856423
 31
0.0
  0
LINE
  5
8E
100
AcDbEntity
100
AcDbLine
  8
arbre_bras3
 62
256
370
-1
 48
1.0
  6
BYLAYER
 10
407.3944374031374309
 20
332.5288887729105909
 30
0.0
 11
393.0933942920069057
 21
344.5288887729105909
 31
0.0
  0
ARC
  5
8F
100
AcDbEntity
  8
arbre_bras3
 62
256
370
-1
 48
1.0
  6
BYLAYER
100
AcDbCircle
 10
361.5
 20
338.5288887729105909
 30
0.0
 40
10.0
100
AcDbArc
 50
143.1301023541557527
 51
216.8698976458442473
  0
LINE
  5
90
100
AcDbEntity
100
AcDbLine
  8
arbre_bras3
 62
256
370
-1
 48
1.0
  6
BYLAYER
 10
353.5000000000000568
 20
344.5288887729105909
 30
0.0
 11
393.0933942920069057
 21
344.5288887729105909
 31
0.0
  0
LINE
  5
91
100
AcDbEntity
100
AcDbLine
  8
arbre_bras3
 62
256
370
-1
 48
1.0
  6
BYLAYER
 10
353.5000000000000568
 20
332.5288887729105909
 30
0.0
 11
407.3944374031374309
 21
332.5288887729105909
 31
0.0
  0
LINE
  5
92
100
AcDbEntity
100
AcDbLine
  8
arbre_bras3
 62
256
370
-1
 48
1.0
  6
BYLAYER
 10
353.4999999999998863
 20
292.694215545856423
 30
0.0
 11
429.1127165043173477
 21
292.694215545856423
 31
0.0
  0
ARC
  5
93
100
AcDbEntity
  8
arbre_bras3
 62
256
370
-1
 48
1.0
  6
BYLAYER
100
AcDbCircle
 10
361.5
 20
286.694215545856423
 30
0.0
 40
10.0
100
AcDbArc
 50
143.13010235415598
 51
216.8698976458436221
  0
LINE
  5
94
100
AcDbEntity
100
AcDbLine
  8
arbre_bras3
 62
256
370
-1
 48
1.0
  6
BYLAYER
 10
353.4999999999998863
 20
280.694215545856423
 30
0.0
 11
431.2286402728189501
 21
280.694215545856423
 31
0.0
  0
ARC
  5
95
100
AcDbEntity
  8
arbre_bras3
 62
256
370
-1
 48
1.0
  6
BYLAYER
100
AcDbCircle
 10
375.5
 20
227.75
 30
0.0
 40
10.0
100
AcDbArc
 50
143.1301023541563779
 51
216.8698976458436221
  0
LINE
  5
96
100
AcDbEntity
100
AcDbLine
  8
arbre_bras3
 62
256
370
-1
 48
1.0
  6
BYLAYER
 10
367.4999999999998863
 20
233.75
 30
0.0
 11
423.2413244462761099
 21
233.75
 31
0.0
  0
LINE
  5
97
100
AcDbEntity
100
AcDbLine
  8
arbre_bras3
 62
256
370
-1
 48
1.0
  6
BYLAYER
 10
367.5
 20
221.75
 30
0.0
 11
416.3131212160005816
 21
221.75
 31
0.0
  0
ARC
  5
98
100
AcDbEntity
  8
arbre_bras3
 62
256
370
-1
 48
1.0
  6
BYLAYER
100
AcDbCircle
 10
326.4999999999999432
 20
286.694215545856423
 30
0.0
 40
10.0
100
AcDbArc
 50
323.1301023541564064
 51
36.8698976458439986
  0
LINE
  5
99
100
AcDbEntity
100
AcDbLine
  8
arbre_bras3
 62
256
370
-1
 48
1.0
  6
BYLAYER
 10
334.5000000000000568
 20
280.694215545856423
 30
0.0
 11
256.7713597271809931
 21
280.694215545856423
 31
0.0
  0
ARC
  5
9A
100
AcDbEntity
  8
arbre_bras3
 62
256
370
-1
 48
1.0
  6
BYLAYER
100
AcDbCircle
 10
312.4999999999999432
 20
227.75
 30
0.0
 40
10.0
100
AcDbArc
 50
323.1301023541564064
 51
36.8698976458435936
  0
LINE
  5
9B
100
AcDbEntity
100
AcDbLine
  8
arbre_bras3
 62
256
370
-1
 48
1.0
  6
BYLAYER
 10
320.5000000000000568
 20
233.75
 30
0.0
 11
264.7586755537238332
 21
233.7500000000000284
 31
0.0
  0
LINE
  5
9C
100
AcDbEntity
100
AcDbLine
  8
arbre_bras3
 62
256
370
-1
 48
1.0
  6
BYLAYER
 10
320.5
 20
221.7500000000000284
 30
0.0
 11
271.6868787839993047
 21
221.7500000000000284
 31
0.0
  0
CIRCLE
  5
9D
100
AcDbEntity
100
AcDbCircle
  8
arbre_bras3
 62
256
370
-1
 48
1.0
  6
BYLAYER
 10
326.4999999999999432
 20
286.694215545856423
 30
0.0
 40
1.5
  0
CIRCLE
  5
9E
100
AcDbEntity
100
AcDbCircle
  8
arbre_bras3
 62
256
370
-1
 48
1.0
  6
BYLAYER
 10
326.5
 20
338.5288887729105909
 30
0.0
 40
1.5
  0
CIRCLE
  5
9F
100
AcDbEntity
100
AcDbCircle
  8
arbre_bras3
 62
256
370
-1
 48
1.0
  6
BYLAYER
 10
312.4999999999999432
 20
227.75
 30
0.0
 40
1.5
  0
LINE
  5
A0
100
AcDbEntity
100
AcDbLine
  8
arbre_bras3
 62
256
370
-1
 48
1.0
  6
BYLAYER
 10
271.6868787839993047
 20
221.7500000000000284
 30
0.0
 11
264.7586755537238332
 21
233.7500000000000284
 31
0.0
  0
LINE
  5
A1
100
AcDbEntity
100
AcDbLine
  8
arbre_bras3
 62
256
370
-1
 48
1.0
  6
BYLAYER
 10
256.7713597271809931
 20
280.694215545856423
 30
0.0
 11
258.8872834956825955
 21
292.694215545856423
 31
0.0
  0
LINE
  5
A2
100
AcDbEntity
100
AcDbLine
  8
arbre_bras3
 62
256
370
-1
 48
1.0
  6
BYLAYER
 10
280.6055625968625122
 20
332.5288887729105909
 30
0.0
 11
294.9066057079930374
 21
344.5288887729105909
 31
0.0
  0
ARC
  5
A3
100
AcDbEntity
  8
arbre_bras3
 62
256
370
-1
 48
1.0
  6
BYLAYER
100
AcDbCircle
 10
326.5
 20
338.5288887729105909
 30
0.0
 40
10.0
100
AcDbArc
 50
323.1301023541557811
 51
36.8698976458442047
  0
LINE
  5
A4
100
AcDbEntity
100
AcDbLine
  8
arbre_bras3
 62
256
370
-1
 48
1.0
  6
BYLAYER
 10
334.4999999999998863
 20
344.5288887729105909
 30
0.0
 11
294.9066057079930374
 21
344.5288887729105909
 31
0.0
  0
LINE
  5
A5
100
AcDbEntity
100
AcDbLine
  8
arbre_bras3
 62
256
370
-1
 48
1.0
  6
BYLAYER
 10
334.4999999999998863
 20
332.5288887729105909
 30
0.0
 11
280.6055625968625122
 21
332.5288887729105909
 31
0.0
  0
LINE
  5
A6
100
AcDbEntity
100
AcDbLine
  8
arbre_bras3
 62
256
370
-1
 48
1.0
  6
BYLAYER
 10
334.5000000000001137
 20
292.694215545856423
 30
0.0
 11
258.8872834956825955
 21
292.694215545856423
 31
0.0
  0
LINE
  5
A7
100
AcDbEntity
100
AcDbLine
  8
arbre_support_leds2
 62
256
370
-1
 48
1.0
  6
BYLAYER
 10
280.6055625968625691
 20
332.5288887729105909
 30
0.0
 11
294.9066057079930943
 21
332.5288887729105909
 31
0.0
  0
LINE
  5
A8
100
AcDbEntity
100
AcDbLine
  8
arbre_support_leds2
 62
256
370
-1
 48
1.0
  6
BYLAYER
 10
294.9066057079930943
 20
344.5288887729105909
 30
0.0
 11
280.6055625968625691
 21
332.5288887729105909
 31
0.0
  0
LINE
  5
A9
100
AcDbEntity
100
AcDbLine
  8
arbre_support_leds2
 62
256
370
-1
 48
1.0
  6
BYLAYER
 10
256.7713597271809931
 20
280.694215545856423
 30
0.0
 11
271.6942266677522753
 21
280.694215545856423
 31
0.0
  0
LINE
  5
AA
100
AcDbEntity
100
AcDbLine
  8
arbre_support_leds2
 62
256
370
-1
 48
1.0
  6
BYLAYER
 10
258.8872834956825386
 20
292.6942155458563661
 30
0.0
 11
256.7713597271809931
 21
280.694215545856423
 31
0.0
  0
LINE
  5
AB
100
AcDbEntity
100
AcDbLine
  8
arbre_support_leds2
 62
256
370
-1
 48
1.0
  6
BYLAYER
 10
271.6942266677522184
 20
292.6942155458563093
 30
0.0
 11
258.8872834956825386
 21
292.6942155458563661
 31
0.0
  0
LINE
  5
AC
100
AcDbEntity
100
AcDbLine
  8
arbre_support_leds2
 62
256
370
-1
 48
1.0
  6
BYLAYER
 10
294.9066057079930943
 20
332.5288887729105909
 30
0.0
 11
294.9066057079930943
 21
344.5288887729105909
 31
0.0
  0
LINE
  5
AD
100
AcDbEntity
100
AcDbLine
  8
arbre_support_leds2
 62
256
370
-1
 48
1.0
  6
BYLAYER
 10
271.6942266677522753
 20
280.6942155458563661
 30
0.0
 11
271.6942266677521616
 21
292.6942155458564798
 31
0.0
  0
LINE
  5
AE
100
AcDbEntity
100
AcDbLine
  8
arbre_support_leds2
 62
256
370
-1
 48
1.0
  6
BYLAYER
 10
271.6868787839993047
 20
221.7500000000000568
 30
0.0
 11
278.9851728618275502
 21
221.7500000000000284
 31
0.0
  0
LINE
  5
AF
100
AcDbEntity
100
AcDbLine
  8
arbre_support_leds2
 62
256
370
-1
 48
1.0
  6
BYLAYER
 10
264.7586755537238332
 20
233.7500000000000284
 30
0.0
 11
271.6868787839993047
 21
221.7500000000000568
 31
0.0
  0
LINE
  5
B0
100
AcDbEntity
100
AcDbLine
  8
arbre_support_leds2
 62
256
370
-1
 48
1.0
  6
BYLAYER
 10
278.9851728618275502
 20
233.75
 30
0.0
 11
264.7586755537238332
 21
233.7500000000000284
 31
0.0
  0
LINE
  5
B1
100
AcDbEntity
100
AcDbLine
  8
arbre_support_leds2
 62
256
370
-1
 48
1.0
  6
BYLAYER
 10
278.9851728618275502
 20
221.7500000000000568
 30
0.0
 11
278.985172861827607
 21
233.7500000000000568
 31
0.0
  0
LINE
  5
B2
100
AcDbEntity
100
AcDbLine
  8
arbre_support_leds2
 62
256
370
-1
 48
1.0
  6
BYLAYER
 10
407.3944374031373741
 20
332.5288887729105909
 30
0.0
 11
393.0933942920069057
 21
332.5288887729105909
 31
0.0
  0
LINE
  5
B3
100
AcDbEntity
100
AcDbLine
  8
arbre_support_leds2
 62
256
370
-1
 48
1.0
  6
BYLAYER
 10
393.0933942920068489
 20
344.5288887729105909
 30
0.0
 11
407.3944374031373741
 21
332.5288887729105909
 31
0.0
  0
LINE
  5
B4
100
AcDbEntity
100
AcDbLine
  8
arbre_support_leds2
 62
256
370
-1
 48
1.0
  6
BYLAYER
 10
431.2286402728189501
 20
280.694215545856423
 30
0.0
 11
416.3057733322476679
 21
280.694215545856423
 31
0.0
  0
LINE
  5
B5
100
AcDbEntity
100
AcDbLine
  8
arbre_support_leds2
 62
256
370
-1
 48
1.0
  6
BYLAYER
 10
429.1127165043173477
 20
292.6942155458563093
 30
0.0
 11
431.2286402728189501
 21
280.694215545856423
 31
0.0
  0
LINE
  5
B6
100
AcDbEntity
100
AcDbLine
  8
arbre_support_leds2
 62
256
370
-1
 48
1.0
  6
BYLAYER
 10
416.3057733322477247
 20
292.6942155458563093
 30
0.0
 11
429.1127165043173477
 21
292.6942155458563093
 31
0.0
  0
LINE
  5
B7
100
AcDbEntity
100
AcDbLine
  8
arbre_support_leds2
 62
256
370
-1
 48
1.0
  6
BYLAYER
 10
393.0933942920069057
 20
332.5288887729105909
 30
0.0
 11
393.0933942920068489
 21
344.5288887729105909
 31
0.0
  0
LINE
  5
B8
100
AcDbEntity
100
AcDbLine
  8
arbre_support_leds2
 62
256
370
-1
 48
1.0
  6
BYLAYER
 10
416.3057733322477247
 20
280.694215545856423
 30
0.0
 11
416.3057733322477816
 21
292.694215545856423
 31
0.0
  0
LINE
  5
B9
100
AcDbEntity
100
AcDbLine
  8
arbre_support_leds2
 62
256
370
-1
 48
1.0
  6
BYLAYER
 10
416.3131212160005816
 20
221.75
 30
0.0
 11
409.0148271381723362
 21
221.75
 31
0.0
  0
LINE
  5
BA
100
AcDbEntity
100
AcDbLine
  8
arbre_support_leds2
 62
256
370
-1
 48
1.0
  6
BYLAYER
 10
423.2413244462761099
 20
233.75
 30
0.0
 11
416.3131212160005816
 21
221.75
 31
0.0
  0
LINE
  5
BB
100
AcDbEntity
100
AcDbLine
  8
arbre_support_leds2
 62
256
370
-1
 48
1.0
  6
BYLAYER
 10
409.0148271381723362
 20
233.7500000000000284
 30
0.0
 11
423.2413244462761099
 21
233.75
 31
0.0
  0
LINE
  5
BC
100
AcDbEntity
100
AcDbLine
  8
arbre_support_leds2
 62
256
370
-1
 48
1.0
  6
BYLAYER
 10
409.0148271381723362
 20
221.7500000000000568
 30
0.0
 11
409.0148271381723362
 21
233.7500000000000568
 31
0.0
  0
LINE
  5
BD
100
AcDbEntity
100
AcDbLine
  8
arbre_tron
 62
256
370
-1
 48
1.0
  6
BYLAYER
 10
117.973209439561316
 20
121.0
 30
0.0
 11
127.9732094395612876
 21
121.0
 31
0.0
  0
ARC
  5
BE
100
AcDbEntity
  8
arbre_tron
 62
256
370
-1
 48
1.0
  6
BYLAYER
100
AcDbCircle
 10
159.973209439561316
 20
120.9999999999999432
 30
0.0
 40
7.0
100
AcDbArc
 50
270.0
 51
0.0
  0
ARC
  5
BF
100
AcDbEntity
  8
arbre_tron
 62
256
370
-1
 48
1.0
  6
BYLAYER
100
AcDbCircle
 10
159.9732094395612592
 20
107.0
 30
0.0
 40
7.0
100
AcDbArc
 50
90.0
 51
180.0
  0
LINE
  5
C0
100
AcDbEntity
100
AcDbLine
  8
arbre_tron
 62
256
370
-1
 48
1.0
  6
BYLAYER
 10
127.9732094395612592
 20
62.0875000000000057
 30
0.0
 11
117.9732094395612307
 21
62.0875000000000057
 31
0.0
  0
LINE
  5
C1
100
AcDbEntity
100
AcDbLine
  8
arbre_tron
 62
256
370
-1
 48
1.0
  6
BYLAYER
 10
152.9732094395612307
 20
31.471111227089402
 30
0.0
 11
146.9732094395612592
 21
31.471111227089402
 31
0.0
  0
LINE
  5
C2
100
AcDbEntity
100
AcDbLine
  8
arbre_tron
 62
256
370
-1
 48
1.0
  6
BYLAYER
 10
152.9732094395612592
 20
83.305784454143577
 30
0.0
 11
146.9732094395612592
 21
83.305784454143577
 31
0.0
  0
LINE
  5
C3
100
AcDbEntity
100
AcDbLine
  8
arbre_tron
 62
256
370
-1
 48
1.0
  6
BYLAYER
 10
98.9732094395612592
 20
31.4711112270893878
 30
0.0
 11
92.9732094395612449
 21
31.471111227089402
 31
0.0
  0
LINE
  5
C4
100
AcDbEntity
100
AcDbLine
  8
arbre_tron
 62
256
370
-1
 48
1.0
  6
BYLAYER
 10
98.9732094395612734
 20
83.3057844541436054
 30
0.0
 11
92.9732094395612449
 21
83.305784454143577
 31
0.0
  0
LINE
  5
C5
100
AcDbEntity
100
AcDbLine
  8
arbre_tron
 62
256
370
-1
 48
1.0
  6
BYLAYER
 10
166.973209439561316
 20
142.2499999999999432
 30
0.0
 11
160.9732094395612592
 21
142.2499999999999716
 31
0.0
  0
LINE
  5
C6
100
AcDbEntity
100
AcDbLine
  8
arbre_tron
 62
256
370
-1
 48
1.0
  6
BYLAYER
 10
84.9732094395613018
 20
142.25
 30
0.0
 11
78.9732094395612734
 21
142.25
 31
0.0
  0
LINE
  5
C7
100
AcDbEntity
100
AcDbLine
  8
arbre_tron
 62
256
370
-1
 48
1.0
  6
BYLAYER
 10
152.9732094395612307
 20
36.4711112270893878
 30
0.0
 11
146.9732094395612592
 21
36.471111227089402
 31
0.0
  0
LINE
  5
C8
100
AcDbEntity
100
AcDbLine
  8
arbre_tron
 62
256
370
-1
 48
1.0
  6
BYLAYER
 10
98.9732094395612449
 20
36.471111227089402
 30
0.0
 11
92.9732094395612449
 21
36.471111227089402
 31
0.0
  0
LINE
  5
C9
100
AcDbEntity
100
AcDbLine
  8
arbre_tron
 62
256
370
-1
 48
1.0
  6
BYLAYER
 10
166.973209439561316
 20
147.2499999999999432
 30
0.0
 11
160.9732094395612592
 21
147.2499999999999716
 31
0.0
  0
LINE
  5
CA
100
AcDbEntity
100
AcDbLine
  8
arbre_tron
 62
256
370
-1
 48
1.0
  6
BYLAYER
 10
84.9732094395613302
 20
147.25
 30
0.0
 11
78.9732094395613444
 21
147.25
 31
0.0
  0
LINE
  5
CB
100
AcDbEntity
100
AcDbLine
  8
arbre_tron
 62
256
370
-1
 48
1.0
  6
BYLAYER
 10
146.9732094395612592
 20
36.471111227089402
 30
0.0
 11
146.9732094395612592
 21
31.471111227089402
 31
0.0
  0
LINE
  5
CC
100
AcDbEntity
100
AcDbLine
  8
arbre_tron
 62
256
370
-1
 48
1.0
  6
BYLAYER
 10
146.9732094395612592
 20
88.305784454143577
 30
0.0
 11
146.9732094395612592
 21
83.305784454143577
 31
0.0
  0
LINE
  5
CD
100
AcDbEntity
100
AcDbLine
  8
arbre_tron
 62
256
370
-1
 48
1.0
  6
BYLAYER
 10
146.9732094395612592
 20
88.305784454143577
 30
0.0
 11
152.9732094395612592
 21
88.305784454143577
 31
0.0
  0
LINE
  5
CE
100
AcDbEntity
100
AcDbLine
  8
arbre_tron
 62
256
370
-1
 48
1.0
  6
BYLAYER
 10
127.9732094395612876
 20
121.0
 30
0.0
 11
117.9732094395612592
 21
121.0
 31
0.0
  0
LINE
  5
CF
100
AcDbEntity
100
AcDbLine
  8
arbre_tron
 62
256
370
-1
 48
1.0
  6
BYLAYER
 10
152.9732094395612592
 20
106.9999999999999716
 30
0.0
 11
152.9732094395612592
 21
88.305784454143577
 31
0.0
  0
ARC
  5
D0
100
AcDbEntity
  8
arbre_tron
 62
256
370
-1
 48
1.0
  6
BYLAYER
100
AcDbCircle
 10
122.9732094395602644
 20
60.5
 30
0.0
 40
62.8358165275122147
100
AcDbArc
 50
241.482007350402597
 51
254.3285935780102704
  0
LINE
  5
D1
100
AcDbEntity
100
AcDbLine
  8
arbre_tron
 62
256
370
-1
 48
1.0
  6
BYLAYER
 10
152.9732094395612592
 20
83.305784454143577
 30
0.0
 11
152.9732094395612307
 21
36.4711112270893878
 31
0.0
  0
ARC
  5
D2
100
AcDbEntity
  8
arbre_tron
 62
256
370
-1
 48
1.0
  6
BYLAYER
100
AcDbCircle
 10
85.9732094395612307
 20
121.0
 30
0.0
 40
7.0
100
AcDbArc
 50
180.0
 51
270.0
  0
LINE
  5
D3
100
AcDbEntity
100
AcDbLine
  8
arbre_tron
 62
256
370
-1
 48
1.0
  6
BYLAYER
 10
152.9732094395612307
 20
31.471111227089402
 30
0.0
 11
152.9732094395612023
 21
5.288227354312788
 31
0.0
  0
ARC
  5
D4
100
AcDbEntity
  8
arbre_tron
 62
256
370
-1
 48
1.0
  6
BYLAYER
100
AcDbCircle
 10
85.9732094395612876
 20
107.0000000000000284
 30
0.0
 40
7.0
100
AcDbArc
 50
0.0
 51
90.0
  0
LINE
  5
D5
100
AcDbEntity
100
AcDbLine
  8
arbre_tron
 62
256
370
-1
 48
1.0
  6
BYLAYER
 10
92.9732094395612449
 20
31.471111227089402
 30
0.0
 11
92.9732094395612165
 21
5.2882273543128164
 31
0.0
  0
LINE
  5
D6
100
AcDbEntity
100
AcDbLine
  8
arbre_tron
 62
256
370
-1
 48
1.0
  6
BYLAYER
 10
78.9732094395613586
 20
164.0000000000000568
 30
0.0
 11
103.9732094395613444
 21
164.0
 31
0.0
  0
LINE
  5
D7
100
AcDbEntity
100
AcDbLine
  8
arbre_tron
 62
256
370
-1
 48
1.0
  6
BYLAYER
 10
98.9732094395612449
 20
36.471111227089402
 30
0.0
 11
98.9732094395612592
 21
31.4711112270893878
 31
0.0
  0
LINE
  5
D8
100
AcDbEntity
100
AcDbLine
  8
arbre_tron
 62
256
370
-1
 48
1.0
  6
BYLAYER
 10
103.9732094395613444
 20
164.0
 30
0.0
 11
103.9732094395613728
 21
121.0000000000000284
 31
0.0
  0
LINE
  5
D9
100
AcDbEntity
100
AcDbLine
  8
arbre_tron
 62
256
370
-1
 48
1.0
  6
BYLAYER
 10
98.9732094395612449
 20
88.305784454143577
 30
0.0
 11
98.9732094395612734
 21
83.3057844541436054
 31
0.0
  0
LINE
  5
DA
100
AcDbEntity
100
AcDbLine
  8
arbre_tron
 62
256
370
-1
 48
1.0
  6
BYLAYER
 10
103.9732094395613728
 20
121.0000000000000284
 30
0.0
 11
117.9732094395612592
 21
121.0
 31
0.0
  0
LINE
  5
DB
100
AcDbEntity
100
AcDbLine
  8
arbre_tron
 62
256
370
-1
 48
1.0
  6
BYLAYER
 10
92.9732094395612592
 20
107.0
 30
0.0
 11
92.9732094395612592
 21
88.3057844541436054
 31
0.0
  0
LINE
  5
DC
100
AcDbEntity
100
AcDbLine
  8
arbre_tron
 62
256
370
-1
 48
1.0
  6
BYLAYER
 10
92.9732094395612592
 20
83.305784454143577
 30
0.0
 11
92.9732094395612449
 21
36.4711112270894446
 31
0.0
  0
LINE
  5
DD
100
AcDbEntity
100
AcDbLine
  8
arbre_tron
 62
256
370
-1
 48
1.0
  6
BYLAYER
 10
117.9732094395612307
 20
-0.0000000000000142
 30
0.0
 11
106.000000000004718
 21
0.0
 31
0.0
  0
LINE
  5
DE
100
AcDbEntity
100
AcDbLine
  8
arbre_tron
 62
256
370
-1
 48
1.0
  6
BYLAYER
 10
98.9732094395612876
 20
88.3057844541436054
 30
0.0
 11
92.9732094395612592
 21
88.3057844541436054
 31
0.0
  0
LINE
  5
DF
100
AcDbEntity
100
AcDbLine
  8
arbre_tron
 62
256
370
-1
 48
1.0
  6
BYLAYER
 10
166.9732094395612592
 20
121.0
 30
0.0
 11
166.973209439561316
 21
142.2499999999999432
 31
0.0
  0
LINE
  5
E0
100
AcDbEntity
100
AcDbLine
  8
arbre_tron
 62
256
370
-1
 48
1.0
  6
BYLAYER
 10
166.973209439561316
 20
147.2499999999999432
 30
0.0
 11
166.9732094395612023
 21
164.0
 31
0.0
  0
LINE
  5
E1
100
AcDbEntity
100
AcDbLine
  8
arbre_tron
 62
256
370
-1
 48
1.0
  6
BYLAYER
 10
160.9732094395612592
 20
142.2499999999999432
 30
0.0
 11
160.9732094395612592
 21
147.2499999999999716
 31
0.0
  0
LINE
  5
E2
100
AcDbEntity
100
AcDbLine
  8
arbre_tron
 62
256
370
-1
 48
1.0
  6
BYLAYER
 10
84.9732094395613018
 20
142.25
 30
0.0
 11
84.9732094395613302
 21
147.25
 31
0.0
  0
LINE
  5
E3
100
AcDbEntity
100
AcDbLine
  8
arbre_tron
 62
256
370
-1
 48
1.0
  6
BYLAYER
 10
78.9732094395612592
 20
121.0000000000000284
 30
0.0
 11
78.9732094395612734
 21
142.25
 31
0.0
  0
LINE
  5
E4
100
AcDbEntity
100
AcDbLine
  8
arbre_tron
 62
256
370
-1
 48
1.0
  6
BYLAYER
 10
78.9732094395613444
 20
147.25
 30
0.0
 11
78.9732094395613586
 21
164.0000000000000568
 31
0.0
  0
CIRCLE
  5
E5
100
AcDbEntity
100
AcDbCircle
  8
arbre_tron
 62
256
370
-1
 48
1.0
  6
BYLAYER
 10
105.4732094395612592
 20
77.305784454143577
 30
0.0
 40
1.5
  0
CIRCLE
  5
E6
100
AcDbEntity
100
AcDbCircle
  8
arbre_tron
 62
256
370
-1
 48
1.0
  6
BYLAYER
 10
105.4732094395612449
 20
25.471111227089402
 30
0.0
 40
1.5
  0
CIRCLE
  5
E7
100
AcDbEntity
100
AcDbCircle
  8
arbre_tron
 62
256
370
-1
 48
1.0
  6
BYLAYER
 10
91.4732094395613018
 20
136.25
 30
0.0
 40
1.5
  0
CIRCLE
  5
E8
100
AcDbEntity
100
AcDbCircle
  8
arbre_tron
 62
256
370
-1
 48
1.0
  6
BYLAYER
 10
140.4732094395612876
 20
77.305784454143577
 30
0.0
 40
1.5
  0
CIRCLE
  5
E9
100
AcDbEntity
100
AcDbCircle
  8
arbre_tron
 62
256
370
-1
 48
1.0
  6
BYLAYER
 10
140.4732094395612592
 20
25.471111227089402
 30
0.0
 40
1.5
  0
CIRCLE
  5
EA
100
AcDbEntity
100
AcDbCircle
  8
arbre_tron
 62
256
370
-1
 48
1.0
  6
BYLAYER
 10
154.4732094395612592
 20
136.25
 30
0.0
 40
1.5
  0
LINE
  5
EB
100
AcDbEntity
100
AcDbLine
  8
arbre_tron
 62
256
370
-1
 48
1.0
  6
BYLAYER
 10
166.9732094395612023
 20
164.0
 30
0.0
 11
141.973209439561316
 21
163.9999999999999716
 31
0.0
  0
LINE
  5
EC
100
AcDbEntity
100
AcDbLine
  8
arbre_tron
 62
256
370
-1
 48
1.0
  6
BYLAYER
 10
141.973209439561316
 20
163.9999999999999716
 30
0.0
 11
141.973209439561316
 21
121.0
 31
0.0
  0
LINE
  5
ED
100
AcDbEntity
100
AcDbLine
  8
arbre_tron
 62
256
370
-1
 48
1.0
  6
BYLAYER
 10
141.973209439561316
 20
121.0
 30
0.0
 11
127.9732094395612876
 21
121.0
 31
0.0
  0
LINE
  5
EE
100
AcDbEntity
100
AcDbLine
  8
arbre_tron
 62
256
370
-1
 48
1.0
  6
BYLAYER
 10
127.9732094395612592
 20
-0.0000000000000071
 30
0.0
 11
139.9464188791177719
 21
0.0000000000000284
 31
0.0
  0
ARC
  5
EF
100
AcDbEntity
  8
arbre_tron
 62
256
370
-1
 48
1.0
  6
BYLAYER
100
AcDbCircle
 10
122.9732094395602644
 20
60.5
 30
0.0
 40
62.8358165275122147
100
AcDbArc
 50
285.6714064219897864
 51
298.5179926495974883
  0
LINE
  5
F0
100
AcDbEntity
100
AcDbLine
  8
arbre_tron
 62
256
370
-1
 48
1.0
  6
BYLAYER
 10
38.9999999999999716
 20
43.0
 30
0.0
 11
38.9999999999999716
 21
105.0875000000000057
 31
0.0
  0
LINE
  5
F1
100
AcDbEntity
100
AcDbLine
  8
arbre_tron
 62
256
370
-1
 48
1.0
  6
BYLAYER
 10
48.9999999999999929
 20
43.0
 30
0.0
 11
48.9999999999999787
 21
105.0875000000000057
 31
0.0
  0
LINE
  5
F2
100
AcDbEntity
100
AcDbLine
  8
arbre_tron
 62
256
370
-1
 48
1.0
  6
BYLAYER
 10
117.9732094395612449
 20
62.0875000000000057
 30
0.0
 11
117.9732094395612307
 21
-0.0000000000000142
 31
0.0
  0
LINE
  5
F3
100
AcDbEntity
100
AcDbLine
  8
arbre_tron
 62
256
370
-1
 48
1.0
  6
BYLAYER
 10
127.9732094395612876
 20
62.0875000000000057
 30
0.0
 11
127.9732094395612592
 21
-0.0000000000000071
 31
0.0
  0
CIRCLE
  5
F4
100
AcDbEntity
100
AcDbCircle
  8
branche_h4
 62
256
370
-1
 48
1.0
  6
BYLAYER
 10
157.0
 20
176.0
 30
0.0
 40
1.5
  0
LINE
  5
F5
100
AcDbEntity
100
AcDbLine
  8
branche_h4
 62
256
370
-1
 48
1.0
  6
BYLAYER
 10
111.1055625968625691
 20
182.0
 30
0.0
 11
125.4066057079930943
 21
170.0
 31
0.0
  0
ARC
  5
F6
100
AcDbEntity
  8
branche_h4
 62
256
370
-1
 48
1.0
  6
BYLAYER
100
AcDbCircle
 10
157.0
 20
176.0
 30
0.0
 40
10.0
100
AcDbArc
 50
323.1301023541557811
 51
36.8698976458442189
  0
LINE
  5
F7
100
AcDbEntity
100
AcDbLine
  8
branche_h4
 62
256
370
-1
 48
1.0
  6
BYLAYER
 10
164.9999999999999432
 20
170.0
 30
0.0
 11
125.4066057079930943
 21
170.0
 31
0.0
  0
LINE
  5
F8
100
AcDbEntity
100
AcDbLine
  8
branche_h4
 62
256
370
-1
 48
1.0
  6
BYLAYER
 10
164.9999999999999432
 20
182.0
 30
0.0
 11
111.1055625968625691
 21
182.0
 31
0.0
  0
CIRCLE
  5
F9
100
AcDbEntity
100
AcDbCircle
  8
branche_b4
 62
256
370
-1
 48
1.0
  6
BYLAYER
 10
10.2713597271810499
 20
247.9999999999996874
 30
0.0
 40
1.5
  0
LINE
  5
FA
100
AcDbEntity
100
AcDbLine
  8
branche_b4
 62
256
370
-1
 48
1.0
  6
BYLAYER
 10
51.0844809431816316
 20
241.9999999999997158
 30
0.0
 11
58.0126841734571386
 21
253.9999999999997442
 31
0.0
  0
ARC
  5
FB
100
AcDbEntity
  8
branche_b4
 62
256
370
-1
 48
1.0
  6
BYLAYER
100
AcDbCircle
 10
10.2713597271810499
 20
247.9999999999996874
 30
0.0
 40
10.0
100
AcDbArc
 50
143.1301023541563779
 51
216.8698976458436221
  0
LINE
  5
FC
100
AcDbEntity
100
AcDbLine
  8
branche_b4
 62
256
370
-1
 48
1.0
  6
BYLAYER
 10
2.2713597271809309
 20
253.9999999999996874
 30
0.0
 11
58.0126841734571386
 21
253.9999999999997442
 31
0.0
  0
LINE
  5
FD
100
AcDbEntity
100
AcDbLine
  8
branche_b4
 62
256
370
-1
 48
1.0
  6
BYLAYER
 10
2.2713597271810499
 20
241.9999999999996874
 30
0.0
 11
51.0844809431816316
 21
241.9999999999997158
 31
0.0
  0
CIRCLE
  5
FE
100
AcDbEntity
100
AcDbCircle
  8
branche_b1
 62
256
370
-1
 48
1.0
  6
BYLAYER
 10
157.0000000000000853
 20
248.0000000000001421
 30
0.0
 40
1.5
  0
LINE
  5
FF
100
AcDbEntity
100
AcDbLine
  8
branche_b1
 62
256
370
-1
 48
1.0
  6
BYLAYER
 10
116.1868787839995036
 20
254.0000000000001421
 30
0.0
 11
109.2586755537239753
 21
242.0000000000001421
 31
0.0
  0
ARC
  5
100
100
AcDbEntity
  8
branche_b1
 62
256
370
-1
 48
1.0
  6
BYLAYER
100
AcDbCircle
 10
157.0000000000000853
 20
248.0000000000001421
 30
0.0
 40
10.0
100
AcDbArc
 50
323.1301023541564064
 51
36.8698976458436078
  0
LINE
  5
101
100
AcDbEntity
100
AcDbLine
  8
branche_b1
 62
256
370
-1
 48
1.0
  6
BYLAYER
 10
165.000000000000199
 20
242.0000000000001421
 30
0.0
 11
109.2586755537239753
 21
242.0000000000001421
 31
0.0
  0
LINE
  5
102
100
AcDbEntity
100
AcDbLine
  8
branche_b1
 62
256
370
-1
 48
1.0
  6
BYLAYER
 10
165.0000000000000853
 20
254.0000000000001421
 30
0.0
 11
116.1868787839995036
 21
254.0000000000001421
 31
0.0
  0
CIRCLE
  5
103
100
AcDbEntity
100
AcDbCircle
  8
branche_m2
 62
256
370
-1
 48
1.0
  6
BYLAYER
 10
10.2713597271810499
 20
194.0
 30
0.0
 40
1.5
  0
LINE
  5
104
100
AcDbEntity
100
AcDbLine
  8
branche_m2
 62
256
370
-1
 48
1.0
  6
BYLAYER
 10
80.0
 20
188.0
 30
0.0
 11
77.8840762314983976
 21
200.0
 31
0.0
  0
LINE
  5
105
100
AcDbEntity
100
AcDbLine
  8
branche_m2
 62
256
370
-1
 48
1.0
  6
BYLAYER
 10
2.2713597271809363
 20
200.0
 30
0.0
 11
77.8840762314983976
 21
200.0
 31
0.0
  0
ARC
  5
106
100
AcDbEntity
  8
branche_m2
 62
256
370
-1
 48
1.0
  6
BYLAYER
100
AcDbCircle
 10
10.2713597271810499
 20
194.0
 30
0.0
 40
10.0
100
AcDbArc
 50
143.13010235415598
 51
216.8698976458436221
  0
LINE
  5
107
100
AcDbEntity
100
AcDbLine
  8
branche_m2
 62
256
370
-1
 48
1.0
  6
BYLAYER
 10
2.2713597271809363
 20
188.0
 30
0.0
 11
80.0
 21
188.0
 31
0.0
  0
CIRCLE
  5
108
100
AcDbEntity
100
AcDbCircle
  8
branche_m1
 62
256
370
-1
 48
1.0
  6
BYLAYER
 10
10.0
 20
175.9999999999999716
 30
0.0
 40
1.5
  0
LINE
  5
109
100
AcDbEntity
100
AcDbLine
  8
branche_m1
 62
256
370
-1
 48
1.0
  6
BYLAYER
 10
79.7286402728189501
 20
169.9999999999999716
 30
0.0
 11
77.6127165043173477
 21
181.9999999999999716
 31
0.0
  0
LINE
  5
10A
100
AcDbEntity
100
AcDbLine
  8
branche_m1
 62
256
370
-1
 48
1.0
  6
BYLAYER
 10
1.9999999999998859
 20
181.9999999999999716
 30
0.0
 11
77.6127165043173477
 21
181.9999999999999716
 31
0.0
  0
ARC
  5
10B
100
AcDbEntity
  8
branche_m1
 62
256
370
-1
 48
1.0
  6
BYLAYER
100
AcDbCircle
 10
10.0
 20
175.9999999999999716
 30
0.0
 40
10.0
100
AcDbArc
 50
143.13010235415598
 51
216.8698976458436221
  0
LINE
  5
10C
100
AcDbEntity
100
AcDbLine
  8
branche_m1
 62
256
370
-1
 48
1.0
  6
BYLAYER
 10
1.9999999999998859
 20
169.9999999999999716
 30
0.0
 11
79.7286402728189501
 21
169.9999999999999716
 31
0.0
  0
CIRCLE
  5
10D
100
AcDbEntity
100
AcDbCircle
  8
branche_h3
 62
256
370
-1
 48
1.0
  6
BYLAYER
 10
157.0
 20
194.0
 30
0.0
 40
1.5
  0
LINE
  5
10E
100
AcDbEntity
100
AcDbLine
  8
branche_h3
 62
256
370
-1
 48
1.0
  6
BYLAYER
 10
111.1055625968625691
 20
200.0
 30
0.0
 11
125.4066057079930943
 21
188.0
 31
0.0
  0
ARC
  5
10F
100
AcDbEntity
  8
branche_h3
 62
256
370
-1
 48
1.0
  6
BYLAYER
100
AcDbCircle
 10
157.0
 20
194.0
 30
0.0
 40
10.0
100
AcDbArc
 50
323.1301023541557811
 51
36.8698976458442189
  0
LINE
  5
110
100
AcDbEntity
100
AcDbLine
  8
branche_h3
 62
256
370
-1
 48
1.0
  6
BYLAYER
 10
164.9999999999999432
 20
187.9999999999999716
 30
0.0
 11
125.4066057079930943
 21
188.0
 31
0.0
  0
LINE
  5
111
100
AcDbEntity
100
AcDbLine
  8
branche_h3
 62
256
370
-1
 48
1.0
  6
BYLAYER
 10
164.9999999999999432
 20
200.0
 30
0.0
 11
111.1055625968625691
 21
200.0
 31
0.0
  0
CIRCLE
  5
112
100
AcDbEntity
100
AcDbCircle
  8
branche_h2
 62
256
370
-1
 48
1.0
  6
BYLAYER
 10
10.2713597271810499
 20
230.0
 30
0.0
 40
1.5
  0
LINE
  5
113
100
AcDbEntity
100
AcDbLine
  8
branche_h2
 62
256
370
-1
 48
1.0
  6
BYLAYER
 10
56.1657971303184809
 20
224.0
 30
0.0
 11
41.8647540191879557
 21
236.0
 31
0.0
  0
ARC
  5
114
100
AcDbEntity
  8
branche_h2
 62
256
370
-1
 48
1.0
  6
BYLAYER
100
AcDbCircle
 10
10.2713597271810499
 20
230.0
 30
0.0
 40
10.0
100
AcDbArc
 50
143.1301023541557527
 51
216.8698976458442473
  0
LINE
  5
115
100
AcDbEntity
100
AcDbLine
  8
branche_h2
 62
256
370
-1
 48
1.0
  6
BYLAYER
 10
2.271359727181093
 20
236.0
 30
0.0
 11
41.8647540191879557
 21
236.0
 31
0.0
  0
LINE
  5
116
100
AcDbEntity
100
AcDbLine
  8
branche_h2
 62
256
370
-1
 48
1.0
  6
BYLAYER
 10
2.271359727181093
 20
224.0
 30
0.0
 11
56.1657971303184809
 21
224.0
 31
0.0
  0
CIRCLE
  5
117
100
AcDbEntity
100
AcDbCircle
  8
branche_h1
 62
256
370
-1
 48
1.0
  6
BYLAYER
 10
10.2713597271810517
 20
212.0
 30
0.0
 40
1.5
  0
LINE
  5
118
100
AcDbEntity
100
AcDbLine
  8
branche_h1
 62
256
370
-1
 48
1.0
  6
BYLAYER
 10
56.1657971303184809
 20
206.0
 30
0.0
 11
41.8647540191879557
 21
218.0
 31
0.0
  0
ARC
  5
119
100
AcDbEntity
  8
branche_h1
 62
256
370
-1
 48
1.0
  6
BYLAYER
100
AcDbCircle
 10
10.2713597271810517
 20
212.0
 30
0.0
 40
10.0
100
AcDbArc
 50
143.1301023541557527
 51
216.8698976458442473
  0
LINE
  5
11A
100
AcDbEntity
100
AcDbLine
  8
branche_h1
 62
256
370
-1
 48
1.0
  6
BYLAYER
 10
2.2713597271811086
 20
218.0
 30
0.0
 11
41.8647540191879557
 21
218.0
 31
0.0
  0
LINE
  5
11B
100
AcDbEntity
100
AcDbLine
  8
branche_h1
 62
256
370
-1
 48
1.0
  6
BYLAYER
 10
2.2713597271811086
 20
206.0
 30
0.0
 11
56.1657971303184809
 21
206.0
 31
0.0
  0
LINE
  5
11C
100
AcDbEntity
100
AcDbLine
  8
feuille_h1
 62
256
370
-1
 48
1.0
  6
BYLAYER
 10
123.3010431111304683
 20
152.0
 30
0.0
 11
109.0
 21
152.0
 31
0.0
  0
LINE
  5
11D
100
AcDbEntity
100
AcDbLine
  8
feuille_h1
 62
256
370
-1
 48
1.0
  6
BYLAYER
 10
108.9999999999999432
 20
164.0
 30
0.0
 11
123.3010431111304683
 21
152.0
 31
0.0
  0
LINE
  5
11E
100
AcDbEntity
100
AcDbLine
  8
feuille_h1
 62
256
370
-1
 48
1.0
  6
BYLAYER
 10
109.0
 20
152.0
 30
0.0
 11
108.9999999999999432
 21
164.0
 31
0.0
  0
LINE
  5
11F
100
AcDbEntity
100
AcDbLine
  8
feuille_h2
 62
256
370
-1
 48
1.0
  6
BYLAYER
 10
122.6989568888695317
 20
164.0
 30
0.0
 11
137.0
 21
164.0
 31
0.0
  0
LINE
  5
120
100
AcDbEntity
100
AcDbLine
  8
feuille_h2
 62
256
370
-1
 48
1.0
  6
BYLAYER
 10
137.0000000000000568
 20
152.0
 30
0.0
 11
122.6989568888695317
 21
164.0
 31
0.0
  0
LINE
  5
121
100
AcDbEntity
100
AcDbLine
  8
feuille_h2
 62
256
370
-1
 48
1.0
  6
BYLAYER
 10
137.0
 20
164.0
 30
0.0
 11
137.0000000000000568
 21
152.0
 31
0.0
  0
LINE
  5
122
100
AcDbEntity
100
AcDbLine
  8
feuille_h3
 62
256
370
-1
 48
1.0
  6
BYLAYER
 10
44.3010431111304683
 20
0.0
 30
0.0
 11
30.0
 21
0.0
 31
0.0
  0
LINE
  5
123
100
AcDbEntity
100
AcDbLine
  8
feuille_h3
 62
256
370
-1
 48
1.0
  6
BYLAYER
 10
29.9999999999999432
 20
12.0
 30
0.0
 11
44.3010431111304683
 21
0.0
 31
0.0
  0
LINE
  5
124
100
AcDbEntity
100
AcDbLine
  8
feuille_h3
 62
256
370
-1
 48
1.0
  6
BYLAYER
 10
30.0
 20
0.0
 30
0.0
 11
29.9999999999999432
 21
12.0
 31
0.0
  0
LINE
  5
125
100
AcDbEntity
100
AcDbLine
  8
feuille_h4
 62
256
370
-1
 48
1.0
  6
BYLAYER
 10
43.6989568888697448
 20
12.0000000000003268
 30
0.0
 11
58.0000000000002274
 21
12.0
 31
0.0
  0
LINE
  5
126
100
AcDbEntity
100
AcDbLine
  8
feuille_h4
 62
256
370
-1
 48
1.0
  6
BYLAYER
 10
58.0
 20
0.0
 30
0.0
 11
43.6989568888697448
 21
12.0000000000003268
 31
0.0
  0
LINE
  5
127
100
AcDbEntity
100
AcDbLine
  8
feuille_h4
 62
256
370
-1
 48
1.0
  6
BYLAYER
 10
58.0000000000002274
 20
12.0
 30
0.0
 11
58.0
 21
0.0
 31
0.0
  0
LINE
  5
128
100
AcDbEntity
100
AcDbLine
  8
feuille_m1
 62
256
370
-1
 48
1.0
  6
BYLAYER
 10
78.3137008489676987
 20
224.000000000000199
 30
0.0
 11
63.3908339083964165
 21
224.000000000000199
 31
0.0
  0
LINE
  5
129
100
AcDbEntity
100
AcDbLine
  8
feuille_m1
 62
256
370
-1
 48
1.0
  6
BYLAYER
 10
76.1977770804660963
 20
236.0000000000000853
 30
0.0
 11
78.3137008489676987
 21
224.000000000000199
 31
0.0
  0
LINE
  5
12A
100
AcDbEntity
100
AcDbLine
  8
feuille_m1
 62
256
370
-1
 48
1.0
  6
BYLAYER
 10
63.3908339083964734
 20
236.0000000000000853
 30
0.0
 11
76.1977770804660963
 21
236.0000000000000853
 31
0.0
  0
LINE
  5
12B
100
AcDbEntity
100
AcDbLine
  8
feuille_m1
 62
256
370
-1
 48
1.0
  6
BYLAYER
 10
63.3908339083964734
 20
224.000000000000199
 30
0.0
 11
63.3908339083965302
 21
236.000000000000199
 31
0.0
  0
LINE
  5
12C
100
AcDbEntity
100
AcDbLine
  8
feuille_m2
 62
256
370
-1
 48
1.0
  6
BYLAYER
 10
78.3137008489676987
 20
206.0000000000001705
 30
0.0
 11
63.3908339083964165
 21
206.0000000000001705
 31
0.0
  0
LINE
  5
12D
100
AcDbEntity
100
AcDbLine
  8
feuille_m2
 62
256
370
-1
 48
1.0
  6
BYLAYER
 10
76.1977770804660963
 20
218.0000000000000568
 30
0.0
 11
78.3137008489676987
 21
206.0000000000001705
 31
0.0
  0
LINE
  5
12E
100
AcDbEntity
100
AcDbLine
  8
feuille_m2
 62
256
370
-1
 48
1.0
  6
BYLAYER
 10
63.3908339083964734
 20
218.0000000000000568
 30
0.0
 11
76.1977770804660963
 21
218.0000000000000568
 31
0.0
  0
LINE
  5
12F
100
AcDbEntity
100
AcDbLine
  8
feuille_m2
 62
256
370
-1
 48
1.0
  6
BYLAYER
 10
63.3908339083964734
 20
206.0000000000001705
 30
0.0
 11
63.3908339083965302
 21
218.0000000000001705
 31
0.0
  0
LINE
  5
130
100
AcDbEntity
100
AcDbLine
  8
feuille_m3
 62
256
370
-1
 48
1.0
  6
BYLAYER
 10
103.0142147687168972
 20
188.0000000000001137
 30
0.0
 11
88.091347828145615
 21
188.0000000000001137
 31
0.0
  0
LINE
  5
131
100
AcDbEntity
100
AcDbLine
  8
feuille_m3
 62
256
370
-1
 48
1.0
  6
BYLAYER
 10
100.8982910002152948
 20
200.0
 30
0.0
 11
103.0142147687168972
 21
188.0000000000001137
 31
0.0
  0
LINE
  5
132
100
AcDbEntity
100
AcDbLine
  8
feuille_m3
 62
256
370
-1
 48
1.0
  6
BYLAYER
 10
88.0913478281456719
 20
200.0
 30
0.0
 11
100.8982910002152948
 21
200.0
 31
0.0
  0
LINE
  5
133
100
AcDbEntity
100
AcDbLine
  8
feuille_m3
 62
256
370
-1
 48
1.0
  6
BYLAYER
 10
88.0913478281456719
 20
188.0000000000001137
 30
0.0
 11
88.0913478281457287
 21
200.0000000000001137
 31
0.0
  0
LINE
  5
134
100
AcDbEntity
100
AcDbLine
  8
feuille_m4
 62
256
370
-1
 48
1.0
  6
BYLAYER
 10
102.9228669405711685
 20
170.0000000000001137
 30
0.0
 11
87.9999999999998863
 21
170.0000000000001137
 31
0.0
  0
LINE
  5
135
100
AcDbEntity
100
AcDbLine
  8
feuille_m4
 62
256
370
-1
 48
1.0
  6
BYLAYER
 10
100.8069431720695661
 20
182.0
 30
0.0
 11
102.9228669405711685
 21
170.0000000000001137
 31
0.0
  0
LINE
  5
136
100
AcDbEntity
100
AcDbLine
  8
feuille_m4
 62
256
370
-1
 48
1.0
  6
BYLAYER
 10
87.9999999999999432
 20
182.0
 30
0.0
 11
100.8069431720695661
 21
182.0
 31
0.0
  0
LINE
  5
137
100
AcDbEntity
100
AcDbLine
  8
feuille_m4
 62
256
370
-1
 48
1.0
  6
BYLAYER
 10
87.9999999999999432
 20
170.0000000000001137
 30
0.0
 11
88.0
 21
182.0000000000001137
 31
0.0
  0
LINE
  5
138
100
AcDbEntity
100
AcDbLine
  8
feuille_b1
 62
256
370
-1
 48
1.0
  6
BYLAYER
 10
129.7017059221717545
 20
138.0000000000000568
 30
0.0
 11
137.0
 21
138.0000000000000568
 31
0.0
  0
LINE
  5
139
100
AcDbEntity
100
AcDbLine
  8
feuille_b1
 62
256
370
-1
 48
1.0
  6
BYLAYER
 10
122.7735026918962262
 20
126.0000000000000568
 30
0.0
 11
129.7017059221717545
 21
138.0000000000000568
 31
0.0
  0
LINE
  5
13A
100
AcDbEntity
100
AcDbLine
  8
feuille_b1
 62
256
370
-1
 48
1.0
  6
BYLAYER
 10
137.0
 20
126.0
 30
0.0
 11
122.7735026918962262
 21
126.0000000000000568
 31
0.0
  0
LINE
  5
13B
100
AcDbEntity
100
AcDbLine
  8
feuille_b1
 62
256
370
-1
 48
1.0
  6
BYLAYER
 10
137.0
 20
138.0
 30
0.0
 11
137.0
 21
126.0
 31
0.0
  0
LINE
  5
13C
100
AcDbEntity
100
AcDbLine
  8
feuille_b2
 62
256
370
-1
 48
1.0
  6
BYLAYER
 10
116.2982940778282455
 20
126.0
 30
0.0
 11
109.0
 21
126.0
 31
0.0
  0
LINE
  5
13D
100
AcDbEntity
100
AcDbLine
  8
feuille_b2
 62
256
370
-1
 48
1.0
  6
BYLAYER
 10
123.2264973081037738
 20
138.0
 30
0.0
 11
116.2982940778282455
 21
126.0
 31
0.0
  0
LINE
  5
13E
100
AcDbEntity
100
AcDbLine
  8
feuille_b2
 62
256
370
-1
 48
1.0
  6
BYLAYER
 10
109.0
 20
138.0000000000000284
 30
0.0
 11
123.2264973081037738
 21
138.0
 31
0.0
  0
LINE
  5
13F
100
AcDbEntity
100
AcDbLine
  8
feuille_b2
 62
256
370
-1
 48
1.0
  6
BYLAYER
 10
109.0
 20
126.0000000000000568
 30
0.0
 11
109.0
 21
138.0000000000000568
 31
0.0
  0
LINE
  5
140
100
AcDbEntity
100
AcDbLine
  8
feuille_b4
 62
256
370
-1
 48
1.0
  6
BYLAYER
 10
37.2982940778282455
 20
25.9999999999999716
 30
0.0
 11
30.0
 21
25.9999999999999716
 31
0.0
  0
LINE
  5
141
100
AcDbEntity
100
AcDbLine
  8
feuille_b4
 62
256
370
-1
 48
1.0
  6
BYLAYER
 10
44.2264973081037738
 20
37.9999999999999716
 30
0.0
 11
37.2982940778282455
 21
25.9999999999999716
 31
0.0
  0
LINE
  5
142
100
AcDbEntity
100
AcDbLine
  8
feuille_b4
 62
256
370
-1
 48
1.0
  6
BYLAYER
 10
30.0
 20
38.0
 30
0.0
 11
44.2264973081037738
 21
37.9999999999999716
 31
0.0
  0
LINE
  5
143
100
AcDbEntity
100
AcDbLine
  8
feuille_b4
 62
256
370
-1
 48
1.0
  6
BYLAYER
 10
30.0
 20
26.0000000000000284
 30
0.0
 11
30.0
 21
38.0000000000000284
 31
0.0
  0
LINE
  5
144
100
AcDbEntity
100
AcDbLine
  8
feuille_b3
 62
256
370
-1
 48
1.0
  6
BYLAYER
 10
50.701705922171783
 20
38.0
 30
0.0
 11
58.0000000000000284
 21
38.0
 31
0.0
  0
LINE
  5
145
100
AcDbEntity
100
AcDbLine
  8
feuille_b3
 62
256
370
-1
 48
1.0
  6
BYLAYER
 10
43.7735026918962546
 20
25.9999999999999716
 30
0.0
 11
50.701705922171783
 21
38.0
 31
0.0
  0
LINE
  5
146
100
AcDbEntity
100
AcDbLine
  8
feuille_b3
 62
256
370
-1
 48
1.0
  6
BYLAYER
 10
58.0000000000000284
 20
25.9999999999999716
 30
0.0
 11
43.7735026918962546
 21
25.9999999999999716
 31
0.0
  0
LINE
  5
147
100
AcDbEntity
100
AcDbLine
  8
feuille_b3
 62
256
370
-1
 48
1.0
  6
BYLAYER
 10
58.0000000000000284
 20
37.9999999999999432
 30
0.0
 11
58.0
 21
25.9999999999999716
 31
0.0
  0
CIRCLE
  5
148
100
AcDbEntity
100
AcDbCircle
  8
branche_m4
 62
256
370
-1
 48
1.0
  6
BYLAYER
 10
157.0
 20
212.0000000000000853
 30
0.0
 40
1.5
  0
LINE
  5
149
100
AcDbEntity
100
AcDbLine
  8
branche_m4
 62
256
370
-1
 48
1.0
  6
BYLAYER
 10
87.2713597271810499
 20
218.0000000000000853
 30
0.0
 11
89.3872834956826523
 21
206.0000000000000853
 31
0.0
  0
LINE
  5
14A
100
AcDbEntity
100
AcDbLine
  8
branche_m4
 62
256
370
-1
 48
1.0
  6
BYLAYER
 10
165.0000000000001137
 20
206.0000000000000568
 30
0.0
 11
89.3872834956826523
 21
206.0000000000000853
 31
0.0
  0
ARC
  5
14B
100
AcDbEntity
  8
branche_m4
 62
256
370
-1
 48
1.0
  6
BYLAYER
100
AcDbCircle
 10
157.0
 20
212.0000000000000853
 30
0.0
 40
10.0
100
AcDbArc
 50
323.1301023541560085
 51
36.8698976458436078
  0
LINE
  5
14C
100
AcDbEntity
100
AcDbLine
  8
branche_m4
 62
256
370
-1
 48
1.0
  6
BYLAYER
 10
165.0000000000001137
 20
218.0000000000000853
 30
0.0
 11
87.2713597271810499
 21
218.0000000000000853
 31
0.0
  0
CIRCLE
  5
14D
100
AcDbEntity
100
AcDbCircle
  8
branche_m3
 62
256
370
-1
 48
1.0
  6
BYLAYER
 10
157.0000000000000853
 20
230.000000000000199
 30
0.0
 40
1.5
  0
LINE
  5
14E
100
AcDbEntity
100
AcDbLine
  8
branche_m3
 62
256
370
-1
 48
1.0
  6
BYLAYER
 10
87.2713597271810784
 20
236.0000000000001421
 30
0.0
 11
89.3872834956826807
 21
224.0000000000001421
 31
0.0
  0
LINE
  5
14F
100
AcDbEntity
100
AcDbLine
  8
branche_m3
 62
256
370
-1
 48
1.0
  6
BYLAYER
 10
165.000000000000199
 20
224.0000000000000853
 30
0.0
 11
89.3872834956826807
 21
224.0000000000001421
 31
0.0
  0
ARC
  5
150
100
AcDbEntity
  8
branche_m3
 62
256
370
-1
 48
1.0
  6
BYLAYER
100
AcDbCircle
 10
157.0000000000000853
 20
230.000000000000199
 30
0.0
 40
10.0
100
AcDbArc
 50
323.1301023541560085
 51
36.8698976458436078
  0
LINE
  5
151
100
AcDbEntity
100
AcDbLine
  8
branche_m3
 62
256
370
-1
 48
1.0
  6
BYLAYER
 10
165.000000000000199
 20
236.0000000000001421
 30
0.0
 11
87.2713597271810784
 21
236.0000000000001421
 31
0.0
  0
ARC
  5
152
100
AcDbEntity
  8
branche_b3
 62
256
370
-1
 48
1.0
  6
BYLAYER
100
AcDbCircle
 10
157.0000000000000853
 20
266.0000000000001137
 30
0.0
 40
10.0
100
AcDbArc
 50
323.1301023541564064
 51
36.8698976458436078
  0
LINE
  5
153
100
AcDbEntity
100
AcDbLine
  8
branche_b3
 62
256
370
-1
 48
1.0
  6
BYLAYER
 10
165.000000000000199
 20
260.0000000000001137
 30
0.0
 11
109.2586755537239753
 21
260.0000000000001137
 31
0.0
  0
LINE
  5
154
100
AcDbEntity
100
AcDbLine
  8
branche_b3
 62
256
370
-1
 48
1.0
  6
BYLAYER
 10
165.0000000000000853
 20
272.0000000000001137
 30
0.0
 11
116.1868787839995036
 21
272.0000000000001137
 31
0.0
  0
CIRCLE
  5
155
100
AcDbEntity
100
AcDbCircle
  8
branche_b3
 62
256
370
-1
 48
1.0
  6
BYLAYER
 10
157.0000000000000853
 20
266.0000000000001137
 30
0.0
 40
1.5
  0
LINE
  5
156
100
AcDbEntity
100
AcDbLine
  8
branche_b3
 62
256
370
-1
 48
1.0
  6
BYLAYER
 10
116.1868787839995036
 20
272.0000000000001137
 30
0.0
 11
109.2586755537239753
 21
260.0000000000001137
 31
0.0
  0
ARC
  5
157
100
AcDbEntity
  8
branche_b2
 62
256
370
-1
 48
1.0
  6
BYLAYER
100
AcDbCircle
 10
10.2713597271810499
 20
265.9999999999996589
 30
0.0
 40
10.0
100
AcDbArc
 50
143.1301023541563779
 51
216.8698976458436221
  0
LINE
  5
158
100
AcDbEntity
100
AcDbLine
  8
branche_b2
 62
256
370
-1
 48
1.0
  6
BYLAYER
 10
2.2713597271809358
 20
271.9999999999996589
 30
0.0
 11
58.0126841734571599
 21
271.9999999999996021
 31
0.0
  0
LINE
  5
159
100
AcDbEntity
100
AcDbLine
  8
branche_b2
 62
256
370
-1
 48
1.0
  6
BYLAYER
 10
2.2713597271810495
 20
259.9999999999996021
 30
0.0
 11
51.0844809431816316
 21
259.9999999999996589
 31
0.0
  0
CIRCLE
  5
15A
100
AcDbEntity
100
AcDbCircle
  8
branche_b2
 62
256
370
-1
 48
1.0
  6
BYLAYER
 10
10.2713597271810499
 20
265.9999999999996589
 30
0.0
 40
1.5
  0
LINE
  5
15B
100
AcDbEntity
100
AcDbLine
  8
branche_b2
 62
256
370
-1
 48
1.0
  6
BYLAYER
 10
51.0844809431816316
 20
259.9999999999996589
 30
0.0
 11
58.0126841734571599
 21
271.9999999999996021
 31
0.0
  0
LINE
  5
15C
100
AcDbEntity
100
AcDbLine
  8
separation
 62
256
370
-1
 48
1.0
  6
BYLAYER
 10
2.2713597271810499
 20
236.0
 30
0.0
 11
2.2713597271810499
 21
242.0
 31
0.0
  0
LINE
  5
15D
100
AcDbEntity
100
AcDbLine
  8
separation
 62
256
370
-1
 48
1.0
  6
BYLAYER
 10
165.0
 20
187.9999999999999716
 30
0.0
 11
165.0
 21
182.0
 31
0.0
  0
LINE
  5
15E
100
AcDbEntity
100
AcDbLine
  8
separation
 62
256
370
-1
 48
1.0
  6
BYLAYER
 10
2.2713597271810504
 20
200.0
 30
0.0
 11
2.2713597271810504
 21
206.0
 31
0.0
  0
LINE
  5
15F
100
AcDbEntity
100
AcDbLine
  8
separation
 62
256
370
-1
 48
1.0
  6
BYLAYER
 10
2.2713597271810508
 20
218.0
 30
0.0
 11
2.2713597271810508
 21
224.0
 31
0.0
  0
LINE
  5
160
100
AcDbEntity
100
AcDbLine
  8
separation
 62
256
370
-1
 48
1.0
  6
BYLAYER
 10
165.0736100983667143
 20
236.2404361027653863
 30
0.0
 11
165.0736100983667143
 21
242.2404361027653863
 31
0.0
  0
LINE
  5
161
100
AcDbEntity
100
AcDbLine
  8
separation
 62
256
370
-1
 48
1.0
  6
BYLAYER
 10
165.0000000000000853
 20
254.0000000000001421
 30
0.0
 11
165.0000000000000853
 21
260.0000000000001137
 31
0.0
  0
LINE
  5
162
100
AcDbEntity
100
AcDbLine
  8
separation
 62
256
370
-1
 48
1.0
  6
BYLAYER
 10
165.0000000000001137
 20
272.0000000000001137
 30
0.0
 11
165.0000000000001137
 21
278.0000000000001137
 31
0.0
  0
LINE
  5
163
100
AcDbEntity
100
AcDbLine
  8
separation
 62
256
370
-1
 48
1.0
  6
BYLAYER
 10
2.2713597271810499
 20
271.9999999999997158
 30
0.0
 11
2.2713597271810499
 21
277.9999999999997158
 31
0.0
  0
LINE
  5
164
100
AcDbEntity
100
AcDbLine
  8
separation
 62
256
370
-1
 48
1.0
  6
BYLAYER
 10
165.0
 20
200.0000000000000568
 30
0.0
 11
165.0
 21
206.0000000000000568
 31
0.0
  0
LINE
  5
165
100
AcDbEntity
100
AcDbLine
  8
separation
 62
256
370
-1
 48
1.0
  6
BYLAYER
 10
260.0
 20
150.0
 30
0.0
 11
260.0
 21
156.0
 31
0.0
  0
LINE
  5
166
100
AcDbEntity
100
AcDbLine
  8
separation
 62
256
370
-1
 48
1.0
  6
BYLAYER
 10
2.2713597271810513
 20
253.9999999999996874
 30
0.0
 11
2.2713597271810513
 21
259.9999999999996589
 31
0.0
  0
LINE
  5
167
100
AcDbEntity
100
AcDbLine
  8
separation
 62
256
370
-1
 48
1.0
  6
BYLAYER
 10
165.0
 20
218.0000000000000853
 30
0.0
 11
165.0
 21
224.0000000000000853
 31
0.0
  0
ENDSEC
  0
SECTION
  2
OBJECTS
  0
DICTIONARY
  5
C
100
AcDbDictionary
280
0
281
1
  3
ACAD_GROUP
350
D
  3
ACAD_LAYOUT
350
1A
  3
ACAD_MLINESTYLE
350
17
  3
ACAD_PLOTSETTINGS
350
19
  3
ACAD_PLOTSTYLENAME
350
E
  3
AcDbVariableDictionary
350
168
  3
QCAD_OBJECTS
350
169
  0
DICTIONARY
  5
D
100
AcDbDictionary
280
0
281
1
  0
ACDBDICTIONARYWDFLT
  5
E
100
AcDbDictionary
281
1
  3
Normal
350
F
100
AcDbDictionaryWithDefault
340
F
  0
ACDBPLACEHOLDER
  5
F
  0
DICTIONARY
  5
17
100
AcDbDictionary
280
0
281
1
  3
Standard
350
18
  0
MLINESTYLE
  5
18
100
AcDbMlineStyle
  2
STANDARD
 70
0
  3

 62
256
 51
90.0
 52
90.0
 71
2
 49
0.5
 62
256
  6
BYLAYER
 49
-0.5
 62
256
  6
BYLAYER
  0
DICTIONARY
  5
19
100
AcDbDictionary
280
0
281
1
  0
DICTIONARY
  5
1A
100
AcDbDictionary
281
1
  3
Layout1
350
1E
  3
Layout2
350
26
  3
Model
350
22
  0
LAYOUT
  5
1E
100
AcDbPlotSettings
  1

  2
none_device
  4

  6

 40
0.0
 41
0.0
 42
0.0
 43
0.0
 44
0.0
 45
0.0
 46
0.0
 47
0.0
 48
0.0
 49
0.0
140
0.0
141
0.0
142
1.0
143
1.0
 70
688
 72
0
 73
0
 74
5
  7

 75
16
147
1.0
148
0.0
149
0.0
100
AcDbLayout
  1
Layout1
 70
1
 71
1
 10
0.0
 20
0.0
 11
420.0
 21
297.0
 12
0.0
 22
0.0
 32
0.0
 14
100000000000000000000.0
 24
100000000000000000000.0
 34
100000000000000000000.0
 15
-100000000000000000000.0
 25
-100000000000000000000.0
 35
-100000000000000000000.0
146
0.0
 13
0.0
 23
0.0
 33
0.0
 16
1.0
 26
0.0
 36
0.0
 17
0.0
 27
1.0
 37
0.0
 76
0
330
1B
  0
LAYOUT
  5
22
100
AcDbPlotSettings
  1

  2
none_device
  4

  6

 40
0.0
 41
0.0
 42
0.0
 43
0.0
 44
0.0
 45
0.0
 46
0.0
 47
0.0
 48
0.0
 49
0.0
140
0.0
141
0.0
142
1.0
143
1.0
 70
1712
 72
0
 73
0
 74
0
  7

 75
0
147
1.0
148
0.0
149
0.0
100
AcDbLayout
  1
Model
 70
1
 71
0
 10
0.0
 20
0.0
 11
12.0
 21
9.0
 12
0.0
 22
0.0
 32
0.0
 14
0.0
 24
0.0
 34
0.0
 15
0.0
 25
0.0
 35
0.0
146
0.0
 13
0.0
 23
0.0
 33
0.0
 16
1.0
 26
0.0
 36
0.0
 17
0.0
 27
1.0
 37
0.0
 76
0
330
1F
  0
LAYOUT
  5
26
100
AcDbPlotSettings
  1

  2
none_device
  4

  6

 40
0.0
 41
0.0
 42
0.0
 43
0.0
 44
0.0
 45
0.0
 46
0.0
 47
0.0
 48
0.0
 49
0.0
140
0.0
141
0.0
142
1.0
143
1.0
 70
688
 72
0
 73
0
 74
5
  7

 75
16
147
1.0
148
0.0
149
0.0
100
AcDbLayout
  1
Layout2
 70
1
 71
2
 10
0.0
 20
0.0
 11
12.0
 21
9.0
 12
0.0
 22
0.0
 32
0.0
 14
0.0
 24
0.0
 34
0.0
 15
0.0
 25
0.0
 35
0.0
146
0.0
 13
0.0
 23
0.0
 33
0.0
 16
1.0
 26
0.0
 36
0.0
 17
0.0
 27
1.0
 37
0.0
 76
0
330
23
  0
DICTIONARY
  5
168
100
AcDbDictionary
281
1
  3
DIMASSOC
350
16B
  3
HIDETEXT
350
16A
  0
DICTIONARYVAR
  5
16A
100
DictionaryVariables
280
0
  1
2
  0
DICTIONARYVAR
  5
16B
100
DictionaryVariables
280
0
  1
1
  0
DICTIONARY
  5
169
100
AcDbDictionary
281
1
  3
Grid/DisplayGrid00
350
16C
  3
Grid/DisplayGrid01
350
16D
  3
Grid/DisplayGrid02
350
16E
  3
Grid/DisplayGrid03
350
16F
  3
Grid/GridSpacingX00
350
170
  3
Grid/GridSpacingX01
350
171
  3
Grid/GridSpacingX02
350
172
  3
Grid/GridSpacingX03
350
173
  3
Grid/GridSpacingY00
350
174
  3
Grid/GridSpacingY01
350
175
  3
Grid/GridSpacingY02
350
176
  3
Grid/GridSpacingY03
350
177
  3
Grid/IsometricGrid00
350
178
  3
Grid/IsometricGrid01
350
179
  3
Grid/IsometricGrid02
350
17A
  3
Grid/IsometricGrid03
350
17B
  3
Grid/IsometricProjection00
350
17C
  3
Grid/IsometricProjection01
350
17D
  3
Grid/IsometricProjection02
350
17E
  3
Grid/IsometricProjection03
350
17F
  3
Grid/MetaGridSpacingX00
350
180
  3
Grid/MetaGridSpacingX01
350
181
  3
Grid/MetaGridSpacingX02
350
182
  3
Grid/MetaGridSpacingX03
350
183
  3
Grid/MetaGridSpacingY00
350
184
  3
Grid/MetaGridSpacingY01
350
185
  3
Grid/MetaGridSpacingY02
350
186
  3
Grid/MetaGridSpacingY03
350
187
  3
MultiPageSettings/Columns
350
188
  3
MultiPageSettings/GlueMarginsBottom
350
189
  3
MultiPageSettings/GlueMarginsLeft
350
18A
  3
MultiPageSettings/GlueMarginsRight
350
18B
  3
MultiPageSettings/GlueMarginsTop
350
18C
  3
MultiPageSettings/PrintCropMarks
350
18D
  3
MultiPageSettings/Rows
350
18E
  3
PageSettings/OffsetX
350
18F
  3
PageSettings/OffsetY
350
190
  3
PageSettings/PageOrientation
350
191
  3
PageSettings/PaperHeight
350
192
  3
PageSettings/PaperWidth
350
193
  3
PageSettings/Scale
350
194
  3
PageSettings/ShowPaperBorders
350
195
  3
UnitSettings/PaperUnit
350
196
  0
XRECORD
  5
16C
330
169
100
AcDbXrecord
280
1
290
1
  0
XRECORD
  5
16D
330
169
100
AcDbXrecord
280
1
290
1
  0
XRECORD
  5
16E
330
169
100
AcDbXrecord
280
1
290
1
  0
XRECORD
  5
16F
330
169
100
AcDbXrecord
280
1
290
1
  0
XRECORD
  5
170
330
169
100
AcDbXrecord
280
1
1000
auto
  0
XRECORD
  5
171
330
169
100
AcDbXrecord
280
1
1000
auto
  0
XRECORD
  5
172
330
169
100
AcDbXrecord
280
1
1000
auto
  0
XRECORD
  5
173
330
169
100
AcDbXrecord
280
1
1000
auto
  0
XRECORD
  5
174
330
169
100
AcDbXrecord
280
1
1000
auto
  0
XRECORD
  5
175
330
169
100
AcDbXrecord
280
1
1000
auto
  0
XRECORD
  5
176
330
169
100
AcDbXrecord
280
1
1000
auto
  0
XRECORD
  5
177
330
169
100
AcDbXrecord
280
1
1000
auto
  0
XRECORD
  5
178
330
169
100
AcDbXrecord
280
1
290
0
  0
XRECORD
  5
179
330
169
100
AcDbXrecord
280
1
290
0
  0
XRECORD
  5
17A
330
169
100
AcDbXrecord
280
1
290
0
  0
XRECORD
  5
17B
330
169
100
AcDbXrecord
280
1
290
0
  0
XRECORD
  5
17C
330
169
100
AcDbXrecord
280
1
 90
0
  0
XRECORD
  5
17D
330
169
100
AcDbXrecord
280
1
 90
0
  0
XRECORD
  5
17E
330
169
100
AcDbXrecord
280
1
 90
0
  0
XRECORD
  5
17F
330
169
100
AcDbXrecord
280
1
 90
0
  0
XRECORD
  5
180
330
169
100
AcDbXrecord
280
1
1000
auto
  0
XRECORD
  5
181
330
169
100
AcDbXrecord
280
1
1000
auto
  0
XRECORD
  5
182
330
169
100
AcDbXrecord
280
1
1000
auto
  0
XRECORD
  5
183
330
169
100
AcDbXrecord
280
1
1000
auto
  0
XRECORD
  5
184
330
169
100
AcDbXrecord
280
1
1000
auto
  0
XRECORD
  5
185
330
169
100
AcDbXrecord
280
1
1000
auto
  0
XRECORD
  5
186
330
169
100
AcDbXrecord
280
1
1000
auto
  0
XRECORD
  5
187
330
169
100
AcDbXrecord
280
1
1000
auto
  0
XRECORD
  5
188
330
169
100
AcDbXrecord
280
1
 90
1
  0
XRECORD
  5
189
330
169
100
AcDbXrecord
280
1
 40
10.0
  0
XRECORD
  5
18A
330
169
100
AcDbXrecord
280
1
 40
10.0
  0
XRECORD
  5
18B
330
169
100
AcDbXrecord
280
1
 40
10.0
  0
XRECORD
  5
18C
330
169
100
AcDbXrecord
280
1
 40
10.0
  0
XRECORD
  5
18D
330
169
100
AcDbXrecord
280
1
290
0
  0
XRECORD
  5
18E
330
169
100
AcDbXrecord
280
1
 90
1
  0
XRECORD
  5
18F
330
169
100
AcDbXrecord
280
1
 40
-19.5771704180064248
  0
XRECORD
  5
190
330
169
100
AcDbXrecord
280
1
 40
-12.3192926045016087
  0
XRECORD
  5
191
330
169
100
AcDbXrecord
280
1
1000
Portrait
  0
XRECORD
  5
192
330
169
100
AcDbXrecord
280
1
 40
297.0
  0
XRECORD
  5
193
330
169
100
AcDbXrecord
280
1
 40
210.0
  0
XRECORD
  5
194
330
169
100
AcDbXrecord
280
1
1000
1:1
  0
XRECORD
  5
195
330
169
100
AcDbXrecord
280
1
290
1
  0
XRECORD
  5
196
330
169
100
AcDbXrecord
280
1
 90
4
  0
ENDSEC
  0
EOF
