999
dxflib 3.7.5.0
  0
SECTION
  2
HEADER
  9
$ACADVER
  1
AC1015
  9
$HANDSEED
  5
FFFF
  9
$DIMADEC
 70
0
  9
$DIMASZ
 40
2.5
  9
$DIMAUNIT
 70
0
  9
$DIMAZIN
 70
2
  9
$DIMDEC
 70
4
  9
$DIMEXE
 40
1.25
  9
$DIMEXO
 40
0.625
  9
$DIMGAP
 40
0.625
  9
$DIMLUNIT
 70
2
  9
$DIMSCALE
 40
1.0
  9
$DIMTSZ
 40
0.0
  9
$DIMTXT
 40
2.5
  9
$DIMZIN
 70
8
  9
$DWGCODEPAGE
  3
ANSI_1252
  9
$INSUNITS
 70
4
  9
$LTSCALE
 40
1
  9
$PDMODE
 70
0
  9
$PDSIZE
 40
0.0
  0
ENDSEC
  0
SECTION
  2
TABLES
  0
TABLE
  2
VPORT
  5
8
100
AcDbSymbolTable
 70
1
  0
VPORT
  5
30
100
AcDbSymbolTableRecord
100
AcDbViewportTableRecord
  2
*Active
 70
0
 10
0.0
 20
0.0
 11
1.0
 21
1.0
 12
286.3055555555554861
 22
148.5
 13
0.0
 23
0.0
 14
10.0
 24
10.0
 15
10.0
 25
10.0
 16
0.0
 26
0.0
 36
1.0
 17
0.0
 27
0.0
 37
0.0
 40
297.0
 41
1.92798353909465
 42
50.0
 43
0.0
 44
0.0
 50
0.0
 51
0.0
 71
0
 72
100
 73
1
 74
3
 75
1
 76
1
 77
0
 78
0
281
0
 65
1
110
0.0
120
0.0
130
0.0
111
1.0
121
0.0
131
0.0
112
0.0
122
1.0
132
0.0
 79
0
146
0.0
  0
ENDTAB
  0
TABLE
  2
LTYPE
  5
5
100
AcDbSymbolTable
 70
41
  0
LTYPE
  5
16
100
AcDbSymbolTableRecord
100
AcDbLinetypeTableRecord
  2
Continuous
 70
0
  3
Solid line
 72
65
 73
0
 40
0.0
  0
LTYPE
  5
31
100
AcDbSymbolTableRecord
100
AcDbLinetypeTableRecord
  2
ACAD_ISO15W100
 70
0
  3
ISO double-dash triple-dot __ __ . . . __ __ . .
 72
65
 73
10
 40
39.0
 49
12.0
 74
0
 49
-3.0
 74
0
 49
12.0
 74
0
 49
-2.9500000000000002
 74
0
 49
0.1
 74
0
 49
-2.9000000000000004
 74
0
 49
0.1
 74
0
 49
-2.9000000000000004
 74
0
 49
0.1
 74
0
 49
-2.9500000000000002
 74
0
  0
LTYPE
  5
32
100
AcDbSymbolTableRecord
100
AcDbLinetypeTableRecord
  2
DIVIDE
 70
0
  3
Divide ____ . . ____ . . ____ . . ____ . . ____
 72
65
 73
6
 40
31.75
 49
12.6999999999999993
 74
0
 49
-6.2999999999999998
 74
0
 49
0.1
 74
0
 49
-6.25
 74
0
 49
0.1
 74
0
 49
-6.2999999999999998
 74
0
  0
LTYPE
  5
33
100
AcDbSymbolTableRecord
100
AcDbLinetypeTableRecord
  2
ACAD_ISO10W100
 70
0
  3
ISO dash dot __ . __ . __ . __ . __ . __ . __ . 
 72
65
 73
4
 40
18.0
 49
12.0
 74
0
 49
-2.9500000000000002
 74
0
 49
0.1
 74
0
 49
-2.9500000000000002
 74
0
  0
LTYPE
  5
34
100
AcDbSymbolTableRecord
100
AcDbLinetypeTableRecord
  2
ACAD_ISO04W100
 70
0
  3
ISO long-dash dot ____ . ____ . ____ . ____ . _
 72
65
 73
4
 40
30.0
 49
24.0
 74
0
 49
-2.9500000000000002
 74
0
 49
0.1
 74
0
 49
-2.9500000000000002
 74
0
  0
LTYPE
  5
35
100
AcDbSymbolTableRecord
100
AcDbLinetypeTableRecord
  2
CENTER2
 70
0
  3
Center (.5x) ___ _ ___ _ ___ _ ___ _ ___ _ ___
 72
65
 73
4
 40
28.5749999999999993
 49
19.0500000000000007
 74
0
 49
-3.1749999999999998
 74
0
 49
3.1749999999999998
 74
0
 49
-3.1749999999999998
 74
0
  0
LTYPE
  5
36
100
AcDbSymbolTableRecord
100
AcDbLinetypeTableRecord
  2
ACAD_ISO11W100
 70
0
  3
ISO double-dash dot __ __ . __ __ . __ __ . __ _
 72
65
 73
6
 40
33.0
 49
12.0
 74
0
 49
-3.0
 74
0
 49
12.0
 74
0
 49
-2.9500000000000002
 74
0
 49
0.1
 74
0
 49
-2.9500000000000002
 74
0
  0
LTYPE
  5
37
100
AcDbSymbolTableRecord
100
AcDbLinetypeTableRecord
  2
HIDDEN2
 70
0
  3
Hidden (.5x) _ _ _ _ _ _ _ _ _ _ _ _ _ _ _ _ _ 
 72
65
 73
2
 40
4.7624999999999993
 49
3.1749999999999998
 74
0
 49
-1.5874999999999999
 74
0
  0
LTYPE
  5
38
100
AcDbSymbolTableRecord
100
AcDbLinetypeTableRecord
  2
BORDERX2
 70
0
  3
Border (2x) ____  ____  .  ____  ____  .  ___
 72
65
 73
6
 40
88.8999999999999915
 49
25.3999999999999986
 74
0
 49
-12.6999999999999993
 74
0
 49
25.3999999999999986
 74
0
 49
-12.6499999999999986
 74
0
 49
0.1
 74
0
 49
-12.6499999999999986
 74
0
  0
LTYPE
  5
39
100
AcDbSymbolTableRecord
100
AcDbLinetypeTableRecord
  2
ACAD_ISO05W100
 70
0
  3
ISO long-dash double-dot ____ .. ____ .. ____ . 
 72
65
 73
6
 40
33.0
 49
24.0
 74
0
 49
-2.9500000000000002
 74
0
 49
0.1
 74
0
 49
-2.9000000000000004
 74
0
 49
0.1
 74
0
 49
-2.9500000000000002
 74
0
  0
LTYPE
  5
3A
100
AcDbSymbolTableRecord
100
AcDbLinetypeTableRecord
  2
DASHDOTX2
 70
0
  3
Dash dot (2x) ____  .  ____  .  ____  .  ___
 72
65
 73
4
 40
50.7999999999999972
 49
25.3999999999999986
 74
0
 49
-12.6499999999999986
 74
0
 49
0.1
 74
0
 49
-12.6499999999999986
 74
0
  0
LTYPE
  5
3B
100
AcDbSymbolTableRecord
100
AcDbLinetypeTableRecord
  2
HIDDENX2
 70
0
  3
Hidden (2x) ____ ____ ____ ____ ____ ____ ____ 
 72
65
 73
2
 40
19.0499999999999972
 49
12.6999999999999993
 74
0
 49
-6.3499999999999996
 74
0
  0
LTYPE
  5
3C
100
AcDbSymbolTableRecord
100
AcDbLinetypeTableRecord
  2
CENTERX2
 70
0
  3
Center (2x) ________  __  ________  __  _____
 72
65
 73
4
 40
101.5999999999999943
 49
63.5
 74
0
 49
-12.6999999999999993
 74
0
 49
12.6999999999999993
 74
0
 49
-12.6999999999999993
 74
0
  0
LTYPE
  5
3D
100
AcDbSymbolTableRecord
100
AcDbLinetypeTableRecord
  2
BORDER2
 70
0
  3
Border (.5x) __.__.__.__.__.__.__.__.__.__.__.
 72
65
 73
6
 40
22.2249999999999979
 49
6.3499999999999996
 74
0
 49
-3.1749999999999998
 74
0
 49
6.3499999999999996
 74
0
 49
-3.125
 74
0
 49
0.1
 74
0
 49
-3.125
 74
0
  0
LTYPE
  5
3E
100
AcDbSymbolTableRecord
100
AcDbLinetypeTableRecord
  2
DASHDOT2
 70
0
  3
Dash dot (.5x) _._._._._._._._._._._._._._._.
 72
65
 73
4
 40
12.6999999999999993
 49
6.3499999999999996
 74
0
 49
-3.125
 74
0
 49
0.1
 74
0
 49
-3.125
 74
0
  0
LTYPE
  5
3F
100
AcDbSymbolTableRecord
100
AcDbLinetypeTableRecord
  2
ACAD_ISO12W100
 70
0
  3
ISO dash double-dot __ . . __ . . __ . . __ . . 
 72
65
 73
6
 40
21.0
 49
12.0
 74
0
 49
-2.9500000000000002
 74
0
 49
0.1
 74
0
 49
-2.9000000000000004
 74
0
 49
0.1
 74
0
 49
-2.9500000000000002
 74
0
  0
LTYPE
  5
40
100
AcDbSymbolTableRecord
100
AcDbLinetypeTableRecord
  2
ACAD_ISO07W100
 70
0
  3
ISO dot . . . . . . . . . . . . . . . . . . . . 
 72
65
 73
2
 40
3.0
 49
0.1
 74
0
 49
-2.8999999999999999
 74
0
  0
LTYPE
  5
41
100
AcDbSymbolTableRecord
100
AcDbLinetypeTableRecord
  2
HIDDEN
 70
0
  3
Hidden __ __ __ __ __ __ __ __ __ __ __ __ __ __
 72
65
 73
2
 40
9.5249999999999986
 49
6.3499999999999996
 74
0
 49
-3.1749999999999998
 74
0
  0
LTYPE
  5
42
100
AcDbSymbolTableRecord
100
AcDbLinetypeTableRecord
  2
ACAD_ISO06W100
 70
0
  3
ISO long-dash triple-dot ____ ... ____ ... ____
 72
65
 73
8
 40
36.0
 49
24.0
 74
0
 49
-2.9500000000000002
 74
0
 49
0.1
 74
0
 49
-2.9000000000000004
 74
0
 49
0.1
 74
0
 49
-2.9000000000000004
 74
0
 49
0.1
 74
0
 49
-2.9500000000000002
 74
0
  0
LTYPE
  5
43
100
AcDbSymbolTableRecord
100
AcDbLinetypeTableRecord
  2
CENTER
 70
0
  3
Center ____ _ ____ _ ____ _ ____ _ ____ _ ____
 72
65
 73
4
 40
50.7999999999999972
 49
31.75
 74
0
 49
-6.3499999999999996
 74
0
 49
6.3499999999999996
 74
0
 49
-6.3499999999999996
 74
0
  0
LTYPE
  5
44
100
AcDbSymbolTableRecord
100
AcDbLinetypeTableRecord
  2
DOTX2
 70
0
  3
Dot (2x) .  .  .  .  .  .  .  .  .  .  .  .  .  .
 72
65
 73
2
 40
12.6999999999999993
 49
0.1
 74
0
 49
-12.5999999999999996
 74
0
  0
LTYPE
  5
45
100
AcDbSymbolTableRecord
100
AcDbLinetypeTableRecord
  2
PHANTOM
 70
0
  3
Phantom ______  __  __  ______  __  __  ______ 
 72
65
 73
6
 40
63.5
 49
31.75
 74
0
 49
-6.3499999999999996
 74
0
 49
6.3499999999999996
 74
0
 49
-6.3499999999999996
 74
0
 49
6.3499999999999996
 74
0
 49
-6.3499999999999996
 74
0
  0
LTYPE
  5
46
100
AcDbSymbolTableRecord
100
AcDbLinetypeTableRecord
  2
ACAD_ISO08W100
 70
0
  3
ISO long-dash short-dash ____ __ ____ __ ____ _
 72
65
 73
4
 40
36.0
 49
24.0
 74
0
 49
-3.0
 74
0
 49
6.0
 74
0
 49
-3.0
 74
0
  0
LTYPE
  5
47
100
AcDbSymbolTableRecord
100
AcDbLinetypeTableRecord
  2
DASHEDX2
 70
0
  3
Dashed (2x) ____  ____  ____  ____  ____  ___
 72
65
 73
2
 40
38.0999999999999943
 49
25.3999999999999986
 74
0
 49
-12.6999999999999993
 74
0
  0
LTYPE
  5
48
100
AcDbSymbolTableRecord
100
AcDbLinetypeTableRecord
  2
ACAD_ISO02W100
 70
0
  3
ISO dash __ __ __ __ __ __ __ __ __ __ __ __ __
 72
65
 73
2
 40
15.0
 49
12.0
 74
0
 49
-3.0
 74
0
  0
LTYPE
  5
49
100
AcDbSymbolTableRecord
100
AcDbLinetypeTableRecord
  2
PHANTOM2
 70
0
  3
Phantom (.5x) ___ _ _ ___ _ _ ___ _ _ ___ _ _
 72
65
 73
6
 40
31.75
 49
15.875
 74
0
 49
-3.1749999999999998
 74
0
 49
3.1749999999999998
 74
0
 49
-3.1749999999999998
 74
0
 49
3.1749999999999998
 74
0
 49
-3.1749999999999998
 74
0
  0
LTYPE
  5
4A
100
AcDbSymbolTableRecord
100
AcDbLinetypeTableRecord
  2
DASHED2
 70
0
  3
Dashed (.5x) _ _ _ _ _ _ _ _ _ _ _ _ _ _ _ _ _ 
 72
65
 73
2
 40
9.5249999999999986
 49
6.3499999999999996
 74
0
 49
-3.1749999999999998
 74
0
  0
LTYPE
  5
4B
100
AcDbSymbolTableRecord
100
AcDbLinetypeTableRecord
  2
ACAD_ISO09W100
 70
0
  3
ISO long-dash double-short-dash ____ __ __ ____
 72
65
 73
6
 40
45.0
 49
24.0
 74
0
 49
-3.0
 74
0
 49
6.0
 74
0
 49
-3.0
 74
0
 49
6.0
 74
0
 49
-3.0
 74
0
  0
LTYPE
  5
4C
100
AcDbSymbolTableRecord
100
AcDbLinetypeTableRecord
  2
ACAD_ISO13W100
 70
0
  3
ISO double-dash double-dot __ __ . . __ __ . . _
 72
65
 73
8
 40
36.0
 49
12.0
 74
0
 49
-3.0
 74
0
 49
12.0
 74
0
 49
-2.9500000000000002
 74
0
 49
0.1
 74
0
 49
-2.9000000000000004
 74
0
 49
0.1
 74
0
 49
-2.9500000000000002
 74
0
  0
LTYPE
  5
4D
100
AcDbSymbolTableRecord
100
AcDbLinetypeTableRecord
  2
DOT2
 70
0
  3
Dot (.5x) ........................................
 72
65
 73
2
 40
3.1749999999999998
 49
0.1
 74
0
 49
-3.0749999999999997
 74
0
  0
LTYPE
  5
4E
100
AcDbSymbolTableRecord
100
AcDbLinetypeTableRecord
  2
DASHED
 70
0
  3
Dashed __ __ __ __ __ __ __ __ __ __ __ __ __ _
 72
65
 73
2
 40
19.0499999999999972
 49
12.6999999999999993
 74
0
 49
-6.3499999999999996
 74
0
  0
LTYPE
  5
4F
100
AcDbSymbolTableRecord
100
AcDbLinetypeTableRecord
  2
ACAD_ISO14W100
 70
0
  3
ISO dash triple-dot __ . . . __ . . . __ . . . _
 72
65
 73
8
 40
24.0
 49
12.0
 74
0
 49
-2.9500000000000002
 74
0
 49
0.1
 74
0
 49
-2.9000000000000004
 74
0
 49
0.1
 74
0
 49
-2.9000000000000004
 74
0
 49
0.1
 74
0
 49
-2.9500000000000002
 74
0
  0
LTYPE
  5
15
100
AcDbSymbolTableRecord
100
AcDbLinetypeTableRecord
  2
BYLAYER
 70
0
  3

 72
65
 73
0
 40
0.0
  0
LTYPE
  5
50
100
AcDbSymbolTableRecord
100
AcDbLinetypeTableRecord
  2
PHANTOMX2
 70
0
  3
Phantom (2x) ____________    ____    ____   _
 72
65
 73
6
 40
127.0
 49
63.5
 74
0
 49
-12.6999999999999993
 74
0
 49
12.6999999999999993
 74
0
 49
-12.6999999999999993
 74
0
 49
12.6999999999999993
 74
0
 49
-12.6999999999999993
 74
0
  0
LTYPE
  5
14
100
AcDbSymbolTableRecord
100
AcDbLinetypeTableRecord
  2
BYBLOCK
 70
0
  3

 72
65
 73
0
 40
0.0
  0
LTYPE
  5
51
100
AcDbSymbolTableRecord
100
AcDbLinetypeTableRecord
  2
DIVIDEX2
 70
0
  3
Divide (2x) ________  .  .  ________  .  .  _
 72
65
 73
6
 40
63.4999999999999929
 49
25.3999999999999986
 74
0
 49
-12.6499999999999986
 74
0
 49
0.1
 74
0
 49
-12.5999999999999979
 74
0
 49
0.1
 74
0
 49
-12.6499999999999986
 74
0
  0
LTYPE
  5
52
100
AcDbSymbolTableRecord
100
AcDbLinetypeTableRecord
  2
BORDER
 70
0
  3
Border __ __ . __ __ . __ __ . __ __ . __ __ .
 72
65
 73
6
 40
44.4499999999999957
 49
12.6999999999999993
 74
0
 49
-6.3499999999999996
 74
0
 49
12.6999999999999993
 74
0
 49
-6.2999999999999998
 74
0
 49
0.1
 74
0
 49
-6.2999999999999998
 74
0
  0
LTYPE
  5
53
100
AcDbSymbolTableRecord
100
AcDbLinetypeTableRecord
  2
DIVIDE2
 70
0
  3
Divide (.5x) __..__..__..__..__..__..__..__.._
 72
65
 73
6
 40
15.875
 49
6.3499999999999996
 74
0
 49
-3.125
 74
0
 49
0.1
 74
0
 49
-3.0750000000000002
 74
0
 49
0.1
 74
0
 49
-3.125
 74
0
  0
LTYPE
  5
54
100
AcDbSymbolTableRecord
100
AcDbLinetypeTableRecord
  2
DOT
 70
0
  3
Dot . . . . . . . . . . . . . . . . . . . . . . . .
 72
65
 73
2
 40
6.3499999999999996
 49
0.1
 74
0
 49
-6.25
 74
0
  0
LTYPE
  5
55
100
AcDbSymbolTableRecord
100
AcDbLinetypeTableRecord
  2
DASHDOT
 70
0
  3
Dash dot __ . __ . __ . __ . __ . __ . __ . __
 72
65
 73
4
 40
25.3999999999999986
 49
12.6999999999999993
 74
0
 49
-6.2999999999999998
 74
0
 49
0.1
 74
0
 49
-6.2999999999999998
 74
0
  0
LTYPE
  5
56
100
AcDbSymbolTableRecord
100
AcDbLinetypeTableRecord
  2
ACAD_ISO03W100
 70
0
  3
ISO dash space __    __    __    __    __    __
 72
65
 73
2
 40
30.0
 49
12.0
 74
0
 49
-18.0
 74
0
  0
ENDTAB
  0
TABLE
  2
LAYER
  5
2
100
AcDbSymbolTable
 70
13
  0
LAYER
  5
57
100
AcDbSymbolTableRecord
100
AcDbLayerTableRecord
  2
construction
 70
1
 62
-1
420
16711680
  6
ACAD_ISO02W100
370
25
390
F
  0
LAYER
  5
58
100
AcDbSymbolTableRecord
100
AcDbLayerTableRecord
  2
fado_socle
 70
5
 62
-4
420
65535
  6
Continuous
370
25
390
F
  0
LAYER
  5
59
100
AcDbSymbolTableRecord
100
AcDbLayerTableRecord
  2
verifs
 70
1
 62
-7
420
0
  6
PHANTOM2
370
25
390
F
  0
LAYER
  5
5A
100
AcDbSymbolTableRecord
100
AcDbLayerTableRecord
  2
arbre_support_leds
 70
1
 62
-4
420
65535
  6
Continuous
370
25
390
F
  0
LAYER
  5
5B
100
AcDbSymbolTableRecord
100
AcDbLayerTableRecord
  2
layer 1
 70
1
 62
-7
420
0
  6
Continuous
370
25
390
F
  0
LAYER
  5
5C
100
AcDbSymbolTableRecord
100
AcDbLayerTableRecord
  2
arbre_support_leds2
 70
0
 62
4
420
65535
  6
Continuous
370
25
390
F
  0
LAYER
  5
5D
100
AcDbSymbolTableRecord
100
AcDbLayerTableRecord
  2
arbre_bras2
 70
1
 62
-7
420
0
  6
Continuous
370
25
390
F
  0
LAYER
  5
5E
100
AcDbSymbolTableRecord
100
AcDbLayerTableRecord
  2
arbre_bras3
 70
0
 62
7
420
0
  6
Continuous
370
25
390
F
  0
LAYER
  5
5F
100
AcDbSymbolTableRecord
100
AcDbLayerTableRecord
  2
fado_verre
 70
5
 62
-7
420
0
  6
Continuous
370
25
390
F
  0
LAYER
  5
60
100
AcDbSymbolTableRecord
100
AcDbLayerTableRecord
  2
arbre_armature2
 70
0
 62
30
420
16744192
  6
Continuous
370
25
390
F
  0
LAYER
  5
61
100
AcDbSymbolTableRecord
100
AcDbLayerTableRecord
  2
arbre_armature
 70
1
 62
-2
420
16776960
  6
Continuous
370
25
390
F
  0
LAYER
  5
10
100
AcDbSymbolTableRecord
100
AcDbLayerTableRecord
  2
0
 70
1
 62
-7
420
16777215
  6
Continuous
370
25
390
F
  0
LAYER
  5
62
100
AcDbSymbolTableRecord
100
AcDbLayerTableRecord
  2
arbre_bras
 70
1
 62
-7
420
0
  6
Continuous
370
25
390
F
  0
ENDTAB
  0
TABLE
  2
STYLE
  5
3
100
AcDbSymbolTable
 70
1
  0
STYLE
  5
63
100
AcDbSymbolTableRecord
100
AcDbTextStyleTableRecord
  2
Standard
 70
0
 40
0.0
 41
1.0
 50
0.0
 71
0
 42
2.5
  3

  4

1001
ACAD
1000
txt
1071
0
  0
ENDTAB
  0
TABLE
  2
VIEW
  5
6
100
AcDbSymbolTable
 70
0
  0
ENDTAB
  0
TABLE
  2
UCS
  5
7
100
AcDbSymbolTable
 70
0
  0
ENDTAB
  0
TABLE
  2
APPID
  5
9
100
AcDbSymbolTable
 70
1
  0
APPID
  5
12
100
AcDbSymbolTableRecord
100
AcDbRegAppTableRecord
  2
ACAD
 70
0
  0
APPID
  5
64
100
AcDbSymbolTableRecord
100
AcDbRegAppTableRecord
  2
QCAD
 70
0
  0
ENDTAB
  0
TABLE
  2
DIMSTYLE
  5
A
100
AcDbSymbolTable
 70
1
100
AcDbDimStyleTable
 71
0
  0
DIMSTYLE
105
27
100
AcDbSymbolTableRecord
100
AcDbDimStyleTableRecord
  2
Standard
 41
2.5
 42
0.625
 43
3.75
 44
1.25
 70
0
 73
0
 74
0
 77
1
 78
8
140
2.5
141
2.5
143
0.03937007874016
147
0.625
171
3
172
1
271
2
272
2
274
3
278
44
283
0
284
8
340
63
  0
ENDTAB
  0
TABLE
  2
BLOCK_RECORD
  5
1
100
AcDbSymbolTable
 70
1
  0
BLOCK_RECORD
  5
1F
100
AcDbSymbolTableRecord
100
AcDbBlockTableRecord
  2
*Model_Space
340
22
  0
BLOCK_RECORD
  5
1B
100
AcDbSymbolTableRecord
100
AcDbBlockTableRecord
  2
*Paper_Space
340
1E
  0
BLOCK_RECORD
  5
23
100
AcDbSymbolTableRecord
100
AcDbBlockTableRecord
  2
*Paper_Space0
340
26
  0
ENDTAB
  0
ENDSEC
  0
SECTION
  2
BLOCKS
  0
BLOCK
  5
20
100
AcDbEntity
  8
0
100
AcDbBlockBegin
  2
*Model_Space
 70
0
 10
0.0
 20
0.0
 30
0.0
  3
*Model_Space
  1

  0
ENDBLK
  5
21
100
AcDbEntity
  8
0
100
AcDbBlockEnd
  0
BLOCK
  5
1C
100
AcDbEntity
 67
1
  8
0
100
AcDbBlockBegin
  2
*Paper_Space
 70
0
 10
0.0
 20
0.0
 30
0.0
  3
*Paper_Space
  1

  0
ENDBLK
  5
1D
100
AcDbEntity
 67
1
  8
0
100
AcDbBlockEnd
  0
BLOCK
  5
24
100
AcDbEntity
  8
0
100
AcDbBlockBegin
  2
*Paper_Space0
 70
0
 10
0.0
 20
0.0
 30
0.0
  3
*Paper_Space0
  1

  0
ENDBLK
  5
25
100
AcDbEntity
  8
0
100
AcDbBlockEnd
  0
ENDSEC
  0
SECTION
  2
ENTITIES
  0
ARC
  5
65
100
AcDbEntity
  8
fado_verre
 62
256
370
-1
 48
1.0
  6
BYLAYER
100
AcDbCircle
 10
0.0
 20
0.0
 30
0.0
 40
122.5
100
AcDbArc
 50
303.2030991980404337
 51
236.796900801959481
  0
LINE
  5
66
100
AcDbEntity
100
AcDbLine
  8
construction
 62
256
370
-1
 48
1.0
  6
BYLAYER
 10
-60.0
 20
122.5
 30
0.0
 11
60.0
 21
122.5
 31
0.0
  0
LINE
  5
67
100
AcDbEntity
100
AcDbLine
  8
fado_verre
 62
256
370
-1
 48
1.0
  6
BYLAYER
 10
-67.082039324993687
 20
-102.5
 30
0.0
 11
67.082039324993687
 21
-102.5
 31
0.0
  0
LINE
  5
68
100
AcDbEntity
100
AcDbLine
  8
fado_socle
 62
256
370
-1
 48
1.0
  6
BYLAYER
 10
-67.082039324993687
 20
-112.5
 30
0.0
 11
67.082039324993687
 21
-112.5
 31
0.0
  0
LINE
  5
69
100
AcDbEntity
100
AcDbLine
  8
fado_socle
 62
256
370
-1
 48
1.0
  6
BYLAYER
 10
-67.082039324993687
 20
-112.5
 30
0.0
 11
-67.082039324993687
 21
-102.5
 31
0.0
  0
LINE
  5
6A
100
AcDbEntity
100
AcDbLine
  8
fado_socle
 62
256
370
-1
 48
1.0
  6
BYLAYER
 10
67.082039324993687
 20
-112.5
 30
0.0
 11
67.082039324993687
 21
-102.5
 31
0.0
  0
LINE
  5
6B
100
AcDbEntity
100
AcDbLine
  8
construction
 62
256
370
-1
 48
1.0
  6
BYLAYER
 10
-67.082039324993687
 20
-28.5
 30
0.0
 11
67.082039324993687
 21
-28.5
 31
0.0
  0
LINE
  5
6C
100
AcDbEntity
100
AcDbLine
  8
construction
 62
256
370
-1
 48
1.0
  6
BYLAYER
 10
-0.0000000000000037
 20
-88.5
 30
0.0
 11
0.0000000000000037
 21
31.5
 31
0.0
  0
LINE
  5
6D
100
AcDbEntity
100
AcDbLine
  8
fado_socle
 62
256
370
-1
 48
1.0
  6
BYLAYER
 10
-19.0000000000000036
 20
-102.5000000000000142
 30
0.0
 11
-19.0
 21
-28.5
 31
0.0
  0
LINE
  5
6E
100
AcDbEntity
100
AcDbLine
  8
fado_socle
 62
256
370
-1
 48
1.0
  6
BYLAYER
 10
18.9999999999999964
 20
-102.5000000000000142
 30
0.0
 11
19.0
 21
-28.5
 31
0.0
  0
LINE
  5
6F
100
AcDbEntity
100
AcDbLine
  8
fado_socle
 62
256
370
-1
 48
1.0
  6
BYLAYER
 10
-19.0000000000000036
 20
-28.5000000000000036
 30
0.0
 11
19.0000000000000036
 21
-28.5000000000000036
 31
0.0
  0
LINE
  5
70
100
AcDbEntity
100
AcDbLine
  8
fado_socle
 62
256
370
-1
 48
1.0
  6
BYLAYER
 10
-67.082039324993687
 20
-102.5
 30
0.0
 11
-19.0
 21
-102.5
 31
0.0
  0
LINE
  5
71
100
AcDbEntity
100
AcDbLine
  8
fado_socle
 62
256
370
-1
 48
1.0
  6
BYLAYER
 10
67.082039324993687
 20
-102.5
 30
0.0
 11
18.9999999999999929
 21
-102.5
 31
0.0
  0
LINE
  5
72
100
AcDbEntity
100
AcDbLine
  8
fado_socle
 62
256
370
100
 48
1.0
  6
BYLAYER
 10
-19.0
 20
-71.5
 30
0.0
 11
19.0000000000000071
 21
-71.5
 31
0.0
  0
ARC
  5
73
100
AcDbEntity
  8
construction
 62
256
370
-1
 48
1.0
  6
BYLAYER
100
AcDbCircle
 10
0.0
 20
0.0
 30
0.0
 40
92.5
100
AcDbArc
 50
303.2030991980404337
 51
236.796900801959481
  0
LINE
  5
74
100
AcDbEntity
100
AcDbLine
  8
construction
 62
256
370
-1
 48
1.0
  6
BYLAYER
 10
0.0000000000000017
 20
0.0
 30
0.0
 11
-86.6025403784438907
 21
-49.9999999999999574
 31
0.0
  0
LINE
  5
75
100
AcDbEntity
100
AcDbLine
  8
construction
 62
256
370
-1
 48
1.0
  6
BYLAYER
 10
0.0000000000000017
 20
0.0
 30
0.0
 11
86.6025403784438765
 21
-49.9999999999999929
 31
0.0
  0
LINE
  5
76
100
AcDbEntity
100
AcDbLine
  8
construction
 62
256
370
-1
 48
1.0
  6
BYLAYER
 10
0.0000000000000017
 20
0.0
 30
0.0
 11
-98.4807753012208025
 21
17.3648177666930685
 31
0.0
  0
LINE
  5
77
100
AcDbEntity
100
AcDbLine
  8
construction
 62
256
370
-1
 48
1.0
  6
BYLAYER
 10
0.0000000000000017
 20
0.0
 30
0.0
 11
98.4807753012208025
 21
17.364817766693033
 31
0.0
  0
LINE
  5
78
100
AcDbEntity
100
AcDbLine
  8
construction
 62
256
370
-1
 48
1.0
  6
BYLAYER
 10
0.0000000000000017
 20
0.0
 30
0.0
 11
-64.2787609686539412
 21
76.604444311897808
 31
0.0
  0
LINE
  5
79
100
AcDbEntity
100
AcDbLine
  8
construction
 62
256
370
-1
 48
1.0
  6
BYLAYER
 10
0.0000000000000017
 20
0.0
 30
0.0
 11
64.2787609686539412
 21
76.604444311897808
 31
0.0
  0
LINE
  5
7A
100
AcDbEntity
100
AcDbLine
  8
construction
 62
256
370
-1
 48
1.0
  6
BYLAYER
 10
0.0000000000000017
 20
0.0
 30
0.0
 11
0.0000000000000079
 21
100.0
 31
0.0
  0
LINE
  5
7B
100
AcDbEntity
100
AcDbLine
  8
arbre_bras
 62
256
370
-1
 48
1.0
  6
BYLAYER
 10
-23.5000000000001457
 20
76.8591109885054635
 30
0.0
 11
-52.3073323404396362
 21
76.8591109885054635
 31
0.0
  0
LINE
  5
7C
100
AcDbEntity
100
AcDbLine
  8
arbre_bras
 62
256
370
-1
 48
1.0
  6
BYLAYER
 10
23.5000000000001421
 20
76.8591109885054635
 30
0.0
 11
52.3073323404396433
 21
76.8591109885054635
 31
0.0
  0
LINE
  5
7D
100
AcDbEntity
100
AcDbLine
  8
arbre_bras
 62
256
370
-1
 48
1.0
  6
BYLAYER
 10
-23.5000000000002309
 20
64.8591109885054493
 30
0.0
 11
-66.6083754515701685
 21
64.8591109885054777
 31
0.0
  0
LINE
  5
7E
100
AcDbEntity
100
AcDbLine
  8
arbre_bras
 62
256
370
-1
 48
1.0
  6
BYLAYER
 10
23.5000000000002416
 20
64.8591109885054635
 30
0.0
 11
66.6083754515701685
 21
64.8591109885054635
 31
0.0
  0
LINE
  5
7F
100
AcDbEntity
100
AcDbLine
  8
arbre_bras
 62
256
370
-1
 48
1.0
  6
BYLAYER
 10
-23.5000000000002878
 20
22.0624564341910769
 30
0.0
 11
-90.0367552693784461
 21
22.0624564341910911
 31
0.0
  0
LINE
  5
80
100
AcDbEntity
100
AcDbLine
  8
arbre_bras
 62
256
370
-1
 48
1.0
  6
BYLAYER
 10
23.5000000000002984
 20
22.0624564341910911
 30
0.0
 11
90.0367552693784319
 21
22.0624564341910911
 31
0.0
  0
LINE
  5
81
100
AcDbEntity
100
AcDbLine
  8
arbre_bras
 62
256
370
-1
 48
1.0
  6
BYLAYER
 10
-23.5000000000003944
 20
10.0624564341910911
 30
0.0
 11
-92.1526790378800342
 21
10.0624564341910769
 31
0.0
  0
LINE
  5
82
100
AcDbEntity
100
AcDbLine
  8
arbre_bras
 62
256
370
-1
 48
1.0
  6
BYLAYER
 10
23.5000000000003695
 20
10.0624564341910911
 30
0.0
 11
92.1526790378800342
 21
10.0624564341910911
 31
0.0
  0
LINE
  5
83
100
AcDbEntity
100
AcDbLine
  8
arbre_bras2
 62
256
370
-1
 48
1.0
  6
BYLAYER
 10
-23.5000000000001918
 20
-40.2499999999999716
 30
0.0
 11
-77.7979487733021386
 21
-40.2499999999999716
 31
0.0
  0
LINE
  5
84
100
AcDbEntity
100
AcDbLine
  8
arbre_bras2
 62
256
370
-1
 48
1.0
  6
BYLAYER
 10
-23.5000000000000426
 20
-52.2499999999999716
 30
0.0
 11
-70.8697455430266103
 21
-52.2499999999999716
 31
0.0
  0
LINE
  5
85
100
AcDbEntity
100
AcDbLine
  8
arbre_bras
 62
256
370
-1
 48
1.0
  6
BYLAYER
 10
92.1526790378800342
 20
10.0624564341910947
 30
0.0
 11
90.0367552693784461
 21
22.0624564341910947
 31
0.0
  0
LINE
  5
86
100
AcDbEntity
100
AcDbLine
  8
arbre_bras
 62
256
370
-1
 48
1.0
  6
BYLAYER
 10
-92.1526790378800342
 20
10.0624564341910769
 30
0.0
 11
-90.0367552693784461
 21
22.0624564341910911
 31
0.0
  0
LINE
  5
87
100
AcDbEntity
100
AcDbLine
  8
arbre_bras
 62
256
370
-1
 48
1.0
  6
BYLAYER
 10
76.6432482349228508
 20
-52.2499999999999716
 30
0.0
 11
83.5714514651983507
 21
-40.2499999999999645
 31
0.0
  0
LINE
  5
88
100
AcDbEntity
100
AcDbLine
  8
arbre_bras
 62
256
370
-1
 48
1.0
  6
BYLAYER
 10
-76.6432482349228366
 20
-52.2499999999999716
 30
0.0
 11
-83.5714514651983791
 21
-40.2499999999999716
 31
0.0
  0
LINE
  5
89
100
AcDbEntity
100
AcDbLine
  8
arbre_bras
 62
256
370
-1
 48
1.0
  6
BYLAYER
 10
66.6083754515701685
 20
64.8591109885054493
 30
0.0
 11
52.3073323404396362
 21
76.8591109885054635
 31
0.0
  0
LINE
  5
8A
100
AcDbEntity
100
AcDbLine
  8
arbre_bras
 62
256
370
-1
 48
1.0
  6
BYLAYER
 10
-66.6083754515701685
 20
64.8591109885054777
 30
0.0
 11
-52.3073323404396362
 21
76.8591109885054635
 31
0.0
  0
LINE
  5
8B
100
AcDbEntity
100
AcDbLine
  8
arbre_armature
 62
256
370
-1
 48
1.0
  6
BYLAYER
 10
44.0
 20
64.8591109885054777
 30
0.0
 11
44.0
 21
76.8591109885054777
 31
0.0
  0
LINE
  5
8C
100
AcDbEntity
100
AcDbLine
  8
arbre_armature
 62
256
370
-1
 48
1.0
  6
BYLAYER
 10
44.0
 20
10.0624564341910911
 30
0.0
 11
44.0
 21
59.8591109885054777
 31
0.0
  0
LINE
  5
8D
100
AcDbEntity
100
AcDbLine
  8
arbre_armature
 62
256
370
-1
 48
1.0
  6
BYLAYER
 10
44.0
 20
-52.2499999999999645
 30
0.0
 11
44.0
 21
5.062456434191084
 31
0.0
  0
LINE
  5
8E
100
AcDbEntity
100
AcDbLine
  8
arbre_armature
 62
256
370
-1
 48
1.0
  6
BYLAYER
 10
44.0
 20
-71.5
 30
0.0
 11
44.0
 21
-57.2499999999999645
 31
0.0
  0
LINE
  5
8F
100
AcDbEntity
100
AcDbLine
  8
arbre_armature
 62
256
370
-1
 48
1.0
  6
BYLAYER
 10
-16.9732094395565021
 20
92.5
 30
0.0
 11
16.9732094395565376
 21
92.5
 31
0.0
  0
LINE
  5
90
100
AcDbEntity
100
AcDbLine
  8
arbre_armature
 62
256
370
-1
 48
1.0
  6
BYLAYER
 10
-44.0
 20
10.062456434191084
 30
0.0
 11
-44.0
 21
59.8591109885054777
 31
0.0
  0
LINE
  5
91
100
AcDbEntity
100
AcDbLine
  8
arbre_armature
 62
256
370
-1
 48
1.0
  6
BYLAYER
 10
-44.0
 20
-52.2499999999999716
 30
0.0
 11
-44.0
 21
5.062456434191084
 31
0.0
  0
LINE
  5
92
100
AcDbEntity
100
AcDbLine
  8
arbre_armature
 62
256
370
-1
 48
1.0
  6
BYLAYER
 10
-44.0
 20
64.8591109885054635
 30
0.0
 11
-44.0
 21
76.8591109885054493
 31
0.0
  0
LINE
  5
93
100
AcDbEntity
100
AcDbLine
  8
arbre_armature
 62
256
370
-1
 48
1.0
  6
BYLAYER
 10
-44.0
 20
-71.5
 30
0.0
 11
-44.0
 21
-57.2499999999999716
 31
0.0
  0
LINE
  5
94
100
AcDbEntity
100
AcDbLine
  8
arbre_armature
 62
256
370
-1
 48
1.0
  6
BYLAYER
 10
-43.9999999999999929
 20
-71.5
 30
0.0
 11
44.0000000000000071
 21
-71.5
 31
0.0
  0
LINE
  5
95
100
AcDbEntity
100
AcDbLine
  8
arbre_armature
 62
256
370
-1
 48
1.0
  6
BYLAYER
 10
-19.0
 20
-71.5
 30
0.0
 11
-19.0
 21
-28.5
 31
0.0
  0
LINE
  5
96
100
AcDbEntity
100
AcDbLine
  8
arbre_armature
 62
256
370
-1
 48
1.0
  6
BYLAYER
 10
-19.0
 20
-28.5
 30
0.0
 11
19.0
 21
-28.5
 31
0.0
  0
LINE
  5
97
100
AcDbEntity
100
AcDbLine
  8
arbre_armature
 62
256
370
-1
 48
1.0
  6
BYLAYER
 10
19.0
 20
-28.5
 30
0.0
 11
19.0
 21
-71.5000000000000142
 31
0.0
  0
LINE
  5
98
100
AcDbEntity
100
AcDbLine
  8
construction
 62
256
370
-1
 48
1.0
  6
BYLAYER
 10
31.4999999999999964
 20
-110.0
 30
0.0
 11
31.5000000000000071
 21
92.5
 31
0.0
  0
CIRCLE
  5
99
100
AcDbEntity
100
AcDbCircle
  8
arbre_bras2
 62
256
370
-1
 48
1.0
  6
BYLAYER
 10
-31.5000000000000604
 20
-46.2499999999999716
 30
0.0
 40
1.5000000000000018
  0
CIRCLE
  5
9A
100
AcDbEntity
100
AcDbCircle
  8
arbre_bras
 62
256
370
-1
 48
1.0
  6
BYLAYER
 10
31.5
 20
16.0624564341910911
 30
0.0
 40
1.5
  0
CIRCLE
  5
9B
100
AcDbEntity
100
AcDbCircle
  8
arbre_bras
 62
256
370
-1
 48
1.0
  6
BYLAYER
 10
-31.4999999999999822
 20
16.0624564341910769
 30
0.0
 40
1.5
  0
CIRCLE
  5
9C
100
AcDbEntity
100
AcDbCircle
  8
arbre_bras
 62
256
370
-1
 48
1.0
  6
BYLAYER
 10
-31.5000000000000036
 20
70.8591109885054777
 30
0.0
 40
1.4999999999999982
  0
CIRCLE
  5
9D
100
AcDbEntity
100
AcDbCircle
  8
arbre_bras
 62
256
370
-1
 48
1.0
  6
BYLAYER
 10
31.5
 20
70.8591109885054635
 30
0.0
 40
1.4999999999999982
  0
ARC
  5
9E
100
AcDbEntity
  8
arbre_bras
 62
256
370
-1
 48
1.0
  6
BYLAYER
100
AcDbCircle
 10
-31.5000000000000036
 20
70.8591109885054777
 30
0.0
 40
10.0
100
AcDbArc
 50
323.1301023541558948
 51
36.8698976458447163
  0
ARC
  5
9F
100
AcDbEntity
  8
arbre_bras
 62
256
370
-1
 48
1.0
  6
BYLAYER
100
AcDbCircle
 10
-31.4999999999999822
 20
16.0624564341910769
 30
0.0
 40
10.0
100
AcDbArc
 50
323.1301023541558948
 51
36.8698976458447163
  0
ARC
  5
A0
100
AcDbEntity
  8
arbre_bras
 62
256
370
-1
 48
1.0
  6
BYLAYER
100
AcDbCircle
 10
-31.5000000000000604
 20
-46.2499999999999716
 30
0.0
 40
10.0
100
AcDbArc
 50
323.1301023541558948
 51
36.8698976458447163
  0
ARC
  5
A1
100
AcDbEntity
  8
arbre_bras
 62
256
370
-1
 48
1.0
  6
BYLAYER
100
AcDbCircle
 10
31.5
 20
70.8591109885054635
 30
0.0
 40
10.0
100
AcDbArc
 50
143.1301023541552695
 51
216.8698976458441052
  0
ARC
  5
A2
100
AcDbEntity
  8
arbre_bras
 62
256
370
-1
 48
1.0
  6
BYLAYER
100
AcDbCircle
 10
31.5
 20
16.0624564341910911
 30
0.0
 40
10.0
100
AcDbArc
 50
143.1301023541552695
 51
216.8698976458441052
  0
LINE
  5
A3
100
AcDbEntity
100
AcDbLine
  8
arbre_armature
 62
256
370
-1
 48
1.0
  6
BYLAYER
 10
38.0
 20
59.8591109885054635
 30
0.0
 11
44.0
 21
59.8591109885054635
 31
0.0
  0
LINE
  5
A4
100
AcDbEntity
100
AcDbLine
  8
arbre_armature
 62
256
370
-1
 48
1.0
  6
BYLAYER
 10
44.0
 20
64.8591109885054635
 30
0.0
 11
38.0
 21
64.8591109885054635
 31
0.0
  0
LINE
  5
A5
100
AcDbEntity
100
AcDbLine
  8
arbre_armature
 62
256
370
-1
 48
1.0
  6
BYLAYER
 10
38.0
 20
64.8591109885054635
 30
0.0
 11
38.0
 21
59.8591109885054635
 31
0.0
  0
LINE
  5
A6
100
AcDbEntity
100
AcDbLine
  8
arbre_armature
 62
256
370
-1
 48
1.0
  6
BYLAYER
 10
38.0
 20
5.0624564341910911
 30
0.0
 11
44.0
 21
5.0624564341910911
 31
0.0
  0
LINE
  5
A7
100
AcDbEntity
100
AcDbLine
  8
arbre_armature
 62
256
370
-1
 48
1.0
  6
BYLAYER
 10
44.0
 20
10.0624564341910911
 30
0.0
 11
38.0
 21
10.0624564341910911
 31
0.0
  0
LINE
  5
A8
100
AcDbEntity
100
AcDbLine
  8
arbre_armature
 62
256
370
-1
 48
1.0
  6
BYLAYER
 10
38.0
 20
10.0624564341910911
 30
0.0
 11
38.0
 21
5.0624564341910911
 31
0.0
  0
LINE
  5
A9
100
AcDbEntity
100
AcDbLine
  8
arbre_armature
 62
256
370
-1
 48
1.0
  6
BYLAYER
 10
38.0
 20
-57.2499999999999645
 30
0.0
 11
44.0
 21
-57.2499999999999645
 31
0.0
  0
LINE
  5
AA
100
AcDbEntity
100
AcDbLine
  8
arbre_armature
 62
256
370
-1
 48
1.0
  6
BYLAYER
 10
44.0
 20
-52.2499999999999645
 30
0.0
 11
38.0
 21
-52.2499999999999645
 31
0.0
  0
LINE
  5
AB
100
AcDbEntity
100
AcDbLine
  8
arbre_armature
 62
256
370
-1
 48
1.0
  6
BYLAYER
 10
38.0
 20
-52.2499999999999645
 30
0.0
 11
38.0
 21
-57.2499999999999645
 31
0.0
  0
LINE
  5
AC
100
AcDbEntity
100
AcDbLine
  8
arbre_armature
 62
256
370
-1
 48
1.0
  6
BYLAYER
 10
-44.0
 20
59.8591109885054777
 30
0.0
 11
-38.0
 21
59.8591109885054777
 31
0.0
  0
LINE
  5
AD
100
AcDbEntity
100
AcDbLine
  8
arbre_armature
 62
256
370
-1
 48
1.0
  6
BYLAYER
 10
-38.0
 20
59.8591109885054777
 30
0.0
 11
-38.0
 21
64.8591109885054777
 31
0.0
  0
LINE
  5
AE
100
AcDbEntity
100
AcDbLine
  8
arbre_armature
 62
256
370
-1
 48
1.0
  6
BYLAYER
 10
-38.0
 20
64.8591109885054777
 30
0.0
 11
-44.0
 21
64.8591109885054777
 31
0.0
  0
LINE
  5
AF
100
AcDbEntity
100
AcDbLine
  8
arbre_armature
 62
256
370
-1
 48
1.0
  6
BYLAYER
 10
-44.0
 20
5.0624564341910858
 30
0.0
 11
-38.0
 21
5.0624564341910858
 31
0.0
  0
LINE
  5
B0
100
AcDbEntity
100
AcDbLine
  8
arbre_armature
 62
256
370
-1
 48
1.0
  6
BYLAYER
 10
-38.0
 20
5.0624564341910858
 30
0.0
 11
-38.0
 21
10.0624564341910858
 31
0.0
  0
LINE
  5
B1
100
AcDbEntity
100
AcDbLine
  8
arbre_armature
 62
256
370
-1
 48
1.0
  6
BYLAYER
 10
-38.0
 20
10.0624564341910858
 30
0.0
 11
-44.0
 21
10.0624564341910858
 31
0.0
  0
LINE
  5
B2
100
AcDbEntity
100
AcDbLine
  8
arbre_armature
 62
256
370
-1
 48
1.0
  6
BYLAYER
 10
-44.0
 20
-57.2499999999999716
 30
0.0
 11
-38.0
 21
-57.2499999999999716
 31
0.0
  0
LINE
  5
B3
100
AcDbEntity
100
AcDbLine
  8
arbre_armature
 62
256
370
-1
 48
1.0
  6
BYLAYER
 10
-38.0
 20
-57.2499999999999716
 30
0.0
 11
-38.0
 21
-52.2499999999999716
 31
0.0
  0
LINE
  5
B4
100
AcDbEntity
100
AcDbLine
  8
arbre_armature
 62
256
370
-1
 48
1.0
  6
BYLAYER
 10
-38.0
 20
-52.2499999999999716
 30
0.0
 11
-44.0
 21
-52.2499999999999716
 31
0.0
  0
LINE
  5
B5
100
AcDbEntity
100
AcDbLine
  8
arbre_armature
 62
256
370
-1
 48
1.0
  6
BYLAYER
 10
-5.0
 20
-28.4999999999999964
 30
0.0
 11
-4.9999999999999929
 21
92.5
 31
0.0
  0
LINE
  5
B6
100
AcDbEntity
100
AcDbLine
  8
arbre_armature
 62
256
370
-1
 48
1.0
  6
BYLAYER
 10
5.0000000000000071
 20
-28.4999999999999964
 30
0.0
 11
5.000000000000008
 21
92.5
 31
0.0
  0
ARC
  5
B7
100
AcDbEntity
  8
arbre_armature
 62
256
370
-1
 48
1.0
  6
BYLAYER
100
AcDbCircle
 10
0.0000000000000058
 20
32.0
 30
0.0
 40
62.8358165275112128
100
AcDbArc
 50
45.5539319445803841
 51
74.3285935780103557
  0
ARC
  5
B8
100
AcDbEntity
  8
arbre_armature
 62
256
370
-1
 48
1.0
  6
BYLAYER
100
AcDbCircle
 10
0.0000000000000058
 20
32.0
 30
0.0
 40
62.8358165275112128
100
AcDbArc
 50
105.6714064219896727
 51
134.4460680554196585
  0
LINE
  5
B9
100
AcDbEntity
100
AcDbLine
  8
construction
 62
256
370
-1
 48
1.0
  6
BYLAYER
 10
66.6083754515701543
 20
54.8591109885054635
 30
0.0
 11
66.6083754515701543
 21
74.8591109885054635
 31
0.0
  0
LINE
  5
BA
100
AcDbEntity
100
AcDbLine
  8
construction
 62
256
370
-1
 48
1.0
  6
BYLAYER
 10
51.6083754515701543
 20
54.8591109885054635
 30
0.0
 11
51.6083754515701543
 21
76.8591109885054635
 31
0.0
  0
LINE
  5
BB
100
AcDbEntity
100
AcDbLine
  8
arbre_support_leds
 62
256
370
-1
 48
1.0
  6
BYLAYER
 10
-51.6083754515701401
 20
76.8591109885055346
 30
0.0
 11
-52.3073323404396433
 21
76.8591109885054493
 31
0.0
  0
LINE
  5
BC
100
AcDbEntity
100
AcDbLine
  8
arbre_support_leds
 62
256
370
-1
 48
1.0
  6
BYLAYER
 10
51.6083754515701614
 20
76.8591109885054635
 30
0.0
 11
52.3073323404396575
 21
76.8591109885054635
 31
0.0
  0
LINE
  5
BD
100
AcDbEntity
100
AcDbLine
  8
arbre_support_leds
 62
256
370
-1
 48
1.0
  6
BYLAYER
 10
-52.3073323404396433
 20
76.8591109885054493
 30
0.0
 11
-66.6083754515701685
 21
64.8591109885054635
 31
0.0
  0
LINE
  5
BE
100
AcDbEntity
100
AcDbLine
  8
arbre_support_leds
 62
256
370
-1
 48
1.0
  6
BYLAYER
 10
52.3073323404396575
 20
76.8591109885054635
 30
0.0
 11
66.6083754515701685
 21
64.8591109885054777
 31
0.0
  0
LINE
  5
BF
100
AcDbEntity
100
AcDbLine
  8
arbre_support_leds
 62
256
370
-1
 48
1.0
  6
BYLAYER
 10
-66.6083754515701685
 20
64.8591109885054635
 30
0.0
 11
-51.6083754515701472
 21
64.8591109885054351
 31
0.0
  0
LINE
  5
C0
100
AcDbEntity
100
AcDbLine
  8
arbre_support_leds
 62
256
370
-1
 48
1.0
  6
BYLAYER
 10
66.6083754515701685
 20
64.8591109885054777
 30
0.0
 11
51.6083754515701614
 21
64.8591109885054635
 31
0.0
  0
LINE
  5
C1
100
AcDbEntity
100
AcDbLine
  8
arbre_support_leds
 62
256
370
-1
 48
1.0
  6
BYLAYER
 10
-51.6083754515701472
 20
64.8591109885054351
 30
0.0
 11
-51.6083754515701258
 21
76.7647417975843211
 31
0.0
  0
LINE
  5
C2
100
AcDbEntity
100
AcDbLine
  8
arbre_support_leds
 62
256
370
-1
 48
1.0
  6
BYLAYER
 10
51.6083754515701614
 20
64.8591109885054635
 30
0.0
 11
51.6083754515701543
 21
76.7647417975842075
 31
0.0
  0
LINE
  5
C3
100
AcDbEntity
100
AcDbLine
  8
construction
 62
256
370
-1
 48
1.0
  6
BYLAYER
 10
92.1526790378800342
 20
0.0624564341910911
 30
0.0
 11
92.1526790378800342
 21
20.0624564341910911
 31
0.0
  0
LINE
  5
C4
100
AcDbEntity
100
AcDbLine
  8
construction
 62
256
370
-1
 48
1.0
  6
BYLAYER
 10
77.1526790378800342
 20
0.062456434191093
 30
0.0
 11
77.1526790378800342
 21
20.0624564341910947
 31
0.0
  0
LINE
  5
C5
100
AcDbEntity
100
AcDbLine
  8
arbre_support_leds
 62
256
370
-1
 48
1.0
  6
BYLAYER
 10
-90.0367552693784319
 20
22.0624564341910556
 30
0.0
 11
-92.1526790378800484
 21
10.0624564341911267
 31
0.0
  0
LINE
  5
C6
100
AcDbEntity
100
AcDbLine
  8
arbre_support_leds
 62
256
370
-1
 48
1.0
  6
BYLAYER
 10
90.0367552693784461
 20
22.0624564341910911
 30
0.0
 11
92.1526790378800342
 21
10.0624564341910911
 31
0.0
  0
LINE
  5
C7
100
AcDbEntity
100
AcDbLine
  8
arbre_support_leds
 62
256
370
-1
 48
1.0
  6
BYLAYER
 10
-92.1526790378800484
 20
10.0624564341911267
 30
0.0
 11
-77.1526790378800342
 21
10.0624564341910983
 31
0.0
  0
LINE
  5
C8
100
AcDbEntity
100
AcDbLine
  8
arbre_support_leds
 62
256
370
-1
 48
1.0
  6
BYLAYER
 10
92.1526790378800342
 20
10.0624564341910911
 30
0.0
 11
77.1526790378800342
 21
10.0624564341910894
 31
0.0
  0
LINE
  5
C9
100
AcDbEntity
100
AcDbLine
  8
arbre_support_leds
 62
256
370
-1
 48
1.0
  6
BYLAYER
 10
-77.1526790378800342
 20
10.0624564341910983
 30
0.0
 11
-77.1526790378800627
 21
22.0624564341911196
 31
0.0
  0
LINE
  5
CA
100
AcDbEntity
100
AcDbLine
  8
arbre_support_leds
 62
256
370
-1
 48
1.0
  6
BYLAYER
 10
77.1526790378800342
 20
10.0624564341910894
 30
0.0
 11
77.1526790378800342
 21
22.0624564341910911
 31
0.0
  0
LINE
  5
CB
100
AcDbEntity
100
AcDbLine
  8
arbre_support_leds
 62
256
370
-1
 48
1.0
  6
BYLAYER
 10
-77.1526790378800627
 20
22.0624564341911196
 30
0.0
 11
-90.0367552693784319
 21
22.0624564341910556
 31
0.0
  0
LINE
  5
CC
100
AcDbEntity
100
AcDbLine
  8
arbre_support_leds
 62
256
370
-1
 48
1.0
  6
BYLAYER
 10
77.1526790378800342
 20
22.0624564341910911
 30
0.0
 11
90.0367552693784461
 21
22.0624564341910911
 31
0.0
  0
LINE
  5
CD
100
AcDbEntity
100
AcDbLine
  8
construction
 62
256
370
-1
 48
1.0
  6
BYLAYER
 10
83.5714514651983507
 20
-50.2499999999999716
 30
0.0
 11
83.5714514651983507
 21
-30.2499999999999716
 31
0.0
  0
LINE
  5
CE
100
AcDbEntity
100
AcDbLine
  8
construction
 62
256
370
-1
 48
1.0
  6
BYLAYER
 10
68.5714514651983507
 20
-50.2499999999999716
 30
0.0
 11
68.5714514651983507
 21
-30.249999999999968
 31
0.0
  0
LINE
  5
CF
100
AcDbEntity
100
AcDbLine
  8
arbre_support_leds
 62
256
370
-1
 48
1.0
  6
BYLAYER
 10
-83.5714514651984217
 20
-40.2499999999999432
 30
0.0
 11
-76.643248234922865
 21
-52.2499999999999574
 31
0.0
  0
LINE
  5
D0
100
AcDbEntity
100
AcDbLine
  8
arbre_support_leds
 62
256
370
-1
 48
1.0
  6
BYLAYER
 10
83.5714514651983507
 20
-40.2499999999999716
 30
0.0
 11
76.6432482349228508
 21
-52.2499999999999716
 31
0.0
  0
LINE
  5
D1
100
AcDbEntity
100
AcDbLine
  8
arbre_support_leds
 62
256
370
-1
 48
1.0
  6
BYLAYER
 10
-76.643248234922865
 20
-52.2499999999999574
 30
0.0
 11
-68.5714514651983365
 21
-52.2499999999999574
 31
0.0
  0
LINE
  5
D2
100
AcDbEntity
100
AcDbLine
  8
arbre_support_leds
 62
256
370
-1
 48
1.0
  6
BYLAYER
 10
76.6432482349228508
 20
-52.2499999999999716
 30
0.0
 11
68.5714514651983649
 21
-52.2499999999999787
 31
0.0
  0
LINE
  5
D3
100
AcDbEntity
100
AcDbLine
  8
arbre_support_leds
 62
256
370
-1
 48
1.0
  6
BYLAYER
 10
-68.5714514651983365
 20
-52.2499999999999574
 30
0.0
 11
-68.5714514651983507
 21
-40.2499999999999574
 31
0.0
  0
LINE
  5
D4
100
AcDbEntity
100
AcDbLine
  8
arbre_support_leds
 62
256
370
-1
 48
1.0
  6
BYLAYER
 10
68.5714514651983649
 20
-52.2499999999999787
 30
0.0
 11
68.5714514651983507
 21
-40.2499999999999645
 31
0.0
  0
LINE
  5
D5
100
AcDbEntity
100
AcDbLine
  8
arbre_support_leds
 62
256
370
-1
 48
1.0
  6
BYLAYER
 10
-68.5714514651983507
 20
-40.2499999999999574
 30
0.0
 11
-83.5714514651984075
 21
-40.2499999999999147
 31
0.0
  0
LINE
  5
D6
100
AcDbEntity
100
AcDbLine
  8
arbre_support_leds
 62
256
370
-1
 48
1.0
  6
BYLAYER
 10
68.5714514651983507
 20
-40.2499999999999645
 30
0.0
 11
83.5714514651983649
 21
-40.2499999999999432
 31
0.0
  0
LINE
  5
D7
100
AcDbEntity
100
AcDbLine
  8
construction
 62
256
370
-1
 48
1.0
  6
BYLAYER
 10
-30.0
 20
-28.4999999999999929
 30
0.0
 11
-29.9999999999999929
 21
92.5
 31
0.0
  0
LINE
  5
D8
100
AcDbEntity
100
AcDbLine
  8
construction
 62
256
370
-1
 48
1.0
  6
BYLAYER
 10
30.0000000000000071
 20
-28.4999999999999964
 30
0.0
 11
30.0000000000000071
 21
92.5
 31
0.0
  0
LINE
  5
D9
100
AcDbEntity
100
AcDbLine
  8
construction
 62
256
370
-1
 48
1.0
  6
BYLAYER
 10
-17.4999999999999929
 20
87.2117726456871765
 30
0.0
 11
-17.5
 21
-28.5000000000000036
 31
0.0
  0
LINE
  5
DA
100
AcDbEntity
100
AcDbLine
  8
construction
 62
256
370
-1
 48
1.0
  6
BYLAYER
 10
17.5000000000000071
 20
-28.4999999999999964
 30
0.0
 11
17.5000000000000071
 21
92.5
 31
0.0
  0
CIRCLE
  5
DB
100
AcDbEntity
100
AcDbCircle
  8
arbre_bras2
 62
256
370
-1
 48
1.0
  6
BYLAYER
 10
-17.4999999999999929
 20
70.8591109885054635
 30
0.0
 40
1.4999999999999982
  0
CIRCLE
  5
DC
100
AcDbEntity
100
AcDbCircle
  8
arbre_bras2
 62
256
370
-1
 48
1.0
  6
BYLAYER
 10
-17.4999999999999964
 20
16.0624564341910911
 30
0.0
 40
1.4999999999999982
  0
LINE
  5
DD
100
AcDbEntity
100
AcDbLine
  8
arbre_bras
 62
256
370
-1
 48
1.0
  6
BYLAYER
 10
-23.5000000000001918
 20
-40.2500000000000142
 30
0.0
 11
-83.5714514651983791
 21
-40.2500000000000142
 31
0.0
  0
LINE
  5
DE
100
AcDbEntity
100
AcDbLine
  8
arbre_bras
 62
256
370
-1
 48
1.0
  6
BYLAYER
 10
23.5000000000002416
 20
-40.2500000000000142
 30
0.0
 11
83.5714514651983791
 21
-40.2500000000000142
 31
0.0
  0
LINE
  5
DF
100
AcDbEntity
100
AcDbLine
  8
arbre_bras
 62
256
370
-1
 48
1.0
  6
BYLAYER
 10
-23.5000000000000426
 20
-52.2500000000000142
 30
0.0
 11
-76.6432482349228366
 21
-52.2500000000000142
 31
0.0
  0
LINE
  5
E0
100
AcDbEntity
100
AcDbLine
  8
arbre_bras
 62
256
370
-1
 48
1.0
  6
BYLAYER
 10
23.5000000000000284
 20
-52.2500000000000142
 30
0.0
 11
76.6432482349228508
 21
-52.2500000000000142
 31
0.0
  0
CIRCLE
  5
E1
100
AcDbEntity
100
AcDbCircle
  8
arbre_bras
 62
256
370
-1
 48
1.0
  6
BYLAYER
 10
31.5
 20
-46.2500000000000142
 30
0.0
 40
1.5000000000000018
  0
CIRCLE
  5
E2
100
AcDbEntity
100
AcDbCircle
  8
arbre_bras
 62
256
370
-1
 48
1.0
  6
BYLAYER
 10
-31.5000000000000604
 20
-46.2500000000000142
 30
0.0
 40
1.5000000000000018
  0
ARC
  5
E3
100
AcDbEntity
  8
arbre_bras2
 62
256
370
-1
 48
1.0
  6
BYLAYER
100
AcDbCircle
 10
-31.5000000000000604
 20
-46.2500000000000142
 30
0.0
 40
10.0
100
AcDbArc
 50
323.1301023541558948
 51
36.8698976458447163
  0
ARC
  5
E4
100
AcDbEntity
  8
arbre_bras
 62
256
370
-1
 48
1.0
  6
BYLAYER
100
AcDbCircle
 10
31.5
 20
-46.2500000000000142
 30
0.0
 40
10.0
100
AcDbArc
 50
143.1301023541552695
 51
216.8698976458441052
  0
ARC
  5
E5
100
AcDbEntity
  8
arbre_bras2
 62
256
370
-1
 48
1.0
  6
BYLAYER
100
AcDbCircle
 10
-17.4999999999999964
 20
16.0624564341910911
 30
0.0
 40
10.0
100
AcDbArc
 50
323.1301023541555537
 51
36.8698976458443752
  0
LINE
  5
E6
100
AcDbEntity
100
AcDbLine
  8
arbre_bras2
 62
256
370
-1
 48
1.0
  6
BYLAYER
 10
-9.5000000000001563
 20
10.0624564341911107
 30
0.0
 11
-87.0755459784513164
 21
10.0624564341911249
 31
0.0
  0
LINE
  5
E7
100
AcDbEntity
100
AcDbLine
  8
arbre_bras2
 62
256
370
-1
 48
1.0
  6
BYLAYER
 10
-84.9596222099496998
 20
22.0624564341910556
 30
0.0
 11
-9.5000000000000995
 21
22.0624564341910698
 31
0.0
  0
ARC
  5
E8
100
AcDbEntity
  8
arbre_bras2
 62
256
370
-1
 48
1.0
  6
BYLAYER
100
AcDbCircle
 10
-17.4999999999999929
 20
70.8591109885054635
 30
0.0
 40
10.0
100
AcDbArc
 50
323.1301023541560653
 51
36.869897645843885
  0
LINE
  5
E9
100
AcDbEntity
100
AcDbLine
  8
arbre_bras2
 62
256
370
-1
 48
1.0
  6
BYLAYER
 10
-9.4999999999999716
 20
76.8591109885054493
 30
0.0
 11
-44.5287132061375814
 21
76.8591109885054493
 31
0.0
  0
LINE
  5
EA
100
AcDbEntity
100
AcDbLine
  8
arbre_bras2
 62
256
370
-1
 48
1.0
  6
BYLAYER
 10
-58.8297563172680995
 20
64.8591109885054635
 30
0.0
 11
-9.4999999999999432
 21
64.8591109885054635
 31
0.0
  0
LINE
  5
EB
100
AcDbEntity
100
AcDbLine
  8
arbre_armature2
 62
256
370
-1
 48
1.0
  6
BYLAYER
 10
-4.9999999999999964
 20
32.0
 30
0.0
 11
5.0000000000000071
 21
32.0
 31
0.0
  0
LINE
  5
EC
100
AcDbEntity
100
AcDbLine
  8
arbre_armature2
 62
256
370
-1
 48
1.0
  6
BYLAYER
 10
-4.9999999999999929
 20
92.5
 30
0.0
 11
4.999999999999992
 21
92.5
 31
0.0
  0
LINE
  5
ED
100
AcDbEntity
100
AcDbLine
  8
arbre_armature2
 62
256
370
-1
 48
1.0
  6
BYLAYER
 10
-5.0
 20
-28.5000000000000036
 30
0.0
 11
5.0000000000000213
 21
-28.5
 31
0.0
  0
LINE
  5
EE
100
AcDbEntity
100
AcDbLine
  8
verifs
 62
256
370
-1
 48
1.0
  6
BYLAYER
 10
-52.7763244402212166
 20
82.1276017191368197
 30
0.0
 11
-40.9281512613543512
 21
84.9732871756993546
 31
0.0
  0
LINE
  5
EF
100
AcDbEntity
100
AcDbLine
  8
verifs
 62
256
370
-1
 48
1.0
  6
BYLAYER
 10
-40.9281512613543512
 20
84.9732871756993546
 30
0.0
 11
-8.8071772590661919
 21
11.1192962309706687
 31
0.0
  0
CIRCLE
  5
F0
100
AcDbEntity
100
AcDbCircle
  8
verifs
 62
256
370
-1
 48
1.0
  6
BYLAYER
 10
-17.4999999999999964
 20
16.0624564341910911
 30
0.0
 40
1.4999999999999982
  0
ARC
  5
F1
100
AcDbEntity
  8
verifs
 62
256
370
-1
 48
1.0
  6
BYLAYER
100
AcDbCircle
 10
-17.4999999999999964
 20
16.0624564341910911
 30
0.0
 40
10.0
100
AcDbArc
 50
256.63554665587003
 51
330.3753419475588089
  0
LINE
  5
F2
100
AcDbEntity
100
AcDbLine
  8
verifs
 62
256
370
-1
 48
1.0
  6
BYLAYER
 10
-19.8114434276302553
 20
6.3332617459929939
 30
0.0
 11
-52.7763244402212166
 21
82.1276017191368197
 31
0.0
  0
CIRCLE
  5
F3
100
AcDbEntity
100
AcDbCircle
  8
verifs
 62
256
370
-1
 48
1.0
  6
BYLAYER
 10
-17.4999999999999964
 20
16.0624564341910911
 30
0.0
 40
1.4999999999999982
  0
CIRCLE
  5
F4
100
AcDbEntity
100
AcDbCircle
  8
verifs
 62
256
370
-1
 48
1.0
  6
BYLAYER
 10
-17.4999999999999964
 20
16.0624564341910911
 30
0.0
 40
1.4999999999999982
  0
LINE
  5
F5
100
AcDbEntity
100
AcDbLine
  8
verifs
 62
256
370
-1
 48
1.0
  6
BYLAYER
 10
-23.3861861666031814
 20
-52.0951710904793046
 30
0.0
 11
-41.3111973897967104
 21
5.2395762603554061
 31
0.0
  0
LINE
  5
F6
100
AcDbEntity
100
AcDbLine
  8
verifs
 62
256
370
-1
 48
1.0
  6
BYLAYER
 10
-48.2885849780579832
 20
-12.6577995931930474
 30
0.0
 11
-36.8352747711519086
 21
-9.077061498277196
 31
0.0
  0
LINE
  5
F7
100
AcDbEntity
100
AcDbLine
  8
verifs
 62
256
370
-1
 48
1.0
  6
BYLAYER
 10
-34.8394963735091991
 20
-55.6759091853952768
 30
0.0
 11
-50.6971674937055354
 21
-4.9537335656299462
 31
0.0
  0
LINE
  5
F8
100
AcDbEntity
100
AcDbLine
  8
verifs
 62
256
370
-1
 48
1.0
  6
BYLAYER
 10
-36.8352747711519086
 20
-9.077061498277196
 30
0.0
 11
-41.3111973897967175
 21
5.2395762603554346
 31
0.0
  0
CIRCLE
  5
F9
100
AcDbEntity
100
AcDbCircle
  8
verifs
 62
256
370
-1
 48
1.0
  6
BYLAYER
 10
-31.5000000000000604
 20
-46.2499999999999716
 30
0.0
 40
1.5000000000000018
  0
LINE
  5
FA
100
AcDbEntity
100
AcDbLine
  8
verifs
 62
256
370
-1
 48
1.0
  6
BYLAYER
 10
-50.6971674937056136
 20
-4.9537335656299746
 30
0.0
 11
-41.3111973897967104
 21
5.239576260355399
 31
0.0
  0
ARC
  5
FB
100
AcDbEntity
  8
verifs
 62
256
370
-1
 48
1.0
  6
BYLAYER
100
AcDbCircle
 10
-31.5000000000000462
 20
-46.2500000000000142
 30
0.0
 40
10.0
100
AcDbArc
 50
250.4913214058258006
 51
324.2311166975147216
  0
LINE
  5
FC
100
AcDbEntity
100
AcDbLine
  8
verifs
 62
256
370
-1
 48
1.0
  6
BYLAYER
 10
-41.3111973897967175
 20
5.2395762603554488
 30
0.0
 11
-50.6971674937055496
 21
-4.9537335656299177
 31
0.0
  0
LINE
  5
FD
100
AcDbEntity
100
AcDbLine
  8
verifs
 62
256
370
-1
 48
1.0
  6
BYLAYER
 10
-50.6971674937055496
 20
-4.9537335656299177
 30
0.0
 11
-48.2885849780579832
 21
-12.6577995931930474
 31
0.0
  0
LINE
  5
FE
100
AcDbEntity
100
AcDbLine
  8
arbre_bras2
 62
256
370
-1
 48
1.0
  6
BYLAYER
 10
-84.9596222099496998
 20
22.0624564341910556
 30
0.0
 11
-87.0755459784513164
 21
10.0624564341911231
 31
0.0
  0
LINE
  5
FF
100
AcDbEntity
100
AcDbLine
  8
arbre_bras2
 62
256
370
-1
 48
1.0
  6
BYLAYER
 10
-70.8697455430266103
 20
-52.2499999999999716
 30
0.0
 11
-77.7979487733021386
 21
-40.2499999999999716
 31
0.0
  0
LINE
  5
100
100
AcDbEntity
100
AcDbLine
  8
arbre_bras2
 62
256
370
-1
 48
1.0
  6
BYLAYER
 10
-44.5287132061375814
 20
76.8591109885054493
 30
0.0
 11
-58.8297563172680995
 21
64.8591109885054635
 31
0.0
  0
CIRCLE
  5
101
100
AcDbEntity
100
AcDbCircle
  8
verifs
 62
256
370
-1
 48
1.0
  6
BYLAYER
 10
-31.5000000000000604
 20
-46.2499999999999716
 30
0.0
 40
32.6278715071113652
  0
LINE
  5
102
100
AcDbEntity
100
AcDbLine
  8
verifs
 62
256
370
-1
 48
1.0
  6
BYLAYER
 10
-22.9203930922716879
 20
-51.387153424695164
 30
0.0
 11
-43.4525839922621486
 21
-1.1208985628649302
 31
0.0
  0
LINE
  5
103
100
AcDbEntity
100
AcDbLine
  8
verifs
 62
256
370
-1
 48
1.0
  6
BYLAYER
 10
-34.0293773535436017
 20
-55.9248255903339597
 30
0.0
 11
-51.9417420072083971
 21
-12.0723457821723059
 31
0.0
  0
ARC
  5
104
100
AcDbEntity
  8
verifs
 62
256
370
-1
 48
1.0
  6
BYLAYER
100
AcDbCircle
 10
-31.5000000000000426
 20
-46.2500000000000142
 30
0.0
 40
10.0
100
AcDbArc
 50
255.3485794204246986
 51
329.0883747121135912
  0
LINE
  5
105
100
AcDbEntity
100
AcDbLine
  8
verifs
 62
256
370
-1
 48
1.0
  6
BYLAYER
 10
-51.9417420072083971
 20
-12.0723457821723059
 30
0.0
 11
-43.4525839922621486
 21
-1.1208985628649302
 31
0.0
  0
LINE
  5
106
100
AcDbEntity
100
AcDbLine
  8
arbre_bras2
 62
256
370
-1
 48
1.0
  6
BYLAYER
 10
84.9596222099496998
 20
22.0624564341910627
 30
0.0
 11
87.0755459784513022
 21
10.0624564341911196
 31
0.0
  0
ARC
  5
107
100
AcDbEntity
  8
arbre_armature2
 62
256
370
-1
 48
1.0
  6
BYLAYER
100
AcDbCircle
 10
-0.0000000000003145
 20
31.9999999999990479
 30
0.0
 40
62.8358165275122147
100
AcDbArc
 50
61.4820073504025757
 51
74.328593578010242
  0
LINE
  5
108
100
AcDbEntity
100
AcDbLine
  8
arbre_bras2
 62
256
370
-1
 48
1.0
  6
BYLAYER
 10
70.8697455430265393
 20
-52.25
 30
0.0
 11
77.7979487733020818
 21
-40.25
 31
0.0
  0
LINE
  5
109
100
AcDbEntity
100
AcDbLine
  8
arbre_bras2
 62
256
370
-1
 48
1.0
  6
BYLAYER
 10
44.5287132061375672
 20
76.8591109885054209
 30
0.0
 11
58.8297563172680782
 21
64.8591109885054351
 31
0.0
  0
LINE
  5
10A
100
AcDbEntity
100
AcDbLine
  8
arbre_bras2
 62
256
370
-1
 48
1.0
  6
BYLAYER
 10
23.500000000000135
 20
-40.2499999999999716
 30
0.0
 11
77.7979487733020818
 21
-40.25
 31
0.0
  0
LINE
  5
10B
100
AcDbEntity
100
AcDbLine
  8
arbre_bras2
 62
256
370
-1
 48
1.0
  6
BYLAYER
 10
23.4999999999999858
 20
-52.2499999999999716
 30
0.0
 11
70.8697455430265393
 21
-52.25
 31
0.0
  0
ARC
  5
10C
100
AcDbEntity
  8
arbre_armature2
 62
256
370
-1
 48
1.0
  6
BYLAYER
100
AcDbCircle
 10
36.9999999999999929
 20
-28.5
 30
0.0
 40
7.0
100
AcDbArc
 50
360.0
 51
89.9999999999999858
  0
ARC
  5
10D
100
AcDbEntity
  8
arbre_bras2
 62
256
370
-1
 48
1.0
  6
BYLAYER
100
AcDbCircle
 10
31.5000000000000107
 20
-46.2500000000000284
 30
0.0
 40
10.0
100
AcDbArc
 50
143.1301023541552411
 51
216.8698976458441052
  0
ARC
  5
10E
100
AcDbEntity
  8
arbre_armature2
 62
256
370
-1
 48
1.0
  6
BYLAYER
100
AcDbCircle
 10
36.9999999999999858
 20
-14.5000000000000142
 30
0.0
 40
7.0
100
AcDbArc
 50
180.0
 51
270.0
  0
ARC
  5
10F
100
AcDbEntity
  8
arbre_bras2
 62
256
370
-1
 48
1.0
  6
BYLAYER
100
AcDbCircle
 10
17.499999999999968
 20
16.0624564341910911
 30
0.0
 40
10.0
100
AcDbArc
 50
143.1301023541555537
 51
216.8698976458443894
  0
LINE
  5
110
100
AcDbEntity
100
AcDbLine
  8
arbre_bras2
 62
256
370
-1
 48
1.0
  6
BYLAYER
 10
9.5000000000001581
 20
10.0624564341911054
 30
0.0
 11
87.0755459784513022
 21
10.0624564341911196
 31
0.0
  0
LINE
  5
111
100
AcDbEntity
100
AcDbLine
  8
arbre_bras2
 62
256
370
-1
 48
1.0
  6
BYLAYER
 10
84.9596222099496998
 20
22.0624564341910627
 30
0.0
 11
9.5000000000001243
 21
22.0624564341910627
 31
0.0
  0
ARC
  5
112
100
AcDbEntity
  8
arbre_bras2
 62
256
370
-1
 48
1.0
  6
BYLAYER
100
AcDbCircle
 10
17.4999999999999929
 20
70.8591109885054635
 30
0.0
 40
10.0
100
AcDbArc
 50
143.1301023541560653
 51
216.8698976458438779
  0
LINE
  5
113
100
AcDbEntity
100
AcDbLine
  8
arbre_armature2
 62
256
370
-1
 48
1.0
  6
BYLAYER
 10
43.9999999999999645
 20
-71.5
 30
0.0
 11
18.9999999999999787
 21
-71.5
 31
0.0
  0
LINE
  5
114
100
AcDbEntity
100
AcDbLine
  8
arbre_bras2
 62
256
370
-1
 48
1.0
  6
BYLAYER
 10
9.4999999999999627
 20
76.8591109885054493
 30
0.0
 11
44.5287132061375672
 21
76.8591109885054209
 31
0.0
  0
LINE
  5
115
100
AcDbEntity
100
AcDbLine
  8
arbre_armature2
 62
256
370
-1
 48
1.0
  6
BYLAYER
 10
18.9999999999999787
 20
-71.5
 30
0.0
 11
18.9999999999999467
 21
-28.5
 31
0.0
  0
CIRCLE
  5
116
100
AcDbEntity
100
AcDbCircle
  8
arbre_bras2
 62
256
370
-1
 48
1.0
  6
BYLAYER
 10
31.5000000000000071
 20
-46.25
 30
0.0
 40
1.5000000000000018
  0
LINE
  5
117
100
AcDbEntity
100
AcDbLine
  8
arbre_armature2
 62
256
370
-1
 48
1.0
  6
BYLAYER
 10
18.9999999999999467
 20
-28.5
 30
0.0
 11
5.0000000000000213
 21
-28.5
 31
0.0
  0
LINE
  5
118
100
AcDbEntity
100
AcDbLine
  8
arbre_armature2
 62
256
370
-1
 48
1.0
  6
BYLAYER
 10
5.0000000000000213
 20
-28.5
 30
0.0
 11
4.999999999999992
 21
92.5
 31
0.0
  0
LINE
  5
119
100
AcDbEntity
100
AcDbLine
  8
arbre_armature2
 62
256
370
-1
 48
1.0
  6
BYLAYER
 10
4.999999999999992
 20
92.5
 30
0.0
 11
16.9732094395565269
 21
92.4999999999999858
 31
0.0
  0
LINE
  5
11A
100
AcDbEntity
100
AcDbLine
  8
arbre_bras2
 62
256
370
-1
 48
1.0
  6
BYLAYER
 10
58.8297563172680782
 20
64.8591109885054351
 30
0.0
 11
9.4999999999999432
 21
64.8591109885054635
 31
0.0
  0
CIRCLE
  5
11B
100
AcDbEntity
100
AcDbCircle
  8
arbre_bras2
 62
256
370
-1
 48
1.0
  6
BYLAYER
 10
17.4999999999999929
 20
70.8591109885054635
 30
0.0
 40
1.4999999999999982
  0
CIRCLE
  5
11C
100
AcDbEntity
100
AcDbCircle
  8
arbre_bras2
 62
256
370
-1
 48
1.0
  6
BYLAYER
 10
17.499999999999968
 20
16.0624564341910911
 30
0.0
 40
1.4999999999999982
  0
ARC
  5
11D
100
AcDbEntity
  8
construction
 62
256
370
-1
 48
1.0
  6
BYLAYER
100
AcDbCircle
 10
0.0
 20
0.0
 30
0.0
 40
87.5
100
AcDbArc
 50
303.2030991980404337
 51
236.796900801959481
  0
LINE
  5
11E
100
AcDbEntity
100
AcDbLine
  8
construction
 62
256
370
-1
 48
1.0
  6
BYLAYER
 10
-75.7772228311384026
 20
-43.7499999999999645
 30
0.0
 11
75.7772228311383884
 21
-43.7499999999999929
 31
0.0
  0
LINE
  5
11F
100
AcDbEntity
100
AcDbLine
  8
construction
 62
256
370
-1
 48
1.0
  6
BYLAYER
 10
-86.1706783885681915
 20
15.1942155458564336
 30
0.0
 11
86.1706783885682057
 21
15.1942155458564034
 31
0.0
  0
LINE
  5
120
100
AcDbEntity
100
AcDbLine
  8
construction
 62
256
370
-1
 48
1.0
  6
BYLAYER
 10
-56.2439158475721896
 20
67.0288887729105767
 30
0.0
 11
56.2439158475721896
 21
67.0288887729105767
 31
0.0
  0
CIRCLE
  5
121
100
AcDbEntity
100
AcDbCircle
  8
arbre_bras3
 62
256
370
-1
 48
1.0
  6
BYLAYER
 10
17.5000000000000071
 20
15.1942155458564159
 30
0.0
 40
1.5
  0
CIRCLE
  5
122
100
AcDbEntity
100
AcDbCircle
  8
arbre_bras3
 62
256
370
-1
 48
1.0
  6
BYLAYER
 10
17.5000000000000071
 20
67.0288887729105767
 30
0.0
 40
1.5
  0
CIRCLE
  5
123
100
AcDbEntity
100
AcDbCircle
  8
arbre_bras3
 62
256
370
-1
 48
1.0
  6
BYLAYER
 10
31.5
 20
-43.7499999999999858
 30
0.0
 40
1.5
  0
RAY
  5
124
100
AcDbEntity
100
AcDbLine
  8
arbre_bras3
 62
256
370
-1
 48
1.0
  6
BYLAYER
 10
75.7772228311383884
 20
-43.7499999999999929
 30
0.0
 11
0.0
 21
0.0
 31
0.0
  0
LINE
  5
125
100
AcDbEntity
100
AcDbLine
  8
arbre_bras3
 62
256
370
-1
 48
1.0
  6
BYLAYER
 10
72.3131212160006385
 20
-49.7499999999999929
 30
0.0
 11
79.2413244462761384
 21
-37.7499999999999929
 31
0.0
  0
LINE
  5
126
100
AcDbEntity
100
AcDbLine
  8
arbre_bras3
 62
256
370
-1
 48
1.0
  6
BYLAYER
 10
87.2286402728189785
 20
9.1942155458564034
 30
0.0
 11
85.1127165043173903
 21
21.1942155458564017
 31
0.0
  0
LINE
  5
127
100
AcDbEntity
100
AcDbLine
  8
arbre_bras3
 62
256
370
-1
 48
1.0
  6
BYLAYER
 10
63.394437403137438
 20
61.0288887729105767
 30
0.0
 11
49.0933942920069271
 21
73.0288887729105767
 31
0.0
  0
ARC
  5
128
100
AcDbEntity
  8
arbre_bras3
 62
256
370
-1
 48
1.0
  6
BYLAYER
100
AcDbCircle
 10
17.5000000000000071
 20
67.0288887729105767
 30
0.0
 40
10.0
100
AcDbArc
 50
143.1301023541557527
 51
216.8698976458442473
  0
LINE
  5
129
100
AcDbEntity
100
AcDbLine
  8
arbre_bras3
 62
256
370
-1
 48
1.0
  6
BYLAYER
 10
9.5000000000000782
 20
73.0288887729105767
 30
0.0
 11
49.0933942920069271
 21
73.0288887729105767
 31
0.0
  0
LINE
  5
12A
100
AcDbEntity
100
AcDbLine
  8
arbre_bras3
 62
256
370
-1
 48
1.0
  6
BYLAYER
 10
9.5000000000000782
 20
61.0288887729105767
 30
0.0
 11
63.394437403137438
 21
61.0288887729105767
 31
0.0
  0
LINE
  5
12B
100
AcDbEntity
100
AcDbLine
  8
arbre_bras3
 62
256
370
-1
 48
1.0
  6
BYLAYER
 10
9.4999999999998863
 20
21.1942155458564159
 30
0.0
 11
85.1127165043173903
 21
21.1942155458564017
 31
0.0
  0
ARC
  5
12C
100
AcDbEntity
  8
arbre_bras3
 62
256
370
-1
 48
1.0
  6
BYLAYER
100
AcDbCircle
 10
17.5000000000000071
 20
15.1942155458564159
 30
0.0
 40
10.0
100
AcDbArc
 50
143.13010235415598
 51
216.8698976458436221
  0
LINE
  5
12D
100
AcDbEntity
100
AcDbLine
  8
arbre_bras3
 62
256
370
-1
 48
1.0
  6
BYLAYER
 10
9.4999999999998863
 20
9.1942155458564176
 30
0.0
 11
87.2286402728189785
 21
9.1942155458564034
 31
0.0
  0
ARC
  5
12E
100
AcDbEntity
  8
arbre_bras3
 62
256
370
-1
 48
1.0
  6
BYLAYER
100
AcDbCircle
 10
31.5
 20
-43.7499999999999858
 30
0.0
 40
10.0
100
AcDbArc
 50
143.1301023541563779
 51
216.8698976458436221
  0
LINE
  5
12F
100
AcDbEntity
100
AcDbLine
  8
arbre_bras3
 62
256
370
-1
 48
1.0
  6
BYLAYER
 10
23.4999999999998863
 20
-37.7499999999999858
 30
0.0
 11
79.2413244462761384
 21
-37.7499999999999929
 31
0.0
  0
LINE
  5
130
100
AcDbEntity
100
AcDbLine
  8
arbre_bras3
 62
256
370
-1
 48
1.0
  6
BYLAYER
 10
23.5
 20
-49.7499999999999858
 30
0.0
 11
72.3131212160006385
 21
-49.7499999999999929
 31
0.0
  0
LINE
  5
131
100
AcDbEntity
100
AcDbLine
  8
arbre_armature2
 62
256
370
-1
 48
1.0
  6
BYLAYER
 10
-43.9999999999999716
 20
-71.5
 30
0.0
 11
-19.0000000000000426
 21
-71.4999999999999716
 31
0.0
  0
ARC
  5
132
100
AcDbEntity
  8
arbre_bras3
 62
256
370
-1
 48
1.0
  6
BYLAYER
100
AcDbCircle
 10
-17.5000000000000391
 20
15.1942155458564372
 30
0.0
 40
10.0
100
AcDbArc
 50
323.1301023541564064
 51
36.8698976458439986
  0
LINE
  5
133
100
AcDbEntity
100
AcDbLine
  8
arbre_armature2
 62
256
370
-1
 48
1.0
  6
BYLAYER
 10
-19.0000000000000426
 20
-71.4999999999999716
 30
0.0
 11
-19.0000000000000178
 21
-28.5
 31
0.0
  0
LINE
  5
134
100
AcDbEntity
100
AcDbLine
  8
arbre_bras3
 62
256
370
-1
 48
1.0
  6
BYLAYER
 10
-9.4999999999999236
 20
9.194215545856423
 30
0.0
 11
-87.2286402728189785
 21
9.194215545856423
 31
0.0
  0
LINE
  5
135
100
AcDbEntity
100
AcDbLine
  8
arbre_armature2
 62
256
370
-1
 48
1.0
  6
BYLAYER
 10
-19.0000000000000178
 20
-28.5
 30
0.0
 11
-5.0000000000000036
 21
-28.5
 31
0.0
  0
LINE
  5
136
100
AcDbEntity
100
AcDbLine
  8
arbre_armature2
 62
256
370
-1
 48
1.0
  6
BYLAYER
 10
-5.0000000000000036
 20
-28.5
 30
0.0
 11
-5.0000000000000009
 21
92.5
 31
0.0
  0
LINE
  5
137
100
AcDbEntity
100
AcDbLine
  8
arbre_armature2
 62
256
370
-1
 48
1.0
  6
BYLAYER
 10
-5.0000000000000009
 20
92.5
 30
0.0
 11
-16.9732094395565198
 21
92.4999999999999716
 31
0.0
  0
ARC
  5
138
100
AcDbEntity
  8
arbre_bras3
 62
256
370
-1
 48
1.0
  6
BYLAYER
100
AcDbCircle
 10
-31.5000000000000178
 20
-43.75
 30
0.0
 40
10.0
100
AcDbArc
 50
323.1301023541564064
 51
36.8698976458435936
  0
LINE
  5
139
100
AcDbEntity
100
AcDbLine
  8
arbre_bras3
 62
256
370
-1
 48
1.0
  6
BYLAYER
 10
-23.4999999999999147
 20
-37.75
 30
0.0
 11
-79.2413244462761526
 21
-37.7499999999999716
 31
0.0
  0
LINE
  5
13A
100
AcDbEntity
100
AcDbLine
  8
arbre_bras3
 62
256
370
-1
 48
1.0
  6
BYLAYER
 10
-23.4999999999999538
 20
-49.7499999999999716
 30
0.0
 11
-72.3131212160006953
 21
-49.7499999999999716
 31
0.0
  0
CIRCLE
  5
13B
100
AcDbEntity
100
AcDbCircle
  8
arbre_bras3
 62
256
370
-1
 48
1.0
  6
BYLAYER
 10
-17.5000000000000391
 20
15.1942155458564372
 30
0.0
 40
1.5
  0
CIRCLE
  5
13C
100
AcDbEntity
100
AcDbCircle
  8
arbre_bras3
 62
256
370
-1
 48
1.0
  6
BYLAYER
 10
-17.5
 20
67.0288887729105767
 30
0.0
 40
1.5
  0
CIRCLE
  5
13D
100
AcDbEntity
100
AcDbCircle
  8
arbre_bras3
 62
256
370
-1
 48
1.0
  6
BYLAYER
 10
-31.5000000000000178
 20
-43.75
 30
0.0
 40
1.5
  0
LINE
  5
13E
100
AcDbEntity
100
AcDbLine
  8
arbre_bras3
 62
256
370
-1
 48
1.0
  6
BYLAYER
 10
-72.3131212160006953
 20
-49.7499999999999716
 30
0.0
 11
-79.2413244462761526
 21
-37.7499999999999716
 31
0.0
  0
LINE
  5
13F
100
AcDbEntity
100
AcDbLine
  8
arbre_bras3
 62
256
370
-1
 48
1.0
  6
BYLAYER
 10
-87.2286402728189785
 20
9.194215545856423
 30
0.0
 11
-85.1127165043173903
 21
21.1942155458563946
 31
0.0
  0
LINE
  5
140
100
AcDbEntity
100
AcDbLine
  8
arbre_bras3
 62
256
370
-1
 48
1.0
  6
BYLAYER
 10
-63.3944374031374664
 20
61.0288887729106122
 30
0.0
 11
-49.0933942920069413
 21
73.0288887729105909
 31
0.0
  0
ARC
  5
141
100
AcDbEntity
  8
arbre_armature2
 62
256
370
-1
 48
1.0
  6
BYLAYER
100
AcDbCircle
 10
0.0000000000002965
 20
31.9999999999990479
 30
0.0
 40
62.8358165275122147
100
AcDbArc
 50
105.6714064219897722
 51
118.5179926495974314
  0
ARC
  5
142
100
AcDbEntity
  8
arbre_bras3
 62
256
370
-1
 48
1.0
  6
BYLAYER
100
AcDbCircle
 10
-17.5
 20
67.0288887729105767
 30
0.0
 40
10.0
100
AcDbArc
 50
323.1301023541557811
 51
36.8698976458442047
  0
LINE
  5
143
100
AcDbEntity
100
AcDbLine
  8
arbre_armature2
 62
256
370
-1
 48
1.0
  6
BYLAYER
 10
4.9999999999999796
 20
32.0
 30
0.0
 11
-5.0000000000000107
 21
32.0000000000000142
 31
0.0
  0
LINE
  5
144
100
AcDbEntity
100
AcDbLine
  8
arbre_armature2
 62
256
370
-1
 48
1.0
  6
BYLAYER
 10
4.9999999999999902
 20
92.5
 30
0.0
 11
-5.0000000000000009
 21
92.5
 31
0.0
  0
LINE
  5
145
100
AcDbEntity
100
AcDbLine
  8
arbre_armature2
 62
256
370
-1
 48
1.0
  6
BYLAYER
 10
4.9999999999999494
 20
-28.5
 30
0.0
 11
-5.0000000000000036
 21
-28.5
 31
0.0
  0
LINE
  5
146
100
AcDbEntity
100
AcDbLine
  8
arbre_bras3
 62
256
370
-1
 48
1.0
  6
BYLAYER
 10
-9.5000000000000675
 20
73.0288887729105767
 30
0.0
 11
-49.0933942920069413
 21
73.0288887729105909
 31
0.0
  0
LINE
  5
147
100
AcDbEntity
100
AcDbLine
  8
arbre_bras3
 62
256
370
-1
 48
1.0
  6
BYLAYER
 10
-9.5000000000000941
 20
61.0288887729105767
 30
0.0
 11
-63.3944374031374664
 21
61.0288887729106122
 31
0.0
  0
ARC
  5
148
100
AcDbEntity
  8
arbre_armature2
 62
256
370
-1
 48
1.0
  6
BYLAYER
100
AcDbCircle
 10
-37.0000000000000284
 20
-28.4999999999999716
 30
0.0
 40
7.0
100
AcDbArc
 50
89.9999999999999858
 51
180.0
  0
ARC
  5
149
100
AcDbEntity
  8
arbre_armature2
 62
256
370
-1
 48
1.0
  6
BYLAYER
100
AcDbCircle
 10
-36.9999999999999929
 20
-14.5
 30
0.0
 40
7.0
100
AcDbArc
 50
270.0
 51
360.0
  0
LINE
  5
14A
100
AcDbEntity
100
AcDbLine
  8
arbre_bras3
 62
256
370
-1
 48
1.0
  6
BYLAYER
 10
-9.4999999999998561
 20
21.194215545856423
 30
0.0
 11
-85.1127165043173903
 21
21.1942155458563946
 31
0.0
  0
LINE
  5
14B
100
AcDbEntity
100
AcDbLine
  8
arbre_armature2
 62
256
370
-1
 48
1.0
  6
BYLAYER
 10
4.9999999999999796
 20
33.5874999999999986
 30
0.0
 11
-5.0000000000000107
 21
33.5875000000000128
 31
0.0
  0
LINE
  5
14C
100
AcDbEntity
100
AcDbLine
  8
arbre_armature2
 62
256
370
-1
 48
1.0
  6
BYLAYER
 10
-4.9999999999999964
 20
30.4125000000000014
 30
0.0
 11
5.0000000000000071
 21
30.4125000000000014
 31
0.0
  0
LINE
  5
14D
100
AcDbEntity
100
AcDbLine
  8
arbre_armature2
 62
256
370
-1
 48
1.0
  6
BYLAYER
 10
-30.0
 20
61.0288887729105909
 30
0.0
 11
-24.0
 21
61.0288887729105838
 31
0.0
  0
LINE
  5
14E
100
AcDbEntity
100
AcDbLine
  8
arbre_armature2
 62
256
370
-1
 48
1.0
  6
BYLAYER
 10
-29.9999999999999929
 20
9.194215545856423
 30
0.0
 11
-23.9999999999999929
 21
9.194215545856423
 31
0.0
  0
LINE
  5
14F
100
AcDbEntity
100
AcDbLine
  8
arbre_armature2
 62
256
370
-1
 48
1.0
  6
BYLAYER
 10
24.0
 20
61.0288887729105767
 30
0.0
 11
30.0
 21
61.0288887729105767
 31
0.0
  0
LINE
  5
150
100
AcDbEntity
100
AcDbLine
  8
arbre_armature2
 62
256
370
-1
 48
1.0
  6
BYLAYER
 10
23.9999999999999893
 20
9.1942155458564159
 30
0.0
 11
29.9999999999999893
 21
9.1942155458564141
 31
0.0
  0
LINE
  5
151
100
AcDbEntity
100
AcDbLine
  8
arbre_armature2
 62
256
370
-1
 48
1.0
  6
BYLAYER
 10
-44.0
 20
-49.7499999999999716
 30
0.0
 11
-38.0
 21
-49.7499999999999716
 31
0.0
  0
LINE
  5
152
100
AcDbEntity
100
AcDbLine
  8
arbre_armature2
 62
256
370
-1
 48
1.0
  6
BYLAYER
 10
37.9999999999999787
 20
-49.7499999999999858
 30
0.0
 11
43.9999999999999787
 21
-49.7499999999999858
 31
0.0
  0
LINE
  5
153
100
AcDbEntity
100
AcDbLine
  8
arbre_armature2
 62
256
370
-1
 48
1.0
  6
BYLAYER
 10
-30.0
 20
56.0288887729105909
 30
0.0
 11
-24.0
 21
56.0288887729105838
 31
0.0
  0
LINE
  5
154
100
AcDbEntity
100
AcDbLine
  8
arbre_armature2
 62
256
370
-1
 48
1.0
  6
BYLAYER
 10
24.0
 20
56.0288887729105767
 30
0.0
 11
30.0
 21
56.0288887729105767
 31
0.0
  0
LINE
  5
155
100
AcDbEntity
100
AcDbLine
  8
arbre_armature2
 62
256
370
-1
 48
1.0
  6
BYLAYER
 10
-44.0
 20
-54.7499999999999716
 30
0.0
 11
-38.0
 21
-54.7499999999999716
 31
0.0
  0
LINE
  5
156
100
AcDbEntity
100
AcDbLine
  8
arbre_armature2
 62
256
370
-1
 48
1.0
  6
BYLAYER
 10
37.9999999999999787
 20
-54.7499999999999858
 30
0.0
 11
43.9999999999999787
 21
-54.7499999999999858
 31
0.0
  0
LINE
  5
157
100
AcDbEntity
100
AcDbLine
  8
arbre_armature2
 62
256
370
-1
 48
1.0
  6
BYLAYER
 10
-24.0
 20
56.0288887729105767
 30
0.0
 11
-24.0
 21
61.0288887729105767
 31
0.0
  0
LINE
  5
158
100
AcDbEntity
100
AcDbLine
  8
arbre_armature2
 62
256
370
-1
 48
1.0
  6
BYLAYER
 10
-23.9999999999999929
 20
4.1942155458564248
 30
0.0
 11
-23.9999999999999929
 21
9.1942155458564283
 31
0.0
  0
LINE
  5
159
100
AcDbEntity
100
AcDbLine
  8
arbre_armature2
 62
256
370
-1
 48
1.0
  6
BYLAYER
 10
-23.9999999999999929
 20
4.194215545856423
 30
0.0
 11
-29.9999999999999929
 21
4.194215545856423
 31
0.0
  0
LINE
  5
15A
100
AcDbEntity
100
AcDbLine
  8
arbre_armature2
 62
256
370
-1
 48
1.0
  6
BYLAYER
 10
-29.9999999999999893
 20
-14.5
 30
0.0
 11
-29.9999999999999929
 21
4.194215545856423
 31
0.0
  0
LINE
  5
15B
100
AcDbEntity
100
AcDbLine
  8
arbre_armature2
 62
256
370
-1
 48
1.0
  6
BYLAYER
 10
-29.9999999999999929
 20
9.194215545856423
 30
0.0
 11
-30.0
 21
56.0288887729105909
 31
0.0
  0
LINE
  5
15C
100
AcDbEntity
100
AcDbLine
  8
arbre_armature2
 62
256
370
-1
 48
1.0
  6
BYLAYER
 10
-30.0
 20
61.0288887729105909
 30
0.0
 11
-30.0000000000000036
 21
87.2117726456871907
 31
0.0
  0
LINE
  5
15D
100
AcDbEntity
100
AcDbLine
  8
arbre_armature2
 62
256
370
-1
 48
1.0
  6
BYLAYER
 10
30.0
 20
61.0288887729105767
 30
0.0
 11
30.0000000000000071
 21
87.2117726456871907
 31
0.0
  0
LINE
  5
15E
100
AcDbEntity
100
AcDbLine
  8
arbre_armature2
 62
256
370
-1
 48
1.0
  6
BYLAYER
 10
24.0
 20
56.0288887729105767
 30
0.0
 11
24.0
 21
61.0288887729105767
 31
0.0
  0
LINE
  5
15F
100
AcDbEntity
100
AcDbLine
  8
arbre_armature2
 62
256
370
-1
 48
1.0
  6
BYLAYER
 10
23.9999999999999893
 20
4.1942155458564159
 30
0.0
 11
23.9999999999999893
 21
9.1942155458564159
 31
0.0
  0
LINE
  5
160
100
AcDbEntity
100
AcDbLine
  8
arbre_armature2
 62
256
370
-1
 48
1.0
  6
BYLAYER
 10
29.9999999999999858
 20
-14.5000000000000142
 30
0.0
 11
29.9999999999999893
 21
4.1942155458564123
 31
0.0
  0
LINE
  5
161
100
AcDbEntity
100
AcDbLine
  8
arbre_armature2
 62
256
370
-1
 48
1.0
  6
BYLAYER
 10
29.9999999999999893
 20
9.1942155458564194
 30
0.0
 11
30.0
 21
56.0288887729105625
 31
0.0
  0
LINE
  5
162
100
AcDbEntity
100
AcDbLine
  8
arbre_armature2
 62
256
370
-1
 48
1.0
  6
BYLAYER
 10
23.9999999999999893
 20
4.194215545856415
 30
0.0
 11
29.9999999999999893
 21
4.1942155458564141
 31
0.0
  0
LINE
  5
163
100
AcDbEntity
100
AcDbLine
  8
arbre_armature2
 62
256
370
-1
 48
1.0
  6
BYLAYER
 10
-44.0000000000000213
 20
-28.5
 30
0.0
 11
-44.0
 21
-49.7499999999999716
 31
0.0
  0
LINE
  5
164
100
AcDbEntity
100
AcDbLine
  8
arbre_armature2
 62
256
370
-1
 48
1.0
  6
BYLAYER
 10
-43.9999999999999929
 20
-54.7499999999999716
 30
0.0
 11
-43.9999999999999716
 21
-71.5
 31
0.0
  0
LINE
  5
165
100
AcDbEntity
100
AcDbLine
  8
arbre_armature2
 62
256
370
-1
 48
1.0
  6
BYLAYER
 10
-37.9999999999999929
 20
-49.7499999999999716
 30
0.0
 11
-37.9999999999999858
 21
-54.7499999999999716
 31
0.0
  0
LINE
  5
166
100
AcDbEntity
100
AcDbLine
  8
arbre_armature2
 62
256
370
-1
 48
1.0
  6
BYLAYER
 10
37.9999999999999787
 20
-49.7499999999999858
 30
0.0
 11
37.9999999999999787
 21
-54.7499999999999858
 31
0.0
  0
LINE
  5
167
100
AcDbEntity
100
AcDbLine
  8
arbre_armature2
 62
256
370
-1
 48
1.0
  6
BYLAYER
 10
43.9999999999999929
 20
-28.5
 30
0.0
 11
43.9999999999999787
 21
-49.7499999999999858
 31
0.0
  0
LINE
  5
168
100
AcDbEntity
100
AcDbLine
  8
arbre_armature2
 62
256
370
-1
 48
1.0
  6
BYLAYER
 10
43.9999999999999787
 20
-54.7499999999999858
 30
0.0
 11
43.9999999999999645
 21
-71.5
 31
0.0
  0
CIRCLE
  5
169
100
AcDbEntity
100
AcDbCircle
  8
arbre_armature2
 62
256
370
-1
 48
1.0
  6
BYLAYER
 10
17.5000000000000071
 20
15.1942155458564159
 30
0.0
 40
1.5
  0
CIRCLE
  5
16A
100
AcDbEntity
100
AcDbCircle
  8
arbre_armature2
 62
256
370
-1
 48
1.0
  6
BYLAYER
 10
17.5000000000000071
 20
67.0288887729105767
 30
0.0
 40
1.5
  0
CIRCLE
  5
16B
100
AcDbEntity
100
AcDbCircle
  8
arbre_armature2
 62
256
370
-1
 48
1.0
  6
BYLAYER
 10
31.5
 20
-43.7499999999999858
 30
0.0
 40
1.5
  0
CIRCLE
  5
16C
100
AcDbEntity
100
AcDbCircle
  8
arbre_armature2
 62
256
370
-1
 48
1.0
  6
BYLAYER
 10
-17.5000000000000391
 20
15.1942155458564372
 30
0.0
 40
1.5
  0
CIRCLE
  5
16D
100
AcDbEntity
100
AcDbCircle
  8
arbre_armature2
 62
256
370
-1
 48
1.0
  6
BYLAYER
 10
-17.5
 20
67.0288887729105767
 30
0.0
 40
1.5
  0
CIRCLE
  5
16E
100
AcDbEntity
100
AcDbCircle
  8
arbre_armature2
 62
256
370
-1
 48
1.0
  6
BYLAYER
 10
-31.5000000000000178
 20
-43.75
 30
0.0
 40
1.5
  0
LINE
  5
16F
100
AcDbEntity
100
AcDbLine
  8
arbre_support_leds2
 62
256
370
-1
 48
1.0
  6
BYLAYER
 10
-63.3944374031373883
 20
61.0288887729105696
 30
0.0
 11
-49.0933942920068844
 21
61.0288887729105838
 31
0.0
  0
LINE
  5
170
100
AcDbEntity
100
AcDbLine
  8
arbre_support_leds2
 62
256
370
-1
 48
1.0
  6
BYLAYER
 10
-49.0933942920068773
 20
73.0288887729105625
 30
0.0
 11
-63.3944374031373883
 21
61.0288887729105696
 31
0.0
  0
LINE
  5
171
100
AcDbEntity
100
AcDbLine
  8
arbre_support_leds2
 62
256
370
-1
 48
1.0
  6
BYLAYER
 10
-87.2286402728190069
 20
9.1942155458563946
 30
0.0
 11
-72.3057733322476963
 21
9.1942155458564088
 31
0.0
  0
LINE
  5
172
100
AcDbEntity
100
AcDbLine
  8
arbre_support_leds2
 62
256
370
-1
 48
1.0
  6
BYLAYER
 10
-85.1127165043174188
 20
21.1942155458563519
 30
0.0
 11
-87.2286402728190069
 21
9.1942155458563946
 31
0.0
  0
LINE
  5
173
100
AcDbEntity
100
AcDbLine
  8
arbre_support_leds2
 62
256
370
-1
 48
1.0
  6
BYLAYER
 10
-72.3057733322477389
 20
21.1942155458563377
 30
0.0
 11
-85.1127165043174188
 21
21.1942155458563519
 31
0.0
  0
LINE
  5
174
100
AcDbEntity
100
AcDbLine
  8
arbre_support_leds2
 62
256
370
-1
 48
1.0
  6
BYLAYER
 10
-49.0933942920068844
 20
61.0288887729105838
 30
0.0
 11
-49.0933942920068773
 21
73.0288887729105625
 31
0.0
  0
LINE
  5
175
100
AcDbEntity
100
AcDbLine
  8
arbre_support_leds2
 62
256
370
-1
 48
1.0
  6
BYLAYER
 10
-72.3057733322477105
 20
9.1942155458563803
 30
0.0
 11
-72.3057733322477958
 21
21.1942155458564656
 31
0.0
  0
LINE
  5
176
100
AcDbEntity
100
AcDbLine
  8
arbre_support_leds2
 62
256
370
-1
 48
1.0
  6
BYLAYER
 10
-72.3131212160006811
 20
-49.7499999999999432
 30
0.0
 11
-65.0148271381724214
 21
-49.7499999999999716
 31
0.0
  0
LINE
  5
177
100
AcDbEntity
100
AcDbLine
  8
arbre_support_leds2
 62
256
370
-1
 48
1.0
  6
BYLAYER
 10
-79.2413244462761526
 20
-37.7499999999999716
 30
0.0
 11
-72.3131212160006811
 21
-49.7499999999999432
 31
0.0
  0
LINE
  5
178
100
AcDbEntity
100
AcDbLine
  8
arbre_support_leds2
 62
256
370
-1
 48
1.0
  6
BYLAYER
 10
-65.014827138172393
 20
-37.75
 30
0.0
 11
-79.2413244462761526
 21
-37.7499999999999716
 31
0.0
  0
LINE
  5
179
100
AcDbEntity
100
AcDbLine
  8
arbre_support_leds2
 62
256
370
-1
 48
1.0
  6
BYLAYER
 10
-65.0148271381724072
 20
-49.7499999999999432
 30
0.0
 11
-65.0148271381723646
 21
-37.7499999999999432
 31
0.0
  0
LINE
  5
17A
100
AcDbEntity
100
AcDbLine
  8
arbre_support_leds2
 62
256
370
-1
 48
1.0
  6
BYLAYER
 10
72.3131212160005958
 20
-49.7499999999999929
 30
0.0
 11
65.014827138172393
 21
-49.7499999999999929
 31
0.0
  0
LINE
  5
17B
100
AcDbEntity
100
AcDbLine
  8
arbre_support_leds2
 62
256
370
-1
 48
1.0
  6
BYLAYER
 10
79.2413244462761384
 20
-37.7499999999999929
 30
0.0
 11
72.3131212160005958
 21
-49.7499999999999929
 31
0.0
  0
LINE
  5
17C
100
AcDbEntity
100
AcDbLine
  8
arbre_support_leds2
 62
256
370
-1
 48
1.0
  6
BYLAYER
 10
65.014827138172393
 20
-37.7499999999999645
 30
0.0
 11
79.2413244462761384
 21
-37.7499999999999929
 31
0.0
  0
LINE
  5
17D
100
AcDbEntity
100
AcDbLine
  8
arbre_support_leds2
 62
256
370
-1
 48
1.0
  6
BYLAYER
 10
65.0148271381723646
 20
-49.7499999999999361
 30
0.0
 11
65.014827138172393
 21
-37.7499999999999361
 31
0.0
  0
LINE
  5
17E
100
AcDbEntity
100
AcDbLine
  8
arbre_support_leds2
 62
256
370
-1
 48
1.0
  6
BYLAYER
 10
63.3944374031374025
 20
61.0288887729105767
 30
0.0
 11
49.0933942920069057
 21
61.0288887729105909
 31
0.0
  0
LINE
  5
17F
100
AcDbEntity
100
AcDbLine
  8
arbre_support_leds2
 62
256
370
-1
 48
1.0
  6
BYLAYER
 10
49.0933942920068915
 20
73.0288887729105625
 30
0.0
 11
63.3944374031374025
 21
61.0288887729105767
 31
0.0
  0
LINE
  5
180
100
AcDbEntity
100
AcDbLine
  8
arbre_support_leds2
 62
256
370
-1
 48
1.0
  6
BYLAYER
 10
87.2286402728189927
 20
9.1942155458564034
 30
0.0
 11
72.3057733322477247
 21
9.1942155458564176
 31
0.0
  0
LINE
  5
181
100
AcDbEntity
100
AcDbLine
  8
arbre_support_leds2
 62
256
370
-1
 48
1.0
  6
BYLAYER
 10
85.1127165043173903
 20
21.1942155458563448
 30
0.0
 11
87.2286402728189927
 21
9.1942155458564034
 31
0.0
  0
LINE
  5
182
100
AcDbEntity
100
AcDbLine
  8
arbre_support_leds2
 62
256
370
-1
 48
1.0
  6
BYLAYER
 10
72.3057733322477532
 20
21.1942155458563448
 30
0.0
 11
85.1127165043173903
 21
21.1942155458563448
 31
0.0
  0
LINE
  5
183
100
AcDbEntity
100
AcDbLine
  8
arbre_support_leds2
 62
256
370
-1
 48
1.0
  6
BYLAYER
 10
49.0933942920069057
 20
61.0288887729105909
 30
0.0
 11
49.0933942920068915
 21
73.0288887729105625
 31
0.0
  0
LINE
  5
184
100
AcDbEntity
100
AcDbLine
  8
arbre_support_leds2
 62
256
370
-1
 48
1.0
  6
BYLAYER
 10
72.3057733322477389
 20
9.1942155458564034
 30
0.0
 11
72.3057733322477816
 21
21.1942155458564443
 31
0.0
  0
ENDSEC
  0
SECTION
  2
OBJECTS
  0
DICTIONARY
  5
C
100
AcDbDictionary
280
0
281
1
  3
ACAD_GROUP
350
D
  3
ACAD_LAYOUT
350
1A
  3
ACAD_MLINESTYLE
350
17
  3
ACAD_PLOTSETTINGS
350
19
  3
ACAD_PLOTSTYLENAME
350
E
  3
AcDbVariableDictionary
350
185
  3
QCAD_OBJECTS
350
186
  0
DICTIONARY
  5
D
100
AcDbDictionary
280
0
281
1
  0
ACDBDICTIONARYWDFLT
  5
E
100
AcDbDictionary
281
1
  3
Normal
350
F
100
AcDbDictionaryWithDefault
340
F
  0
ACDBPLACEHOLDER
  5
F
  0
DICTIONARY
  5
17
100
AcDbDictionary
280
0
281
1
  3
Standard
350
18
  0
MLINESTYLE
  5
18
100
AcDbMlineStyle
  2
STANDARD
 70
0
  3

 62
256
 51
90.0
 52
90.0
 71
2
 49
0.5
 62
256
  6
BYLAYER
 49
-0.5
 62
256
  6
BYLAYER
  0
DICTIONARY
  5
19
100
AcDbDictionary
280
0
281
1
  0
DICTIONARY
  5
1A
100
AcDbDictionary
281
1
  3
Layout1
350
1E
  3
Layout2
350
26
  3
Model
350
22
  0
LAYOUT
  5
1E
100
AcDbPlotSettings
  1

  2
none_device
  4

  6

 40
0.0
 41
0.0
 42
0.0
 43
0.0
 44
0.0
 45
0.0
 46
0.0
 47
0.0
 48
0.0
 49
0.0
140
0.0
141
0.0
142
1.0
143
1.0
 70
688
 72
0
 73
0
 74
5
  7

 75
16
147
1.0
148
0.0
149
0.0
100
AcDbLayout
  1
Layout1
 70
1
 71
1
 10
0.0
 20
0.0
 11
420.0
 21
297.0
 12
0.0
 22
0.0
 32
0.0
 14
100000000000000000000.0
 24
100000000000000000000.0
 34
100000000000000000000.0
 15
-100000000000000000000.0
 25
-100000000000000000000.0
 35
-100000000000000000000.0
146
0.0
 13
0.0
 23
0.0
 33
0.0
 16
1.0
 26
0.0
 36
0.0
 17
0.0
 27
1.0
 37
0.0
 76
0
330
1B
  0
LAYOUT
  5
22
100
AcDbPlotSettings
  1

  2
none_device
  4

  6

 40
0.0
 41
0.0
 42
0.0
 43
0.0
 44
0.0
 45
0.0
 46
0.0
 47
0.0
 48
0.0
 49
0.0
140
0.0
141
0.0
142
1.0
143
1.0
 70
1712
 72
0
 73
0
 74
0
  7

 75
0
147
1.0
148
0.0
149
0.0
100
AcDbLayout
  1
Model
 70
1
 71
0
 10
0.0
 20
0.0
 11
12.0
 21
9.0
 12
0.0
 22
0.0
 32
0.0
 14
0.0
 24
0.0
 34
0.0
 15
0.0
 25
0.0
 35
0.0
146
0.0
 13
0.0
 23
0.0
 33
0.0
 16
1.0
 26
0.0
 36
0.0
 17
0.0
 27
1.0
 37
0.0
 76
0
330
1F
  0
LAYOUT
  5
26
100
AcDbPlotSettings
  1

  2
none_device
  4

  6

 40
0.0
 41
0.0
 42
0.0
 43
0.0
 44
0.0
 45
0.0
 46
0.0
 47
0.0
 48
0.0
 49
0.0
140
0.0
141
0.0
142
1.0
143
1.0
 70
688
 72
0
 73
0
 74
5
  7

 75
16
147
1.0
148
0.0
149
0.0
100
AcDbLayout
  1
Layout2
 70
1
 71
2
 10
0.0
 20
0.0
 11
12.0
 21
9.0
 12
0.0
 22
0.0
 32
0.0
 14
0.0
 24
0.0
 34
0.0
 15
0.0
 25
0.0
 35
0.0
146
0.0
 13
0.0
 23
0.0
 33
0.0
 16
1.0
 26
0.0
 36
0.0
 17
0.0
 27
1.0
 37
0.0
 76
0
330
23
  0
DICTIONARY
  5
185
100
AcDbDictionary
281
1
  3
DIMASSOC
350
188
  3
HIDETEXT
350
187
  0
DICTIONARYVAR
  5
187
100
DictionaryVariables
280
0
  1
2
  0
DICTIONARYVAR
  5
188
100
DictionaryVariables
280
0
  1
1
  0
DICTIONARY
  5
186
100
AcDbDictionary
281
1
  3
ColorSettings/BackgroundColor
350
189
  3
ColorSettings/ColorMode
350
18A
  3
Grid/DisplayGrid00
350
18B
  3
Grid/DisplayGrid01
350
18C
  3
Grid/DisplayGrid02
350
18D
  3
Grid/DisplayGrid03
350
18E
  3
Grid/GridSpacingX00
350
18F
  3
Grid/GridSpacingX01
350
190
  3
Grid/GridSpacingX02
350
191
  3
Grid/GridSpacingX03
350
192
  3
Grid/GridSpacingY00
350
193
  3
Grid/GridSpacingY01
350
194
  3
Grid/GridSpacingY02
350
195
  3
Grid/GridSpacingY03
350
196
  3
Grid/IsometricGrid00
350
197
  3
Grid/IsometricGrid01
350
198
  3
Grid/IsometricGrid02
350
199
  3
Grid/IsometricGrid03
350
19A
  3
Grid/IsometricProjection00
350
19B
  3
Grid/IsometricProjection01
350
19C
  3
Grid/IsometricProjection02
350
19D
  3
Grid/IsometricProjection03
350
19E
  3
Grid/MetaGridSpacingX00
350
19F
  3
Grid/MetaGridSpacingX01
350
1A0
  3
Grid/MetaGridSpacingX02
350
1A1
  3
Grid/MetaGridSpacingX03
350
1A2
  3
Grid/MetaGridSpacingY00
350
1A3
  3
Grid/MetaGridSpacingY01
350
1A4
  3
Grid/MetaGridSpacingY02
350
1A5
  3
Grid/MetaGridSpacingY03
350
1A6
  3
MultiPageSettings/Columns
350
1A7
  3
MultiPageSettings/GlueMarginsBottom
350
1A8
  3
MultiPageSettings/GlueMarginsLeft
350
1A9
  3
MultiPageSettings/GlueMarginsRight
350
1AA
  3
MultiPageSettings/GlueMarginsTop
350
1AB
  3
MultiPageSettings/PrintCropMarks
350
1AC
  3
MultiPageSettings/Rows
350
1AD
  3
PageSettings/OffsetX
350
1AE
  3
PageSettings/OffsetY
350
1AF
  3
PageSettings/PageOrientation
350
1B0
  3
PageSettings/PaperHeight
350
1B1
  3
PageSettings/PaperWidth
350
1B2
  3
PageSettings/Scale
350
1B3
  3
PageSettings/ShowPaperBorders
350
1B4
  3
QCADVersion
350
1B5
  3
UnitSettings/PaperUnit
350
1B6
  0
XRECORD
  5
189
330
186
100
AcDbXrecord
280
1
1000
Blanc
  0
XRECORD
  5
18A
330
186
100
AcDbXrecord
280
1
1000
FullColor
  0
XRECORD
  5
18B
330
186
100
AcDbXrecord
280
1
290
1
  0
XRECORD
  5
18C
330
186
100
AcDbXrecord
280
1
290
1
  0
XRECORD
  5
18D
330
186
100
AcDbXrecord
280
1
290
1
  0
XRECORD
  5
18E
330
186
100
AcDbXrecord
280
1
290
1
  0
XRECORD
  5
18F
330
186
100
AcDbXrecord
280
1
1000
auto
  0
XRECORD
  5
190
330
186
100
AcDbXrecord
280
1
1000
auto
  0
XRECORD
  5
191
330
186
100
AcDbXrecord
280
1
1000
auto
  0
XRECORD
  5
192
330
186
100
AcDbXrecord
280
1
1000
auto
  0
XRECORD
  5
193
330
186
100
AcDbXrecord
280
1
1000
auto
  0
XRECORD
  5
194
330
186
100
AcDbXrecord
280
1
1000
auto
  0
XRECORD
  5
195
330
186
100
AcDbXrecord
280
1
1000
auto
  0
XRECORD
  5
196
330
186
100
AcDbXrecord
280
1
1000
auto
  0
XRECORD
  5
197
330
186
100
AcDbXrecord
280
1
290
0
  0
XRECORD
  5
198
330
186
100
AcDbXrecord
280
1
290
0
  0
XRECORD
  5
199
330
186
100
AcDbXrecord
280
1
290
0
  0
XRECORD
  5
19A
330
186
100
AcDbXrecord
280
1
290
0
  0
XRECORD
  5
19B
330
186
100
AcDbXrecord
280
1
 90
0
  0
XRECORD
  5
19C
330
186
100
AcDbXrecord
280
1
 90
0
  0
XRECORD
  5
19D
330
186
100
AcDbXrecord
280
1
 90
0
  0
XRECORD
  5
19E
330
186
100
AcDbXrecord
280
1
 90
0
  0
XRECORD
  5
19F
330
186
100
AcDbXrecord
280
1
1000
auto
  0
XRECORD
  5
1A0
330
186
100
AcDbXrecord
280
1
1000
auto
  0
XRECORD
  5
1A1
330
186
100
AcDbXrecord
280
1
1000
auto
  0
XRECORD
  5
1A2
330
186
100
AcDbXrecord
280
1
1000
auto
  0
XRECORD
  5
1A3
330
186
100
AcDbXrecord
280
1
1000
auto
  0
XRECORD
  5
1A4
330
186
100
AcDbXrecord
280
1
1000
auto
  0
XRECORD
  5
1A5
330
186
100
AcDbXrecord
280
1
1000
auto
  0
XRECORD
  5
1A6
330
186
100
AcDbXrecord
280
1
1000
auto
  0
XRECORD
  5
1A7
330
186
100
AcDbXrecord
280
1
 90
1
  0
XRECORD
  5
1A8
330
186
100
AcDbXrecord
280
1
 40
10.0
  0
XRECORD
  5
1A9
330
186
100
AcDbXrecord
280
1
 40
10.0
  0
XRECORD
  5
1AA
330
186
100
AcDbXrecord
280
1
 40
10.0
  0
XRECORD
  5
1AB
330
186
100
AcDbXrecord
280
1
 40
10.0
  0
XRECORD
  5
1AC
330
186
100
AcDbXrecord
280
1
290
0
  0
XRECORD
  5
1AD
330
186
100
AcDbXrecord
280
1
 90
1
  0
XRECORD
  5
1AE
330
186
100
AcDbXrecord
280
1
 40
0.0
  0
XRECORD
  5
1AF
330
186
100
AcDbXrecord
280
1
 40
0.0
  0
XRECORD
  5
1B0
330
186
100
AcDbXrecord
280
1
1000
Portrait
  0
XRECORD
  5
1B1
330
186
100
AcDbXrecord
280
1
 40
297.0
  0
XRECORD
  5
1B2
330
186
100
AcDbXrecord
280
1
 40
210.0
  0
XRECORD
  5
1B3
330
186
100
AcDbXrecord
280
1
1000
1:1
  0
XRECORD
  5
1B4
330
186
100
AcDbXrecord
280
1
290
1
  0
XRECORD
  5
1B5
330
186
100
AcDbXrecord
280
1
1000
3.12.8.2
  0
XRECORD
  5
1B6
330
186
100
AcDbXrecord
280
1
 90
4
  0
ENDSEC
  0
EOF
